<?xml version="1.0" encoding="UTF-8" standalone="no"?>
<!-- Created with Inkscape (http://www.inkscape.org/) -->
<svg
   xmlns:dc="http://purl.org/dc/elements/1.1/"
   xmlns:cc="http://web.resource.org/cc/"
   xmlns:rdf="http://www.w3.org/1999/02/22-rdf-syntax-ns#"
   xmlns:svg="http://www.w3.org/2000/svg"
   xmlns="http://www.w3.org/2000/svg"
   xmlns:xlink="http://www.w3.org/1999/xlink"
   xmlns:sodipodi="http://sodipodi.sourceforge.net/DTD/sodipodi-0.dtd"
   xmlns:inkscape="http://www.inkscape.org/namespaces/inkscape"
   width="16"
   height="11"
   id="svg2"
   sodipodi:version="0.32"
   inkscape:version="0.44"
   version="1.0"
   sodipodi:docbase="/home/cbrill/public_html/bbclone/images/ext2"
   sodipodi:docname="ac.svg"
   inkscape:export-filename="/home/cbrill/public_html/bbclone/images/ext2/ac.png"
   inkscape:export-xdpi="90"
   inkscape:export-ydpi="90">
  <defs
     id="defs4">
    <linearGradient
       id="linearGradient6334">
      <stop
         style="stop-color:white;stop-opacity:0.50196081;"
         offset="0"
         id="stop6336" />
      <stop
         style="stop-color:white;stop-opacity:0;"
         offset="1"
         id="stop6338" />
    </linearGradient>
    <linearGradient
       inkscape:collect="always"
       xlink:href="#linearGradient6334"
       id="linearGradient6340"
       x1="-4.984375"
       y1="10.341146"
       x2="8.8515635"
       y2="1.1458334"
       gradientUnits="userSpaceOnUse"
       gradientTransform="matrix(1.156409,0,0,1.196262,5.763975,-1.370717)" />
  </defs>
  <sodipodi:namedview
     id="base"
     pagecolor="#ffffff"
     bordercolor="#666666"
     borderopacity="1.0"
     inkscape:pageopacity="0.0"
     inkscape:pageshadow="2"
     inkscape:zoom="34.909091"
     inkscape:cx="12.762318"
     inkscape:cy="4.7737868"
     inkscape:document-units="px"
     inkscape:current-layer="layer1"
     width="16px"
     height="11px"
     inkscape:window-width="1390"
     inkscape:window-height="975"
     inkscape:window-x="0"
     inkscape:window-y="25" />
  <metadata
     id="metadata7">
    <rdf:RDF>
      <cc:Work
         rdf:about="">
        <dc:format>image/svg+xml</dc:format>
        <dc:type
           rdf:resource="http://purl.org/dc/dcmitype/StillImage" />
        <dc:title>Ascension Island</dc:title>
        <dc:date>2006-12-28</dc:date>
        <dc:creator>
          <cc:Agent>
            <dc:title>Christoph Brill</dc:title>
          </cc:Agent>
        </dc:creator>
        <cc:license
           rdf:resource="http://creativecommons.org/licenses/by-nc-sa/2.5/" />
      </cc:Work>
      <cc:License
         rdf:about="http://creativecommons.org/licenses/by-nc-sa/2.5/">
        <cc:permits
           rdf:resource="http://web.resource.org/cc/Reproduction" />
        <cc:permits
           rdf:resource="http://web.resource.org/cc/Distribution" />
        <cc:requires
           rdf:resource="http://web.resource.org/cc/Notice" />
        <cc:requires
           rdf:resource="http://web.resource.org/cc/Attribution" />
        <cc:prohibits
           rdf:resource="http://web.resource.org/cc/CommercialUse" />
        <cc:permits
           rdf:resource="http://web.resource.org/cc/DerivativeWorks" />
        <cc:requires
           rdf:resource="http://web.resource.org/cc/ShareAlike" />
      </cc:License>
    </rdf:RDF>
  </metadata>
  <g
     inkscape:label="Ebene 1"
     inkscape:groupmode="layer"
     id="layer1">
    <rect
       style="opacity:1;fill:#003475;fill-opacity:1;stroke:none;stroke-width:2;stroke-linecap:round;stroke-linejoin:round;stroke-miterlimit:4;stroke-dasharray:none;stroke-opacity:0.55"
       id="rect3647"
       width="8.094142"
       height="5.564723"
       x="-0.054102201"
       y="-0.026601695" />
    <rect
       style="opacity:1;fill:#e90000;fill-opacity:1;stroke:white;stroke-width:0.15224352;stroke-linecap:round;stroke-linejoin:miter;stroke-miterlimit:4;stroke-dasharray:none;stroke-opacity:1"
       id="rect4540"
       width="14.567157"
       height="0.3654978"
       x="-5.4812641"
       y="4.3251038"
       transform="matrix(0.835713,-0.549167,0.549167,0.835713,0,0)" />
    <rect
       transform="matrix(0.829302,0.5588,-0.5588,0.829302,0,0)"
       y="-0.10438138"
       x="-2.4294057"
       height="0.36549643"
       width="14.567099"
       id="rect4542"
       style="opacity:1;fill:#e90000;fill-opacity:1;stroke:white;stroke-width:0.15224294;stroke-linecap:round;stroke-linejoin:miter;stroke-miterlimit:4;stroke-dasharray:none;stroke-opacity:1" />
    <rect
       style="opacity:1;fill:#e90000;fill-opacity:1;stroke:white;stroke-width:0.13867587;stroke-linecap:round;stroke-linejoin:miter;stroke-miterlimit:4;stroke-dasharray:none;stroke-opacity:1"
       id="rect3651"
       width="8.9672337"
       height="0.87309188"
       x="-0.490648"
       y="2.3192139" />
    <rect
       y="-0.47298619"
       x="3.5465851"
       height="6.4574924"
       width="0.89276886"
       id="rect3653"
       style="opacity:1;fill:#e90000;fill-opacity:1;stroke:white;stroke-width:0.12647098;stroke-linecap:round;stroke-linejoin:miter;stroke-miterlimit:4;stroke-dasharray:none;stroke-opacity:1" />
    <path
       style="fill:#003475;fill-opacity:1;stroke:none;stroke-width:2;stroke-linecap:round;stroke-linejoin:round;stroke-miterlimit:4;stroke-opacity:0.55"
       d="M 8,5.5 L 8,0 L 16,0 L 16,11 L 0,11 L 0,5.5 L 8,5.5 z "
       id="rect1880"
       sodipodi:nodetypes="ccccccc" />
    <path
       style="fill:white;fill-opacity:1;fill-rule:nonzero;stroke:none;stroke-width:1px;stroke-linecap:butt;stroke-linejoin:miter;stroke-opacity:1"
       id="path2776"
       d="M 4.3111616,8.9888065 C 4.6359586,8.6834465 4.7497014,8.7650151 5.1390347,8.7242156 C 5.608614,8.6544803 6.0626351,8.5063001 6.492792,8.3080205 L 6.1846762,8.552445 C 5.749451,8.7437871 5.2927852,8.8870929 4.8221053,8.9598271 C 4.5559621,8.9904331 3.9710055,9.1226914 4.6767769,8.7647571 L 4.3111616,8.9888065 z " />
    <path
       sodipodi:type="arc"
       style="opacity:1;fill:yellow;fill-opacity:1;stroke:none;stroke-width:0.1;stroke-linecap:round;stroke-linejoin:miter;stroke-miterlimit:4;stroke-dasharray:none;stroke-opacity:1"
       id="path1885"
       sodipodi:cx="12.246094"
       sodipodi:cy="4.1106772"
       sodipodi:rx="2.3059895"
       sodipodi:ry="2.3059895"
       d="M 14.552083 4.1106772 A 2.3059895 2.3059895 0 1 1  9.9401042,4.1106772 A 2.3059895 2.3059895 0 1 1  14.552083 4.1106772 z" />
    <path
       style="fill:black;fill-opacity:1;fill-rule:nonzero;stroke:none;stroke-width:1px;stroke-linecap:butt;stroke-linejoin:miter;stroke-opacity:1"
       id="path2772"
       d="M 10.350518,4.7632395 C 10.272324,4.3619602 10.778974,4.5854298 10.780816,4.5847984 C 10.831303,4.7481359 10.930064,4.8851655 11.039336,5.0139877 C 11.234723,5.2216798 11.490137,5.3347836 11.756003,5.4221788 C 12.061021,5.5216027 12.361375,5.4825873 12.664146,5.4030753 C 12.84217,5.3903214 13.652175,4.9322809 13.046779,5.2739236 C 13.146701,5.2162425 13.236398,5.1469332 13.31411,5.0648205 L 13.695424,4.8758899 C 13.635,4.9813635 13.55264,5.0641941 13.428512,5.1263955 C 13.079899,5.3296765 12.739804,5.54419 12.345457,5.6469284 C 12.036835,5.7223731 11.730799,5.7512541 11.422986,5.6480409 C 11.151365,5.5551917 10.890607,5.4367877 10.689706,5.2246005 C 10.577014,5.0948097 10.47416,4.9562724 10.411497,4.7946617 C 10.520424,4.7219121 10.857915,4.5296204 10.732815,4.5684491 L 10.350518,4.7632395 z " />
    <path
       style="fill:black;fill-opacity:1;fill-rule:nonzero;stroke:none;stroke-width:1px;stroke-linecap:butt;stroke-linejoin:miter;stroke-opacity:1"
       id="path2775"
       d="M 11.553643,3.130427 C 11.638768,3.0457937 11.77315,3.0331606 11.881891,2.9823225 C 11.876065,3.0854106 11.92542,3.0937732 12.016653,3.1143929 C 12.257523,2.9782504 11.776509,3.444987 11.760074,3.1475374 C 11.566516,2.9156445 11.341096,3.1200301 11.874087,2.8405545 C 11.845893,2.9409982 11.873257,2.7924389 11.875662,2.9318943 L 11.509341,3.1325825 C 11.500765,3.0891561 11.466057,3.0504315 11.483613,3.0023034 C 11.838029,2.7930462 11.888647,2.6671556 12.125296,2.9410295 C 12.22007,3.2059448 11.933321,3.3290589 11.672716,3.3561573 C 11.568456,3.3180124 11.495663,3.2858264 11.497154,3.1600811 C 11.593758,3.0963063 11.847945,2.7189758 11.93594,2.9356366 L 11.553643,3.130427 z " />
    <path
       style="fill:black;fill-opacity:1;fill-rule:nonzero;stroke:none;stroke-width:1px;stroke-linecap:butt;stroke-linejoin:miter;stroke-opacity:1"
       id="path2777"
       d="M 12.928643,3.2736562 C 12.946473,3.2016379 12.911346,3.1577371 12.886282,3.0974632 C 12.701775,2.965199 12.322934,3.2534197 12.920367,2.9379966 C 12.84189,3.1155632 12.999655,3.1707036 13.15532,3.1952624 C 13.516287,3.159415 13.555994,3.0781659 13.176142,3.2449294 C 13.130358,3.1233554 13.017717,3.1001464 12.900887,3.0922026 L 13.241488,2.844641 C 13.38055,2.8758161 13.501432,2.9181414 13.555308,3.0623634 C 13.336824,3.2327504 13.140078,3.4694487 12.818019,3.4308894 C 12.628768,3.390033 12.478651,3.3090619 12.534863,3.0976975 C 12.782563,2.9389813 12.985418,2.6896238 13.248227,2.8831294 C 13.285849,2.9477883 13.318652,3.0001237 13.31094,3.0788658 L 12.928643,3.2736562 z " />
    <path
       style="fill:black;fill-opacity:1;fill-rule:nonzero;stroke:none;stroke-width:1px;stroke-linecap:butt;stroke-linejoin:miter;stroke-opacity:1"
       id="path2779"
       d="M 12.479933,3.8340789 C 12.45381,3.9405083 12.442024,4.0489325 12.430608,4.1578369 C 12.424215,4.2324901 12.423249,4.3074058 12.420631,4.382229 L 12.04851,4.5703087 C 12.051656,4.4946781 12.054035,4.4190049 12.05909,4.3434655 C 12.067561,4.2381528 12.071474,4.1313177 12.098192,4.0285856 L 12.479933,3.8340789 z " />
    <path
       style="fill:white;fill-opacity:1;fill-rule:nonzero;stroke:none;stroke-width:1px;stroke-linecap:butt;stroke-linejoin:miter;stroke-opacity:1"
       id="path2774"
       d="M 4.0776372,10.313394 C 4.1590571,10.019832 4.299678,9.7435059 4.4220547,9.4650842 C 4.7141771,8.7772924 4.9781595,8.0780224 5.254003,7.3836311 C 5.2277984,7.1779741 5.8643736,6.1169202 6.0727804,6.5522883 C 6.1433734,7.1263931 6.118934,7.7093902 6.1275727,8.2871851 C 6.1599979,8.6601042 6.1180376,9.0578964 6.2533529,9.4141628 L 5.8949368,9.6112184 C 5.7912619,9.2357899 5.828481,8.8381676 5.802513,8.4533943 C 5.7948813,7.8884043 5.8134375,7.3143088 5.7130942,6.7565875 C 6.3063817,6.1941789 5.6494358,6.8497621 5.5844109,7.2309364 C 5.3025457,7.9195361 5.0406151,8.6158723 4.7654789,9.3071471 C 4.6557861,9.5744841 4.5341122,9.8394812 4.4588212,10.119171 L 4.0776372,10.313394 z " />
    <path
       style="fill:white;fill-opacity:1;fill-rule:nonzero;stroke:none;stroke-width:1px;stroke-linecap:butt;stroke-linejoin:miter;stroke-opacity:1"
       id="path2778"
       d="M 9.5776371,6.6467277 C 9.5322765,6.5390919 9.4323789,6.5231025 9.3202163,6.5023581 C 8.8858836,6.471305 8.4854512,6.6635931 8.1164223,6.8695472 C 7.9490622,7.0281221 7.5307528,7.644554 7.4224496,8.0998004 C 7.3640487,8.790982 7.9692811,8.8035842 8.4976995,8.742685 C 9.0622336,8.6399106 9.5792034,8.3852102 10.115813,8.1948727 C 10.501107,8.0964916 10.026864,8.2051784 10.262671,8.1778576 L 9.9196648,8.4226021 C 9.70649,8.4570514 10.225785,8.3374486 9.7981762,8.4422348 C 9.2684735,8.6208732 8.7581513,8.8646488 8.2033866,8.9615986 C 7.6423477,9.0233101 7.0163978,8.9892778 7.0799348,8.2644115 C 7.2588713,7.5042142 7.721371,7.0003088 8.4101505,6.6326811 C 8.7937484,6.4243917 9.2088438,6.2297145 9.6571115,6.2673932 C 9.7876087,6.2941957 9.9046166,6.3229798 9.9588211,6.4525048 L 9.5776371,6.6467277 z " />
    <path
       style="fill:white;fill-opacity:1;fill-rule:nonzero;stroke:none;stroke-width:1px;stroke-linecap:butt;stroke-linejoin:miter;stroke-opacity:1"
       id="path2780"
       d="M 11.353122,5.2215728 C 11.720363,5.0010034 11.746096,4.9234852 11.704089,5.2765951 C 11.654801,5.9617467 11.582782,6.6447323 11.512279,7.3279399 C 11.450545,7.9140564 11.617621,8.1874689 11.078931,8.4250379 L 11.466845,8.2505604 C 10.698708,8.6525026 11.216005,8.0804135 11.188682,7.4884763 C 11.264317,6.8128753 11.335724,6.1363249 11.344973,5.4558324 C 11.357625,5.1817026 11.414275,5.0629007 11.73542,5.0267825 L 11.353122,5.2215728 z " />
    <rect
       style="opacity:1;fill:url(#linearGradient6340);fill-opacity:1;stroke:none;stroke-width:0.5;stroke-linecap:round;stroke-linejoin:miter;stroke-miterlimit:4;stroke-dasharray:none;stroke-opacity:0.50196078"
       id="rect5439"
       width="16"
       height="11"
       x="0"
       y="0" />
    <rect
       style="opacity:1;fill:none;fill-opacity:1;stroke:white;stroke-width:0.75;stroke-linecap:round;stroke-linejoin:miter;stroke-miterlimit:4;stroke-dasharray:none;stroke-opacity:0.50196078"
       id="rect4552"
       width="13.978705"
       height="8.9787054"
       x="1.0106473"
       y="1.0106477" />
  </g>
</svg>
