<?xml version="1.0" encoding="UTF-8" standalone="no"?>
<!-- Created with Inkscape (http://www.inkscape.org/) -->
<svg
   xmlns:dc="http://purl.org/dc/elements/1.1/"
   xmlns:cc="http://web.resource.org/cc/"
   xmlns:rdf="http://www.w3.org/1999/02/22-rdf-syntax-ns#"
   xmlns:svg="http://www.w3.org/2000/svg"
   xmlns="http://www.w3.org/2000/svg"
   xmlns:xlink="http://www.w3.org/1999/xlink"
   xmlns:sodipodi="http://sodipodi.sourceforge.net/DTD/sodipodi-0.dtd"
   xmlns:inkscape="http://www.inkscape.org/namespaces/inkscape"
   width="16"
   height="11"
   id="svg2"
   sodipodi:version="0.32"
   inkscape:version="0.44"
   version="1.0"
   sodipodi:docbase="/home/cbrill/public_html/bbclone/images/ext2"
   sodipodi:docname="af.svg"
   inkscape:export-filename="/home/cbrill/public_html/bbclone/images/ext2/af.png"
   inkscape:export-xdpi="90"
   inkscape:export-ydpi="90">
  <defs
     id="defs4">
    <linearGradient
       id="linearGradient6334">
      <stop
         style="stop-color:white;stop-opacity:0.50196081;"
         offset="0"
         id="stop6336" />
      <stop
         style="stop-color:white;stop-opacity:0;"
         offset="1"
         id="stop6338" />
    </linearGradient>
    <linearGradient
       inkscape:collect="always"
       xlink:href="#linearGradient6334"
       id="linearGradient6340"
       x1="-4.984375"
       y1="10.341146"
       x2="8.8515635"
       y2="1.1458334"
       gradientUnits="userSpaceOnUse"
       gradientTransform="matrix(1.156409,0,0,1.196262,5.763972,-1.370717)" />
  </defs>
  <sodipodi:namedview
     id="base"
     pagecolor="#ffffff"
     bordercolor="#666666"
     borderopacity="1.0"
     inkscape:pageopacity="0.0"
     inkscape:pageshadow="2"
     inkscape:zoom="34.909091"
     inkscape:cx="11.380241"
     inkscape:cy="0.79812521"
     inkscape:document-units="px"
     inkscape:current-layer="layer1"
     width="16px"
     height="11px"
     inkscape:window-width="1390"
     inkscape:window-height="975"
     inkscape:window-x="0"
     inkscape:window-y="25" />
  <metadata
     id="metadata7">
    <rdf:RDF>
      <cc:Work
         rdf:about="">
        <dc:format>image/svg+xml</dc:format>
        <dc:type
           rdf:resource="http://purl.org/dc/dcmitype/StillImage" />
        <dc:title>Afghanistan</dc:title>
        <dc:date>2006-12-28</dc:date>
        <dc:creator>
          <cc:Agent>
            <dc:title>Christoph Brill</dc:title>
          </cc:Agent>
        </dc:creator>
        <cc:license
           rdf:resource="http://creativecommons.org/licenses/by-nc-sa/2.5/" />
      </cc:Work>
      <cc:License
         rdf:about="http://creativecommons.org/licenses/by-nc-sa/2.5/">
        <cc:permits
           rdf:resource="http://web.resource.org/cc/Reproduction" />
        <cc:permits
           rdf:resource="http://web.resource.org/cc/Distribution" />
        <cc:requires
           rdf:resource="http://web.resource.org/cc/Notice" />
        <cc:requires
           rdf:resource="http://web.resource.org/cc/Attribution" />
        <cc:prohibits
           rdf:resource="http://web.resource.org/cc/CommercialUse" />
        <cc:permits
           rdf:resource="http://web.resource.org/cc/DerivativeWorks" />
        <cc:requires
           rdf:resource="http://web.resource.org/cc/ShareAlike" />
      </cc:License>
    </rdf:RDF>
  </metadata>
  <g
     inkscape:label="Ebene 1"
     inkscape:groupmode="layer"
     id="layer1">
    <rect
       style="opacity:1;fill:url(#linearGradient6340);fill-opacity:1;stroke:none;stroke-width:0.5;stroke-linecap:round;stroke-linejoin:miter;stroke-miterlimit:4;stroke-dasharray:none;stroke-opacity:0.50196078"
       id="rect5439"
       width="16"
       height="11"
       x="0"
       y="0" />
    <rect
       style="opacity:1;fill:none;fill-opacity:1;stroke:white;stroke-width:0.75;stroke-linecap:round;stroke-linejoin:miter;stroke-miterlimit:4;stroke-dasharray:none;stroke-opacity:0.50196078"
       id="rect4552"
       width="13.978705"
       height="8.9787054"
       x="1.0106473"
       y="1.0106477" />
    <rect
       style="opacity:1;fill:#00a500;fill-opacity:1;stroke:none;stroke-width:2;stroke-linecap:round;stroke-linejoin:round;stroke-miterlimit:4;stroke-dasharray:none;stroke-opacity:0.55"
       id="rect1872"
       width="5.3330002"
       height="11"
       x="10.666"
       y="-3.5527137e-15" />
    <rect
       y="3.5762787e-07"
       x="5.3330002"
       height="11"
       width="5.3330002"
       id="rect2760"
       style="opacity:1;fill:red;fill-opacity:1;stroke:none;stroke-width:2;stroke-linecap:round;stroke-linejoin:round;stroke-miterlimit:4;stroke-dasharray:none;stroke-opacity:0.55" />
    <rect
       style="opacity:1;fill:black;fill-opacity:1;stroke:none;stroke-width:2;stroke-linecap:round;stroke-linejoin:round;stroke-miterlimit:4;stroke-dasharray:none;stroke-opacity:0.55"
       id="rect3647"
       width="5.3330002"
       height="11"
       x="0"
       y="-3.5527137e-15" />
    <path
       sodipodi:type="arc"
       style="opacity:1;fill:none;fill-opacity:1;stroke:white;stroke-width:0.30000001;stroke-linecap:round;stroke-linejoin:miter;stroke-miterlimit:4;stroke-dasharray:none;stroke-opacity:1"
       id="path2764"
       sodipodi:cx="-0.70182294"
       sodipodi:cy="7.0898438"
       sodipodi:rx="1.9622396"
       sodipodi:ry="1.9622396"
       d="M 1.2604167 7.0898438 A 1.9622396 1.9622396 0 1 1  -2.6640626,7.0898438 A 1.9622396 1.9622396 0 1 1  1.2604167 7.0898437 z"
       transform="translate(8.701823,-1.589844)" />
    <path
       style="fill:white;fill-opacity:1;fill-rule:nonzero;stroke:none;stroke-width:1px;stroke-linecap:butt;stroke-linejoin:miter;stroke-opacity:1"
       id="path2766"
       d="M 7.2355182,5.0371052 C 7.2187853,5.282726 7.2372215,5.5292724 7.2813253,5.7710962 C 7.4189016,5.9756318 6.9882717,6.2240395 6.9681792,5.8540264 C 6.9330328,5.4330096 6.9254425,5.0106164 6.9278817,4.588362 C 6.7604718,4.2505271 7.3243484,3.6793506 7.2810303,4.2717369 C 7.2529468,4.7893796 7.2490616,5.3079792 7.2490575,5.8262634 C 7.4713833,6.2631583 6.9315079,6.4719619 7.0370669,6.1497581 C 7.2052507,5.557985 7.3701169,4.9653071 7.5355569,4.3727706 C 7.8442174,3.7092948 8.0594548,3.8117164 8.0186412,4.5019742 C 8.0112083,5.0064017 7.9077668,5.5164232 7.9698489,6.0198771 C 7.703246,6.2117032 7.8315971,6.0034635 7.9613432,5.4900115 C 7.8414457,5.1913878 8.4576377,4.4554367 8.3921283,5.082994 C 8.3856267,5.4774057 8.2589891,5.8897015 8.3434497,6.2810822 C 7.8790331,6.6195262 8.2660694,5.9946672 8.3439383,5.655434 C 8.4186754,5.1502152 8.4434401,5.1055456 8.9279938,4.8973359 C 9.0679951,5.2391127 9.0843256,5.1824473 8.6878103,5.3693173 C 8.8021595,5.1776494 8.8188689,4.9506451 8.8293437,4.7322168 C 9.3412429,4.4105508 9.1924634,4.6361242 9.2029857,5.0295834 C 9.2077475,5.4050779 9.2214767,5.7802712 9.2616677,6.1537524 C 9.2589476,6.2511555 9.3047982,6.3212299 9.3420388,6.4027615 L 8.9788998,6.6124103 C 8.9455549,6.5227788 8.9019171,6.4406501 8.9053317,6.3395361 C 8.8751653,5.9644284 8.8620912,5.58847 8.8475482,5.2125104 C 8.8240866,4.7839397 8.7351242,4.7180226 9.2018232,4.5446529 C 9.1788524,4.7684238 9.157511,4.9960674 9.0791308,5.2085166 C 8.5200665,5.5066206 8.7311198,5.4760581 8.5752275,5.1298867 C 9.1801196,4.7536996 8.7103028,5.0552523 8.6953282,5.4861881 C 8.5777237,6.0071968 8.5276357,6.3351588 7.9820392,6.4727254 C 7.9342612,6.0714271 8.0351056,5.6656612 8.0322852,5.2632584 C 8.046992,4.791058 8.6484991,4.7404267 8.3084311,5.3235731 C 8.2446917,5.590328 8.0075543,6.5562267 7.6135894,6.205367 C 7.5854079,5.6953393 7.6747575,5.18588 7.6744157,4.6755801 C 7.6744616,4.6735783 7.6503791,4.1855432 7.6574484,4.178937 C 8.2168461,3.6561829 7.940177,4.0206292 7.8838177,4.2078203 C 7.6995448,4.7925418 7.5309797,5.3828483 7.3937301,5.9804844 C 7.2617492,6.5101035 6.7025695,6.653547 6.9068408,6.0003212 C 6.9142435,5.4841606 6.919176,4.9679672 6.9242973,4.4517799 C 6.9254106,4.0096782 7.4783592,3.8185486 7.2743814,4.4123068 C 7.2672997,4.8307636 7.2763786,5.2499123 7.3301298,5.6655341 C 7.3627814,5.9287529 6.9662132,6.3498431 6.9210956,5.9624293 C 6.8819388,5.7199836 6.8640831,5.4747664 6.8582317,5.2293422 L 7.2355182,5.0371052 z " />
  </g>
</svg>
