<?xml version="1.0" encoding="UTF-8" standalone="no"?>
<!-- Created with Inkscape (http://www.inkscape.org/) -->
<svg
   xmlns:dc="http://purl.org/dc/elements/1.1/"
   xmlns:cc="http://web.resource.org/cc/"
   xmlns:rdf="http://www.w3.org/1999/02/22-rdf-syntax-ns#"
   xmlns:svg="http://www.w3.org/2000/svg"
   xmlns="http://www.w3.org/2000/svg"
   xmlns:xlink="http://www.w3.org/1999/xlink"
   xmlns:sodipodi="http://sodipodi.sourceforge.net/DTD/sodipodi-0.dtd"
   xmlns:inkscape="http://www.inkscape.org/namespaces/inkscape"
   width="16"
   height="11"
   id="svg2"
   sodipodi:version="0.32"
   inkscape:version="0.44"
   version="1.0"
   sodipodi:docbase="/home/cbrill/public_html/bbclone/images/ext2"
   sodipodi:docname="ai.svg"
   inkscape:export-filename="/home/cbrill/public_html/bbclone/images/ext2/ai.png"
   inkscape:export-xdpi="90"
   inkscape:export-ydpi="90">
  <defs
     id="defs4">
    <linearGradient
       id="linearGradient6334">
      <stop
         style="stop-color:white;stop-opacity:0.50196081;"
         offset="0"
         id="stop6336" />
      <stop
         style="stop-color:white;stop-opacity:0;"
         offset="1"
         id="stop6338" />
    </linearGradient>
    <linearGradient
       inkscape:collect="always"
       xlink:href="#linearGradient6334"
       id="linearGradient6340"
       x1="-4.984375"
       y1="10.341146"
       x2="8.8515635"
       y2="1.1458334"
       gradientUnits="userSpaceOnUse"
       gradientTransform="matrix(1.156409,0,0,1.196262,5.763975,-1.370717)" />
  </defs>
  <sodipodi:namedview
     id="base"
     pagecolor="#ffffff"
     bordercolor="#666666"
     borderopacity="1.0"
     inkscape:pageopacity="0.0"
     inkscape:pageshadow="2"
     inkscape:zoom="34.909091"
     inkscape:cx="12.767381"
     inkscape:cy="1.822121"
     inkscape:document-units="px"
     inkscape:current-layer="layer1"
     width="16px"
     height="11px"
     inkscape:window-width="1390"
     inkscape:window-height="975"
     inkscape:window-x="0"
     inkscape:window-y="25" />
  <metadata
     id="metadata7">
    <rdf:RDF>
      <cc:Work
         rdf:about="">
        <dc:format>image/svg+xml</dc:format>
        <dc:type
           rdf:resource="http://purl.org/dc/dcmitype/StillImage" />
        <dc:title>Anguilla</dc:title>
        <dc:date>2006-12-28</dc:date>
        <dc:creator>
          <cc:Agent>
            <dc:title>Christoph Brill</dc:title>
          </cc:Agent>
        </dc:creator>
        <cc:license
           rdf:resource="http://creativecommons.org/licenses/by-nc-sa/2.5/" />
      </cc:Work>
      <cc:License
         rdf:about="http://creativecommons.org/licenses/by-nc-sa/2.5/">
        <cc:permits
           rdf:resource="http://web.resource.org/cc/Reproduction" />
        <cc:permits
           rdf:resource="http://web.resource.org/cc/Distribution" />
        <cc:requires
           rdf:resource="http://web.resource.org/cc/Notice" />
        <cc:requires
           rdf:resource="http://web.resource.org/cc/Attribution" />
        <cc:prohibits
           rdf:resource="http://web.resource.org/cc/CommercialUse" />
        <cc:permits
           rdf:resource="http://web.resource.org/cc/DerivativeWorks" />
        <cc:requires
           rdf:resource="http://web.resource.org/cc/ShareAlike" />
      </cc:License>
    </rdf:RDF>
  </metadata>
  <g
     inkscape:label="Ebene 1"
     inkscape:groupmode="layer"
     id="layer1">
    <rect
       style="opacity:1;fill:#003475;fill-opacity:1;stroke:none;stroke-width:2;stroke-linecap:round;stroke-linejoin:round;stroke-miterlimit:4;stroke-dasharray:none;stroke-opacity:0.55"
       id="rect3647"
       width="8.094142"
       height="5.564723"
       x="-0.054102201"
       y="-0.026601695" />
    <rect
       style="opacity:1;fill:#e90000;fill-opacity:1;stroke:white;stroke-width:0.15224352;stroke-linecap:round;stroke-linejoin:miter;stroke-miterlimit:4;stroke-dasharray:none;stroke-opacity:1"
       id="rect4540"
       width="14.567157"
       height="0.3654978"
       x="-5.4812641"
       y="4.3251038"
       transform="matrix(0.835713,-0.549167,0.549167,0.835713,0,0)" />
    <rect
       transform="matrix(0.829302,0.5588,-0.5588,0.829302,0,0)"
       y="-0.10438138"
       x="-2.4294057"
       height="0.36549643"
       width="14.567099"
       id="rect4542"
       style="opacity:1;fill:#e90000;fill-opacity:1;stroke:white;stroke-width:0.15224294;stroke-linecap:round;stroke-linejoin:miter;stroke-miterlimit:4;stroke-dasharray:none;stroke-opacity:1" />
    <rect
       style="opacity:1;fill:#e90000;fill-opacity:1;stroke:white;stroke-width:0.13867587;stroke-linecap:round;stroke-linejoin:miter;stroke-miterlimit:4;stroke-dasharray:none;stroke-opacity:1"
       id="rect3651"
       width="8.9672337"
       height="0.87309188"
       x="-0.490648"
       y="2.3192139" />
    <rect
       y="-0.47298619"
       x="3.5465851"
       height="6.4574924"
       width="0.89276886"
       id="rect3653"
       style="opacity:1;fill:#e90000;fill-opacity:1;stroke:white;stroke-width:0.12647098;stroke-linecap:round;stroke-linejoin:miter;stroke-miterlimit:4;stroke-dasharray:none;stroke-opacity:1" />
    <path
       style="fill:#003475;fill-opacity:1;stroke:none;stroke-width:2;stroke-linecap:round;stroke-linejoin:round;stroke-miterlimit:4;stroke-opacity:0.55"
       d="M 8,5.5 L 8,0 L 16,0 L 16,11 L 0,11 L 0,5.5 L 8,5.5 z "
       id="rect1880"
       sodipodi:nodetypes="ccccccc" />
    <g
       id="g2131"
       transform="matrix(-3.802756e-2,0,0,3.625456e-2,45.44142,-6.111188)">
      <g
         id="g1387"
         transform="translate(374.4339,64.7382)">
        <path
           d="M 433.93393,176.84741 C 433.93393,265.83546 440.70227,297.43456 463.92227,321.83256 C 487.14227,346.23056 495.93975,350.07354 502.41393,353.81141 C 509.88244,349.49946 518.48774,344.76231 539.53293,322.68793 C 560.34796,300.85497 570.41393,269.38334 570.41393,175.32781 C 555.27393,182.12701 547.73393,184.36701 534.49393,184.32741 C 524.68793,185.33521 509.55993,178.74401 500.51393,174.43261 C 494.60193,178.38041 486.02593,183.08841 470.61393,183.61701 C 452.81393,184.40001 447.17393,181.38361 433.93393,176.84741 z "
           id="path2149"
           sodipodi:nodetypes="czczccccc"
           style="fill:#cc3;stroke:none" />
        <path
           d="M 438.03393,182.46761 C 438.03393,209.99831 436.48234,247.51884 442.02793,269.22741 C 447.59734,291.02921 448.87593,294.22285 453.06393,301.83141 L 550.65993,301.07141 C 556.68878,290.11846 556.99307,283.33402 561.46393,265.83256 C 565.91872,248.39401 567.04393,209.52141 567.17393,180.56801 C 557.35993,185.78461 544.50793,189.48161 532.03393,187.85961 C 522.03393,187.09701 512.79393,184.81461 502.03393,178.73301 C 492.69993,184.32521 489.44593,186.87781 474.03393,187.53081 C 462.03393,188.12261 452.31393,189.09441 438.03393,182.46761 z "
           id="path2197"
           sodipodi:nodetypes="czcczccccc"
           style="fill:white;stroke:none" />
        <path
           d="M 453.27393,301.22741 C 460.21993,315.84541 492.96807,343.86166 502.54517,349.66141 C 513.47193,343.04433 542.36193,315.35941 550.41393,301.22741 L 453.27393,301.22741 z "
           id="path3329"
           sodipodi:nodetypes="cccc"
           style="fill:#9cf;fill-opacity:1;stroke:none" />
        <g
           id="g3625"
           transform="matrix(2,0,0,2,-37.58607,49.22741)">
          <path
             d="M 271,87 C 272.543,90.6293 277.49,94.637 278.85,96.6011 C 277.119,98.5651 276.773,98.3512 277,102 C 280.01,98.8507 280.064,98.5224 282,99 C 286.241,103.232 282.759,112.321 279.254,114.297 C 275.75,116.405 276.386,114.224 271.134,116.866 C 273.542,118.925 276.332,116.564 278.612,117.195 C 279.851,118.665 278.023,121.344 278.986,123.867 C 281.001,123.673 280.759,119.605 281.228,118.13 C 282.7,112.726 291.55,108.957 292,104 C 293.866,103.124 295.731,103.726 298,105 C 296.87,100.356 293.132,100.406 292.13,98.9556 C 289.745,95.311 287.631,91.1532 282.537,90.0746 C 278.67,89.2558 278.959,90.3209 276.481,88.6306 C 274.938,87.4292 270.25,85.1572 271,87 z "
             id="path3627"
             sodipodi:nodetypes="ccccscccsccssss"
             style="font-size:12px;fill:#f90;fill-opacity:1" />
          <path
             d="M 267.04489 122.10443 A 0.805969 0.805969 0 1 1  265.43295,122.10443 A 0.805969 0.805969 0 1 1  267.04489 122.10443 z"
             id="path3629"
             sodipodi:cx="266.23892"
             sodipodi:cy="122.10443"
             sodipodi:rx="0.805969"
             sodipodi:ry="0.805969"
             sodipodi:type="arc"
             style="fill:white;fill-opacity:1;fill-rule:evenodd;stroke:none;stroke-width:1pt;stroke-linecap:butt;stroke-linejoin:miter;stroke-opacity:1"
             transform="translate(15.07813,-30.97657)" />
        </g>
        <g
           id="g3631"
           transform="matrix(-0.934314,-1.768338,1.768338,-0.934314,579.0375,814.5258)">
          <path
             d="M 271,87 C 272.543,90.6293 277.49,94.637 278.85,96.6011 C 277.119,98.5651 276.773,98.3512 277,102 C 280.01,98.8507 280.064,98.5224 282,99 C 286.241,103.232 282.759,112.321 279.254,114.297 C 275.75,116.405 276.386,114.224 271.134,116.866 C 273.542,118.925 276.332,116.564 278.612,117.195 C 279.851,118.665 278.023,121.344 278.986,123.867 C 281.001,123.673 280.759,119.605 281.228,118.13 C 282.7,112.726 291.55,108.957 292,104 C 293.866,103.124 295.731,103.726 298,105 C 296.87,100.356 293.132,100.406 292.13,98.9556 C 289.745,95.311 287.631,91.1532 282.537,90.0746 C 278.67,89.2558 278.959,90.3209 276.481,88.6306 C 274.938,87.4292 270.25,85.1572 271,87 z "
             id="path3633"
             sodipodi:nodetypes="ccccscccsccssss"
             style="font-size:12px;fill:#f90" />
          <path
             d="M 267.04489 122.10443 A 0.805969 0.805969 0 1 1  265.43295,122.10443 A 0.805969 0.805969 0 1 1  267.04489 122.10443 z"
             id="path3635"
             sodipodi:cx="266.23892"
             sodipodi:cy="122.10443"
             sodipodi:rx="0.805969"
             sodipodi:ry="0.805969"
             sodipodi:type="arc"
             style="fill:white;fill-opacity:1;fill-rule:evenodd;stroke:none;stroke-width:1pt;stroke-linecap:butt;stroke-linejoin:miter;stroke-opacity:1"
             transform="translate(15.07813,-30.97657)" />
        </g>
        <g
           id="g3637"
           transform="matrix(-1.030072,1.714332,-1.714332,-1.030072,948.4105,-116.6442)">
          <path
             d="M 271,87 C 272.543,90.6293 277.49,94.637 278.85,96.6011 C 277.119,98.5651 276.773,98.3512 277,102 C 280.01,98.8507 280.064,98.5224 282,99 C 286.241,103.232 282.759,112.321 279.254,114.297 C 275.75,116.405 276.386,114.224 271.134,116.866 C 273.542,118.925 276.332,116.564 278.612,117.195 C 279.851,118.665 278.023,121.344 278.986,123.867 C 281.001,123.673 280.759,119.605 281.228,118.13 C 282.7,112.726 291.55,108.957 292,104 C 293.866,103.124 295.731,103.726 298,105 C 296.87,100.356 293.132,100.406 292.13,98.9556 C 289.745,95.311 287.631,91.1532 282.537,90.0746 C 278.67,89.2558 278.959,90.3209 276.481,88.6306 C 274.938,87.4292 270.25,85.1572 271,87 z "
             id="path3639"
             sodipodi:nodetypes="ccccscccsccssss"
             style="font-size:12px;fill:#f90" />
          <path
             d="M 267.04489 122.10443 A 0.805969 0.805969 0 1 1  265.43295,122.10443 A 0.805969 0.805969 0 1 1  267.04489 122.10443 z"
             id="path3641"
             sodipodi:cx="266.23892"
             sodipodi:cy="122.10443"
             sodipodi:rx="0.805969"
             sodipodi:ry="0.805969"
             sodipodi:type="arc"
             style="fill:white;fill-opacity:1;fill-rule:evenodd;stroke:none;stroke-width:1pt;stroke-linecap:butt;stroke-linejoin:miter;stroke-opacity:1"
             transform="translate(15.07813,-30.97657)" />
        </g>
      </g>
    </g>
    <rect
       style="opacity:1;fill:url(#linearGradient6340);fill-opacity:1;stroke:none;stroke-width:0.5;stroke-linecap:round;stroke-linejoin:miter;stroke-miterlimit:4;stroke-dasharray:none;stroke-opacity:0.50196078"
       id="rect5439"
       width="16"
       height="11"
       x="0"
       y="0" />
    <rect
       style="opacity:1;fill:none;fill-opacity:1;stroke:white;stroke-width:0.75;stroke-linecap:round;stroke-linejoin:miter;stroke-miterlimit:4;stroke-dasharray:none;stroke-opacity:0.50196078"
       id="rect4552"
       width="13.978705"
       height="8.9787054"
       x="1.0106473"
       y="1.0106477" />
  </g>
</svg>
