<?xml version="1.0" encoding="UTF-8" standalone="no"?>
<!-- Created with Inkscape (http://www.inkscape.org/) -->
<svg
   xmlns:dc="http://purl.org/dc/elements/1.1/"
   xmlns:cc="http://web.resource.org/cc/"
   xmlns:rdf="http://www.w3.org/1999/02/22-rdf-syntax-ns#"
   xmlns:svg="http://www.w3.org/2000/svg"
   xmlns="http://www.w3.org/2000/svg"
   xmlns:xlink="http://www.w3.org/1999/xlink"
   xmlns:sodipodi="http://sodipodi.sourceforge.net/DTD/sodipodi-0.dtd"
   xmlns:inkscape="http://www.inkscape.org/namespaces/inkscape"
   width="16"
   height="11"
   id="svg2"
   sodipodi:version="0.32"
   inkscape:version="0.44"
   version="1.0"
   sodipodi:docbase="/home/cbrill/public_html/bbclone/images/ext2"
   sodipodi:docname="al.svg"
   inkscape:export-filename="/home/cbrill/public_html/bbclone/images/ext2/al.png"
   inkscape:export-xdpi="90"
   inkscape:export-ydpi="90">
  <defs
     id="defs4">
    <linearGradient
       id="linearGradient6334">
      <stop
         style="stop-color:white;stop-opacity:0.50196081;"
         offset="0"
         id="stop6336" />
      <stop
         style="stop-color:white;stop-opacity:0;"
         offset="1"
         id="stop6338" />
    </linearGradient>
    <linearGradient
       inkscape:collect="always"
       xlink:href="#linearGradient6334"
       id="linearGradient6340"
       x1="-4.984375"
       y1="10.341146"
       x2="8.8515635"
       y2="1.1458334"
       gradientUnits="userSpaceOnUse"
       gradientTransform="matrix(1.156409,0,0,1.196262,5.763975,-1.370717)" />
  </defs>
  <sodipodi:namedview
     id="base"
     pagecolor="#ffffff"
     bordercolor="#666666"
     borderopacity="1.0"
     inkscape:pageopacity="0.0"
     inkscape:pageshadow="2"
     inkscape:zoom="34.909091"
     inkscape:cx="13.629547"
     inkscape:cy="2.4998642"
     inkscape:document-units="px"
     inkscape:current-layer="layer1"
     width="16px"
     height="11px"
     inkscape:window-width="1390"
     inkscape:window-height="975"
     inkscape:window-x="0"
     inkscape:window-y="25" />
  <metadata
     id="metadata7">
    <rdf:RDF>
      <cc:Work
         rdf:about="">
        <dc:format>image/svg+xml</dc:format>
        <dc:type
           rdf:resource="http://purl.org/dc/dcmitype/StillImage" />
        <dc:title>Albania</dc:title>
        <dc:date>2006-12-28</dc:date>
        <dc:creator>
          <cc:Agent>
            <dc:title>Christoph Brill</dc:title>
          </cc:Agent>
        </dc:creator>
        <cc:license
           rdf:resource="http://creativecommons.org/licenses/by-nc-sa/2.5/" />
      </cc:Work>
      <cc:License
         rdf:about="http://creativecommons.org/licenses/by-nc-sa/2.5/">
        <cc:permits
           rdf:resource="http://web.resource.org/cc/Reproduction" />
        <cc:permits
           rdf:resource="http://web.resource.org/cc/Distribution" />
        <cc:requires
           rdf:resource="http://web.resource.org/cc/Notice" />
        <cc:requires
           rdf:resource="http://web.resource.org/cc/Attribution" />
        <cc:prohibits
           rdf:resource="http://web.resource.org/cc/CommercialUse" />
        <cc:permits
           rdf:resource="http://web.resource.org/cc/DerivativeWorks" />
        <cc:requires
           rdf:resource="http://web.resource.org/cc/ShareAlike" />
      </cc:License>
    </rdf:RDF>
  </metadata>
  <g
     inkscape:label="Ebene 1"
     inkscape:groupmode="layer"
     id="layer1">
    <rect
       y="-3.5527137e-15"
       x="0"
       height="11"
       width="16"
       id="rect2760"
       style="opacity:1;fill:red;fill-opacity:1;stroke:none;stroke-width:2;stroke-linecap:round;stroke-linejoin:round;stroke-miterlimit:4;stroke-dasharray:none;stroke-opacity:0.55" />
    <path
       style="fill:black;stroke:none"
       d="M 6.1858037,0.55393708 C 6.1632417,0.56624333 6.126322,0.59290788 6.1017088,0.61547004 C 6.0688913,0.64418516 6.0196649,0.65444061 5.8658323,0.66059391 C 5.6463653,0.6667472 5.5581675,0.70161596 5.5089413,0.79801778 C 5.4740726,0.86570381 5.4741603,0.8718436 5.4514705,0.92885723 C 5.5532796,0.89983845 5.6750805,0.85749949 5.7304601,0.86775495 C 5.8063506,0.8841637 5.8883944,0.93133916 5.8883944,0.96005428 C 5.8883944,0.97030978 5.8637813,0.99492298 5.8350659,1.0154339 C 5.7500739,1.0363296 5.7226723,1.0363296 5.5725258,1.0154339 C 5.3756201,0.98466758 5.3612625,0.97851428 5.2956274,0.90467461 C 5.2587077,0.86160165 5.2053787,0.80211983 5.1766634,0.76930233 C 5.1192327,0.70571812 5.0371889,0.69546266 5.0084736,0.75084233 C 4.9797583,0.80211983 5.0532131,0.87672869 5.1639727,0.95672168 C 5.2603741,1.0264589 5.3284449,1.074916 5.502788,1.0933756 C 5.5571422,1.099529 5.9713657,1.0981832 5.9918766,1.1099769 C 6.0123881,1.1217707 5.7792692,1.2212162 5.5463425,1.1517679 C 5.6017221,1.2645784 5.8330148,1.3518139 6.0606869,1.3723252 C 6.3150233,1.3969382 6.4893662,1.4523178 6.6698632,1.5712817 C 6.860615,1.6963985 6.9611191,1.8071578 7.0472651,1.9897056 C 7.1354622,2.1702022 7.1662287,2.3219835 7.1559731,2.5004289 C 7.1436666,2.7198964 7.0390608,2.8327071 6.8483084,2.8327071 C 6.7170383,2.8327071 6.6657609,2.8080935 6.602177,2.7198964 C 6.5611546,2.6583636 6.5550012,2.6296483 6.5529502,2.395823 C 6.5529502,2.1763555 6.5447458,2.1271291 6.5078261,2.0553406 C 6.4339867,1.9097126 6.3293808,1.8420266 6.0176139,1.7312673 C 5.8617302,1.6758876 5.6525184,1.5958948 5.5499632,1.5507704 C 5.3448537,1.4646245 5.3366493,1.4666757 5.2874231,1.6061501 C 5.2710143,1.6533256 5.242299,1.6902452 5.2238386,1.6943473 C 5.1643568,1.706654 4.8464365,1.5979459 4.6474804,1.4994933 C 4.304947,1.327201 4.126501,1.1754195 3.9501069,0.89852132 C 3.8455006,0.73443357 3.7696101,0.68725846 3.6670553,0.71597357 C 3.550143,0.74879108 3.4845072,0.84929495 3.4824564,0.99902518 C 3.4804052,1.1302953 3.5439896,1.2390037 3.7101284,1.392836 C 3.991129,1.6533256 4.5162098,1.8912529 4.9695028,1.9650926 C 5.1192327,1.9876543 5.191021,2.0450853 5.191021,2.1394358 C 5.191021,2.2768593 5.0412911,2.332239 4.6761957,2.3342902 C 4.3336624,2.3342902 4.1182968,2.250195 3.9008807,2.0286765 C 3.7614059,1.8830484 3.7121795,1.8604863 3.6219311,1.895355 C 3.5768072,1.913815 3.5296321,2.0122678 3.5296321,2.0881583 C 3.5296321,2.2440417 3.7347417,2.4942757 3.9460048,2.5906775 C 4.1039392,2.6645169 4.2495673,2.68913 4.4915966,2.6788745 C 4.6720935,2.6727212 4.7397796,2.6583636 4.8936122,2.6029839 C 5.2012766,2.4901735 5.2279412,2.4860713 5.264861,2.5229911 C 5.2935762,2.5517064 5.2935762,2.559911 5.2628099,2.623495 C 5.2094809,2.7260496 5.0084736,2.916802 4.8915612,2.9762839 C 4.6126118,3.1178094 4.3377646,3.087043 3.9398515,2.8696269 C 3.7367926,2.7588672 3.6301356,2.754765 3.5706538,2.851167 C 3.5480918,2.8880868 3.5296321,2.9434662 3.5296321,2.9742327 C 3.5296321,3.0521743 3.6321869,3.1629335 3.790121,3.24908 C 3.99318,3.3639413 4.1367568,3.4008611 4.372633,3.4008611 C 4.5838964,3.4008611 4.7172176,3.3680434 4.996167,3.24908 C 5.1376926,3.1895982 5.1951233,3.1834449 5.2320435,3.2244668 C 5.266912,3.2695909 5.2053787,3.3885545 5.0782108,3.5157228 C 4.8874589,3.7064747 4.5080054,3.8500513 4.2495673,3.8254381 C 4.1757274,3.819285 4.0854793,3.7905696 4.0054866,3.7515987 C 3.8413985,3.6695549 3.6957708,3.6634018 3.6219311,3.7392922 C 3.5275809,3.8315915 3.5645005,3.9751686 3.7142304,4.1023366 C 3.812683,4.1884826 3.9152385,4.2213006 4.0752239,4.2213006 C 4.2557207,4.2213006 4.3664799,4.1823293 4.7500351,3.9874752 C 5.1007729,3.8110805 5.1828167,3.7844163 5.2033276,3.841847 C 5.2279412,3.9013292 5.1623057,4.0018329 4.9777071,4.1905336 C 4.598254,4.5740894 4.3828884,4.6499799 3.9706178,4.5474252 C 3.679362,4.4735852 3.5788581,4.5228115 3.5952669,4.7238193 C 3.6075736,4.8653449 3.6547487,4.9330316 3.7880701,5.0007177 C 3.8742163,5.0458419 3.9152385,5.0519951 4.0834281,5.0519951 C 4.2413631,5.0499439 4.2967424,5.0417396 4.3808375,5.0048199 C 4.5264653,4.9371338 4.8464365,4.7176661 5.0269335,4.5597317 C 5.2484523,4.3648772 5.3345982,4.3279575 5.3345982,4.424359 C 5.3345982,4.5187093 4.973605,5.0150754 4.7582395,5.2140317 C 4.6761957,5.2899227 4.5531299,5.3781196 4.4772389,5.4150394 C 4.3521221,5.4765723 4.3254579,5.4827256 4.1552165,5.4806744 C 4.054713,5.4806744 3.9049831,5.4765723 3.8249898,5.470419 C 3.6485956,5.4601635 3.5911647,5.4950321 3.5911647,5.6119451 C 3.5911647,5.7206531 3.7449971,5.8662808 3.907034,5.9134565 C 4.2413631,6.0119091 4.6064585,5.8416676 5.0576999,5.3822219 C 5.3920289,5.0417396 5.4392041,5.0622506 5.242299,5.4683679 C 5.0330868,5.9032006 4.7684949,6.2129165 4.4956988,6.342136 C 4.3541733,6.407771 4.3172537,6.4118731 3.9501069,6.3954644 C 3.7880701,6.3872601 3.7142304,6.430333 3.7142304,6.5308367 C 3.7142304,6.5821141 3.7326904,6.6169833 3.790121,6.6744138 C 3.9993333,6.8836256 4.3459688,6.8918299 4.6987577,6.6969759 C 4.8977144,6.5862162 5.3817734,6.0549821 5.6504673,5.6509158 C 5.794044,5.4355503 5.8309637,5.4088861 5.88019,5.4847767 C 5.910957,5.5299007 5.913008,5.554514 5.8945477,5.6529669 C 5.837117,5.9565296 5.6914892,6.1883032 5.4720215,6.3318805 C 5.330496,6.4221286 5.2976785,6.4754571 5.3243427,6.559552 C 5.3571602,6.6641584 5.5581675,6.7154358 5.6812338,6.6518518 C 5.8268615,6.5780119 6.0114606,6.2990629 6.191957,5.8826897 C 6.3211764,5.5852808 6.3293808,5.5750253 6.3929647,5.5750253 C 6.5591035,5.5750253 6.5016728,5.923712 6.2986144,6.1554858 C 6.2083658,6.2580411 6.1940081,6.3277782 6.2575926,6.3852089 C 6.310921,6.4344352 6.3909137,6.4159754 6.5324393,6.3257272 C 6.6637099,6.2416318 6.7354982,6.1575369 6.8318997,5.9708872 C 6.9529148,5.739113 7.0021411,5.7985948 6.903688,6.0570332 C 6.7662647,6.4262309 6.438089,6.7544066 5.976592,6.9882319 C 5.9048031,7.0231005 5.8473724,7.0579692 5.8473724,7.0641224 C 5.8473724,7.0702757 5.8883944,7.1236042 5.9396723,7.1789838 C 5.9909496,7.2364145 6.0319715,7.2876923 6.0319715,7.2979478 C 6.0319715,7.3184587 5.7509711,7.4456266 5.4186931,7.5727945 L 5.1212838,7.6876563 L 4.9674517,7.5912544 C 4.7561884,7.4620354 4.639276,7.3656339 4.6146628,7.2999989 C 4.5654365,7.1728305 4.4075017,7.0887356 4.2905893,7.1297574 C 4.2495673,7.1441151 4.200341,7.1420641 4.1223989,7.1215531 C 3.9419027,7.0743778 3.8321588,7.2187131 3.8039663,7.2933326 C 3.8663967,7.302619 3.8362709,7.2999989 3.8803698,7.2979478 C 4.0649684,7.2897434 4.0834281,7.2958966 4.163421,7.3779405 C 4.2475164,7.4640865 4.3603266,7.5071595 4.4505747,7.4907507 C 4.4915966,7.4825464 4.5449256,7.5051083 4.6720935,7.5892032 C 4.7664438,7.6486855 4.8423344,7.7040651 4.8423344,7.7122695 C 4.8423344,7.7327804 4.7459329,7.7327804 4.4464724,7.7081673 C 4.2331585,7.6917585 4.1982894,7.6835542 4.1429098,7.6384301 C 4.058815,7.5666413 3.9624136,7.5522836 3.8701143,7.5953566 C 3.8290918,7.615868 3.7552526,7.6322768 3.703975,7.6343279 C 3.6485956,7.6363789 3.5911647,7.6548388 3.5562963,7.679452 C 3.4968139,7.7245761 3.4564972,7.7475871 3.4291279,7.8373863 C 3.5405275,7.8355278 3.5050185,7.8353352 3.5850114,7.8250796 C 3.722435,7.8045687 3.7367926,7.8066198 3.7798655,7.8455906 C 3.8065298,7.8681527 3.8475519,7.8989191 3.8721656,7.9112258 C 3.9336982,7.9419921 4.0752239,7.939941 4.1429098,7.9030213 C 4.1859829,7.8825103 4.2823849,7.874306 4.5059542,7.8722549 C 4.6741446,7.8702038 4.8218234,7.8702038 4.8320789,7.8722549 C 4.8443855,7.8722549 4.7766993,7.9173789 4.6844001,7.9727594 C 4.5264653,8.0691609 4.5121075,8.0732629 4.3767354,8.0712119 C 4.1962385,8.0691609 4.0936838,8.1224892 4.0649684,8.2373507 C 4.054713,8.278372 4.036253,8.3522122 4.0239462,8.3973364 C 3.9952311,8.506044 3.9840173,8.5225886 4.0639429,8.7103849 C 4.1513095,8.5046278 4.1223989,8.5675772 4.1490631,8.528606 C 4.1921361,8.4650226 4.2085455,8.4547667 4.3111002,8.4465626 C 4.4526258,8.4342557 4.5182608,8.3911833 4.5715898,8.278372 C 4.6064585,8.2004306 4.6454293,8.1676134 4.83413,8.0507009 C 5.0925685,7.8907147 5.0761597,7.8907147 5.3674157,8.0260877 C 5.5109924,8.093774 5.5643208,8.1286423 5.5889346,8.1758175 C 5.6320074,8.2619637 5.7243067,8.294781 5.8268615,8.2640149 C 5.9232635,8.2352997 5.9663365,8.2517078 6.0319715,8.3440081 C 6.0596611,8.3840039 6.0612044,8.3762044 6.1021908,8.4135965 C 6.1136719,8.35615 6.1140154,8.3481101 6.1140154,8.290679 C 6.1140154,8.2065837 6.1037598,8.1901754 5.9950519,8.079416 C 5.8678835,7.9522476 5.7899419,7.9173789 5.6976425,7.9522476 C 5.6545696,7.9686566 5.6197009,7.9625036 5.5089413,7.9112258 C 5.3858756,7.8558461 5.3387003,7.8107221 5.4022844,7.8107221 C 5.4145909,7.8107221 5.6135476,7.7368827 5.8412191,7.6486855 L 6.2555414,7.4886996 L 6.3170743,7.537926 C 6.4298845,7.6261235 6.6083303,7.7081673 6.6862718,7.7081673 C 6.7580602,7.7081673 6.7662647,7.702014 6.7888266,7.6281746 C 6.8236954,7.5112616 7.0636739,7.0497648 7.1928929,6.8528592 C 7.4082584,6.5205812 7.5272219,6.4344352 7.6236239,6.5410922 C 7.6543903,6.5759608 7.6625946,6.6149321 7.6605436,6.7421 C 7.6564414,7.1174509 7.443127,7.6076631 7.1621265,7.8845614 C 7.0144475,8.0322408 6.8524106,8.1122333 6.6555055,8.1409492 C 6.503724,8.1614595 6.4011692,8.2004306 6.4011692,8.2394017 C 6.4011692,8.2804231 6.5016728,8.3993874 6.5652568,8.4322047 C 6.6206368,8.4609206 6.6739653,8.4670737 6.7908777,8.4629716 C 6.9324033,8.4568177 6.9590681,8.4486137 7.0944404,8.3665701 C 7.2277615,8.2865769 7.2482724,8.2804231 7.2749368,8.307088 C 7.3016015,8.3337522 7.3036526,8.3522122 7.2831416,8.4260516 C 7.240068,8.5860372 7.1252067,8.6598766 6.8585639,8.6926938 C 6.5857677,8.7275629 6.4934685,8.8096071 6.5837167,8.9367748 C 6.643199,9.018819 6.7457536,9.0618914 6.8872792,9.0618914 C 7.0472651,9.0618914 7.1846886,8.9921542 7.3672365,8.8198623 C 7.4451781,8.7480739 7.5169664,8.6947456 7.529273,8.7029498 C 7.5579884,8.719358 7.5559372,8.8834457 7.5251708,8.9839501 C 7.4964554,9.0803515 7.3672365,9.2321328 7.2892948,9.2628993 C 7.2585279,9.2752057 7.1805864,9.2998184 7.1170023,9.3162272 C 6.8934325,9.3777613 6.860615,9.463907 7.0185498,9.5685128 C 7.1211046,9.6361984 7.291346,9.6423522 7.4164628,9.5828705 C 7.4985065,9.5459502 7.7241276,9.3346874 7.7672005,9.2587968 C 7.80412,9.1911112 7.843091,9.2403367 7.8307849,9.3408411 C 7.82258,9.4249356 7.7733538,9.5192862 7.6625946,9.6751699 C 7.572346,9.7982358 7.6031125,9.9643747 7.7569451,10.189995 C 7.8779593,10.368442 7.9907706,10.487405 8.0194857,10.468946 C 8.070763,10.436127 8.296384,10.134616 8.3415081,10.036164 C 8.3722744,9.9705287 8.3907344,9.8946366 8.3907344,9.8290023 C 8.3907344,9.7367029 8.3804792,9.7100389 8.3086909,9.6197895 C 8.2143397,9.5008273 8.1548583,9.3510962 8.1733175,9.2772569 C 8.1917776,9.2075189 8.2143397,9.2136727 8.267668,9.2977671 C 8.3230481,9.3859652 8.4789317,9.52544 8.5855883,9.5808192 C 8.7537789,9.666966 8.991706,9.6197895 9.0675973,9.4885198 C 9.0942613,9.4392943 9.0942613,9.4290381 9.0593924,9.3941702 C 9.0409323,9.3716076 8.9629909,9.3367397 8.8870997,9.3162272 C 8.8112093,9.2977671 8.7271147,9.2690519 8.6983996,9.2546954 C 8.6307126,9.2218777 8.548669,9.1316284 8.5035448,9.0413812 C 8.4584207,8.9552348 8.4379096,8.7255119 8.4707269,8.7050008 C 8.4850848,8.6947456 8.55072,8.74192 8.6348146,8.8219133 C 8.8112093,8.9880521 8.9322238,9.0475343 9.1127207,9.0577894 C 9.2275822,9.0659943 9.2624511,9.0598412 9.3239836,9.0208701 C 9.4573051,8.9388259 9.4983273,8.8260154 9.4121817,8.766534 C 9.3711596,8.735767 9.3342395,8.7275629 9.0286261,8.6701317 C 8.9199177,8.6496215 8.8809466,8.6311606 8.8071072,8.5593723 C 8.7312169,8.4855338 8.7189098,8.4629716 8.7189098,8.3891323 C 8.7189098,8.3440081 8.7291657,8.2988839 8.739421,8.29273 C 8.7517279,8.2845259 8.8276183,8.3193949 8.9096618,8.3686211 C 9.0532392,8.4547667 9.0614434,8.4568177 9.2337352,8.4568177 C 9.3834658,8.4568177 9.4224368,8.4506647 9.4696121,8.4137454 C 9.5578095,8.3481101 9.6070357,8.272219 9.5926776,8.2250437 C 9.5762687,8.1737665 9.5516556,8.1655624 9.3568016,8.1409492 C 9.0183702,8.097876 8.7496769,7.8722549 8.5445662,7.4538311 C 8.3045889,6.969772 8.269719,6.4980192 8.4727787,6.4980192 C 8.548669,6.4980192 8.6409685,6.5923701 8.7968521,6.8241439 C 8.9322238,7.0292539 9.2316842,7.6076631 9.2316842,7.6671454 C 9.2316842,7.7594446 9.461408,7.702014 9.660364,7.5584369 L 9.7547144,7.4886996 L 10.164934,7.6486855 C 10.390555,7.7348315 10.593614,7.8127731 10.616176,7.8209776 C 10.648993,7.831233 10.626431,7.8476418 10.507468,7.9030213 C 10.384402,7.9604525 10.349533,7.9686566 10.304409,7.9522476 C 10.216211,7.9194301 10.136219,7.9522476 10.02751,8.063007 C 9.9721301,8.1204382 9.9167511,8.1840216 9.9064961,8.2024816 C 9.8818831,8.2496568 9.8670731,8.3334134 9.9085471,8.4145352 C 9.9713211,8.344253 9.9542351,8.371707 9.9829511,8.3306849 C 10.044484,8.2424883 10.08084,8.2394017 10.123912,8.2517078 C 10.283898,8.2968328 10.359789,8.278372 10.421321,8.1717154 C 10.454139,8.1163361 10.503365,8.0855691 10.66335,8.0158318 C 10.772059,7.9666055 10.891023,7.9255834 10.92384,7.9276344 C 10.964862,7.9276344 11.05511,7.9727594 11.192534,8.063007 C 11.364826,8.1758175 11.4079,8.2127376 11.444819,8.290679 C 11.498147,8.3973364 11.582243,8.4465626 11.717615,8.4465626 C 11.797608,8.4465626 11.811966,8.4547667 11.846834,8.5121979 C 11.869396,8.5491172 11.898112,8.6065475 11.910418,8.6414166 C 11.925802,8.6824387 11.945456,8.7166767 11.956938,8.7494282 C 11.972633,8.7105229 11.980156,8.6701317 11.996565,8.6209055 C 12.019126,8.55322 12.019126,8.524504 11.990411,8.4424606 C 11.974002,8.3891323 11.959645,8.3275991 11.959645,8.3029859 C 11.959645,8.2311968 11.902214,8.1409492 11.832477,8.1060802 C 11.791455,8.0835181 11.711461,8.0712119 11.621213,8.0691609 C 11.487892,8.0671099 11.46328,8.058905 11.327906,7.9768614 C 11.247913,7.9276344 11.180227,7.8825103 11.180227,7.874306 C 11.180227,7.8496929 11.824272,7.8804593 11.871448,7.9071235 C 11.896061,7.9214811 11.961696,7.9337878 12.019126,7.9337878 C 12.105273,7.9337878 12.133988,7.9235324 12.195521,7.8681527 L 12.271412,7.8045687 L 12.417039,7.8250796 C 12.499084,7.8353352 12.511918,7.8351096 12.570872,7.8394375 C 12.543362,7.7299028 12.367814,7.6220213 12.281667,7.6281746 C 12.244748,7.6322768 12.179112,7.6179191 12.13604,7.5974077 C 12.039638,7.5522836 11.959645,7.5645902 11.861193,7.6384301 C 11.80171,7.6856053 11.762739,7.6958607 11.571987,7.7102184 C 11.453023,7.7184228 11.309447,7.7266272 11.254068,7.7266272 C 11.12895,7.7286782 11.141257,7.7122695 11.354571,7.5768968 C 11.477636,7.498955 11.522761,7.4804953 11.569935,7.4886996 C 11.660185,7.5071595 11.754535,7.4702398 11.840681,7.3799916 C 11.922725,7.2958966 11.941184,7.2897434 12.119631,7.2979478 C 12.191419,7.2999989 12.182594,7.3001116 12.224744,7.3052859 C 12.195239,7.2079812 12.145718,7.1571267 12.07393,7.1239565 C 12.010185,7.0999205 11.944165,7.1200468 11.882632,7.1364556 C 11.802639,7.1569665 11.752484,7.1441151 11.715564,7.1297574 C 11.606856,7.0887356 11.385338,7.2076991 11.385338,7.3082032 C 11.385338,7.3492251 11.245863,7.4640865 11.05511,7.5809988 L 10.880767,7.6856053 L 10.62438,7.5871522 C 10.320818,7.4702398 9.9700791,7.3184587 9.9700791,7.30205 C 9.9700791,7.2979478 10.011102,7.2425676 10.06238,7.1830859 C 10.113657,7.1256552 10.154679,7.0723268 10.154679,7.0661735 C 10.154679,7.0600202 10.082891,7.0169473 9.9967431,6.9677209 C 9.5434514,6.7215891 9.3014215,6.4857126 9.1352827,6.1370259 C 9.0081151,5.8683319 9.0450351,5.7268064 9.1763049,5.9790916 C 9.2686042,6.1554858 9.3957727,6.2929096 9.5372983,6.3626469 C 9.656262,6.4241797 9.7075391,6.428282 9.7526633,6.3831578 C 9.8059921,6.3298294 9.7916341,6.2559899 9.7054881,6.1534347 C 9.5926776,6.0180624 9.5372983,5.8949962 9.5249914,5.7555217 C 9.5126852,5.6242516 9.5352473,5.5750253 9.6111378,5.5750253 C 9.6706199,5.5750253 9.7075391,5.6222006 9.7649703,5.7698794 C 9.8429121,5.9708872 10.00905,6.2949607 10.107504,6.432384 C 10.279796,6.6744138 10.450037,6.7421 10.607971,6.635443 C 10.741293,6.5472454 10.716679,6.4487929 10.527979,6.3236761 C 10.32492,6.1883032 10.193649,5.9913982 10.125964,5.7144999 C 10.091095,5.5750253 10.097248,5.4909299 10.142372,5.4540102 C 10.183394,5.4191416 10.242875,5.4765723 10.370044,5.6673247 C 10.491059,5.8498721 10.710526,6.1226682 10.962811,6.4016177 C 11.336111,6.8179904 11.816068,6.9554144 12.138091,6.7379978 C 12.386273,6.5698075 12.341149,6.3811068 12.056047,6.3954644 C 11.697104,6.4139243 11.647877,6.4098221 11.498147,6.3359827 C 11.198688,6.1883032 10.850001,5.7432151 10.677709,5.2837693 C 10.648993,5.2037761 10.646942,5.179163 10.667454,5.1545498 C 10.690015,5.1278856 10.728987,5.1607031 10.942301,5.3760686 C 11.329957,5.7719305 11.604806,5.9298654 11.908368,5.9319164 C 12.047842,5.9339675 12.088864,5.9257631 12.187316,5.8785874 C 12.32269,5.8109013 12.363711,5.7698794 12.40063,5.6652735 C 12.458062,5.4991343 12.345251,5.4334993 12.078608,5.4745211 C 11.658134,5.5401562 11.403797,5.4252949 11.063315,5.0150754 C 10.878716,4.7935566 10.667454,4.4797385 10.667454,4.424359 C 10.667454,4.3320597 10.767957,4.3689794 10.946402,4.5310159 C 11.087928,4.6602355 11.3156,4.8263741 11.491995,4.9330316 C 11.72787,5.0745572 12.015024,5.0991703 12.222185,4.9966155 C 12.351404,4.9330316 12.410887,4.8407317 12.410887,4.7012573 C 12.410887,4.6089581 12.402682,4.586396 12.357558,4.5515274 C 12.289871,4.4981984 12.218084,4.4981984 12.021178,4.5494763 C 11.637622,4.6499799 11.414053,4.5699872 11.046906,4.2048918 C 10.854103,4.0141394 10.780263,3.9033803 10.802826,3.843898 C 10.808978,3.8254381 10.833592,3.8110805 10.856154,3.8110805 C 10.880767,3.8110805 11.065367,3.8931248 11.270476,3.9936285 C 11.6889,4.1987386 11.754535,4.2213006 11.930929,4.2213006 C 12.138091,4.2213006 12.308331,4.1392562 12.386273,3.9977306 C 12.531901,3.7392922 12.302178,3.5936645 11.998616,3.7515987 C 11.91452,3.7967229 11.836579,3.819285 11.748382,3.8254381 C 11.395593,3.8521025 10.911534,3.6059711 10.790518,3.3352259 C 10.761803,3.2695909 10.757702,3.2408756 10.776162,3.2203647 C 10.806927,3.1834449 10.927942,3.2019048 11.05306,3.2654888 C 11.440717,3.4603428 11.91452,3.4459851 12.255003,3.2285691 C 12.462163,3.0972984 12.513441,2.9865393 12.431398,2.851167 C 12.369864,2.7506628 12.28782,2.7609184 12.010922,2.8983421 C 11.569935,3.1198605 11.301242,3.1198605 10.993577,2.8962911 C 10.86641,2.8039913 10.722833,2.6173417 10.733088,2.5558087 C 10.743344,2.4860713 10.806927,2.4860713 10.989475,2.559911 C 11.219199,2.6522103 11.368928,2.6829767 11.592498,2.6829767 C 11.836579,2.6829767 12.00682,2.6358016 12.185265,2.5147868 C 12.435499,2.3486478 12.550361,2.0635453 12.421142,1.9343259 C 12.330894,1.8420266 12.257054,1.8686908 12.072455,2.057392 C 11.879653,2.2563483 11.666337,2.3342902 11.325855,2.3342902 C 11.100234,2.3342902 10.911534,2.2994214 10.858205,2.2481439 C 10.761803,2.1578956 10.82949,1.9979101 10.971016,1.9753481 C 11.697104,1.8563842 12.421142,1.4441136 12.515492,1.0974778 C 12.572923,0.8841637 12.414989,0.66469629 12.240645,0.71597357 C 12.158601,0.73853562 12.133988,0.76314903 12.060148,0.89236802 C 11.91452,1.1446532 11.623265,1.3866827 11.282782,1.5364129 C 11.071519,1.6307635 10.806927,1.7087052 10.765906,1.6922965 C 10.747447,1.6861431 10.728987,1.6492234 10.720782,1.6102526 C 10.714628,1.5712817 10.690015,1.5241062 10.669504,1.5056466 C 10.632583,1.4728287 10.626431,1.4728287 10.560796,1.5056466 C 10.523876,1.5261575 10.312613,1.6082014 10.093146,1.6922965 C 9.8736781,1.7743403 9.6706199,1.8584354 9.6419039,1.8789463 C 9.6131888,1.9015083 9.5639625,1.956888 9.5290934,2.0040631 C 9.4696121,2.0881583 9.467561,2.1004649 9.4573051,2.373261 C 9.449101,2.5947796 9.4388458,2.6665679 9.4101299,2.709641 C 9.3568016,2.7937359 9.2829615,2.830656 9.1742539,2.8327071 C 9.0409323,2.8347583 8.9465819,2.7793782 8.8870997,2.6624658 C 8.8194142,2.5311955 8.8317203,2.3076258 8.9219687,2.0779029 C 9.0286261,1.8030557 9.1906628,1.6307635 9.467561,1.4953908 C 9.6234439,1.4174494 9.7054881,1.3969382 9.9536711,1.3723252 C 10.08084,1.3600185 10.251368,1.3694087 10.387766,1.146513 C 10.190349,1.215705 9.9468791,1.2731672 9.9762671,1.1394297 C 9.9995671,1.0870625 10.458241,1.0766145 10.556694,1.0643079 C 10.731038,1.043797 10.792058,1.0143125 10.925346,0.90355318 C 11.00739,0.81330465 11.032548,0.77340449 10.987424,0.73443357 C 10.932044,0.69136062 10.86641,0.72212687 10.782314,0.83083529 C 10.677709,0.96210548 10.619349,0.96697708 10.395779,0.99774348 C 10.202976,1.0264589 10.134168,1.0338939 10.134168,0.96005428 C 10.134168,0.91698132 10.173138,0.89031711 10.26954,0.8698062 C 10.32492,0.85749949 10.389754,0.836028 10.523876,0.91287916 C 10.521825,0.74058687 10.417219,0.6708497 10.140321,0.65649175 C 9.9844371,0.64828754 9.9352111,0.63803175 9.9044451,0.60726549 C 9.7834301,0.48625071 9.5290934,0.50676162 9.1722028,0.66264516 C 8.9855529,0.74468903 8.8153113,0.75699562 8.6102014,0.70366721 C 8.4727787,0.66879845 8.4317565,0.66469629 8.4317565,0.69341175 C 8.4317565,0.73648482 8.5568731,0.8513462 8.6553264,0.89852132 C 8.7127568,0.92723677 8.757881,0.96005428 8.759932,0.97441208 C 8.759932,1.013383 8.6143036,1.1220911 8.5035448,1.1631129 C 8.4481647,1.1836242 8.4009903,1.2143904 8.4009903,1.2287483 C 8.4009903,1.2431059 8.4399606,1.2738726 8.4891869,1.2964344 C 8.5363621,1.3210476 8.5753332,1.3497631 8.5753332,1.3641206 C 8.5753332,1.4071936 8.4071434,1.5343617 8.331253,1.5466684 C 8.1958797,1.5692304 8.1897266,1.5733326 8.2533108,1.6287121 C 8.284077,1.6553767 8.329202,1.6779385 8.3517633,1.6779385 C 8.4091945,1.6779385 8.4009903,1.7087052 8.316895,1.7928002 C 8.2492088,1.8584354 8.2327997,1.8645888 8.1651134,1.8543333 C 8.1240914,1.84818 8.08307,1.84818 8.0769161,1.8543333 C 8.070763,1.8604863 8.081019,1.8994572 8.0994782,1.9384281 C 8.1322963,2.0061143 8.1322963,2.0122678 8.0933251,2.0389318 C 8.0440989,2.0758515 7.9579525,2.0758515 7.9066752,2.036881 C 7.8697552,2.0102165 7.8697552,2.0061143 7.9046242,1.9445814 C 7.9476966,1.8645888 7.9333394,1.8358733 7.8574491,1.8522821 C 7.7897627,1.8666397 7.7282298,1.8399753 7.6605436,1.7620336 C 7.5990102,1.6943473 7.5990102,1.6861431 7.668748,1.6717852 C 7.7938648,1.645121 7.8369379,1.5548729 7.7220765,1.5548729 C 7.6297772,1.5548729 7.4246672,1.4215516 7.4267182,1.3620697 C 7.4287693,1.3497631 7.4677402,1.3210476 7.5149153,1.2984855 C 7.6215728,1.247208 7.6236239,1.2082371 7.5251708,1.1733687 C 7.4287693,1.1405511 7.2708345,1.0338939 7.2564769,0.99082098 C 7.2462214,0.97030978 7.2687833,0.94774768 7.3262146,0.91903257 C 7.4308204,0.86570381 7.5702949,0.73853562 7.5702949,0.69956482 C 7.5702949,0.6667472 7.5395285,0.66879845 7.3754409,0.71187141 C 7.3303168,0.72417812 7.2277615,0.73443357 7.1457177,0.73443357 C 7.0267542,0.73443357 6.9754768,0.72212687 6.860615,0.6708497 C 6.5816656,0.54778367 6.2904101,0.49650617 6.1858037,0.55393708 z M 6.5094457,0.94089762 C 6.5627742,0.97576618 6.6933279,0.79555492 6.6165347,1.0010765 C 6.5734611,1.0359452 6.3478407,1.0195361 6.3068188,0.97646298 C 6.2657969,0.93544132 6.2986144,0.8636529 6.3642494,0.8513462 C 6.5921074,0.78640807 6.4561171,0.90602887 6.5094457,0.94089762 z M 9.699335,0.88621495 C 9.7670214,0.95390098 9.6706199,1.0215872 9.5106342,1.0215872 C 9.3998748,1.0215872 9.3342395,0.97851428 9.3670575,0.92518552 C 9.4759714,0.73242228 9.3840285,0.99989658 9.4736475,0.92542243 C 9.5523035,0.8600585 9.5811909,0.77650111 9.699335,0.88621495 z "
       id="path10"
       sodipodi:nodetypes="ccccccccccccccsccccccccccccccccccccccccccccccccccccccccccccccccccccccccccccccccccccccccccccccccccccccccccccccccccccccccccccccccccccccccccccccccccccccccccccccccccccccccccccccccccccccccccccccccccccccccccccccccccccccccccccccccccccccccccccccccccccccccccccccccccccccccccccccccccccccccccccccccccccccccccccccccccccccccccccccccccccccccccccccccccccccccccccccccccccccccccccccccccccccccccccccccsc" />
    <rect
       style="opacity:1;fill:url(#linearGradient6340);fill-opacity:1;stroke:none;stroke-width:0.5;stroke-linecap:round;stroke-linejoin:miter;stroke-miterlimit:4;stroke-dasharray:none;stroke-opacity:0.50196078"
       id="rect5439"
       width="16"
       height="11"
       x="0"
       y="0" />
    <rect
       style="opacity:1;fill:none;fill-opacity:1;stroke:white;stroke-width:0.75;stroke-linecap:round;stroke-linejoin:miter;stroke-miterlimit:4;stroke-dasharray:none;stroke-opacity:0.50196078"
       id="rect4552"
       width="13.978705"
       height="8.9787054"
       x="1.0106473"
       y="1.0106477" />
  </g>
</svg>
