<?xml version="1.0" encoding="UTF-8" standalone="no"?>
<!-- Created with Inkscape (http://www.inkscape.org/) -->
<svg
   xmlns:dc="http://purl.org/dc/elements/1.1/"
   xmlns:cc="http://web.resource.org/cc/"
   xmlns:rdf="http://www.w3.org/1999/02/22-rdf-syntax-ns#"
   xmlns:svg="http://www.w3.org/2000/svg"
   xmlns="http://www.w3.org/2000/svg"
   xmlns:xlink="http://www.w3.org/1999/xlink"
   xmlns:sodipodi="http://sodipodi.sourceforge.net/DTD/sodipodi-0.dtd"
   xmlns:inkscape="http://www.inkscape.org/namespaces/inkscape"
   width="16"
   height="11"
   id="svg2"
   sodipodi:version="0.32"
   inkscape:version="0.44.1"
   version="1.0"
   sodipodi:docbase="/home/cbrill/public_html/bbclone/images/ext2"
   sodipodi:docname="bb.svg"
   inkscape:export-filename="/home/cbrill/public_html/bbclone/images/ext2/bb.png"
   inkscape:export-xdpi="90"
   inkscape:export-ydpi="90">
  <defs
     id="defs4">
    <linearGradient
       id="linearGradient6334">
      <stop
         style="stop-color:white;stop-opacity:0.50196081;"
         offset="0"
         id="stop6336" />
      <stop
         style="stop-color:white;stop-opacity:0;"
         offset="1"
         id="stop6338" />
    </linearGradient>
    <linearGradient
       inkscape:collect="always"
       xlink:href="#linearGradient6334"
       id="linearGradient6340"
       x1="-4.984375"
       y1="10.341146"
       x2="8.8515635"
       y2="1.1458334"
       gradientUnits="userSpaceOnUse"
       gradientTransform="matrix(1.156409,0,0,1.196262,5.763972,-1.370717)" />
  </defs>
  <sodipodi:namedview
     id="base"
     pagecolor="#ffffff"
     bordercolor="#666666"
     borderopacity="1.0"
     inkscape:pageopacity="0.0"
     inkscape:pageshadow="2"
     inkscape:zoom="24.684455"
     inkscape:cx="9.5519516"
     inkscape:cy="0.75093187"
     inkscape:document-units="px"
     inkscape:current-layer="layer1"
     width="16px"
     height="11px"
     inkscape:window-width="1390"
     inkscape:window-height="975"
     inkscape:window-x="0"
     inkscape:window-y="25" />
  <metadata
     id="metadata7">
    <rdf:RDF>
      <cc:Work
         rdf:about="">
        <dc:format>image/svg+xml</dc:format>
        <dc:type
           rdf:resource="http://purl.org/dc/dcmitype/StillImage" />
        <dc:title>Barbados</dc:title>
        <dc:date>2006-12-29</dc:date>
        <dc:creator>
          <cc:Agent>
            <dc:title>Christoph Brill</dc:title>
          </cc:Agent>
        </dc:creator>
        <cc:license
           rdf:resource="http://creativecommons.org/licenses/by-nc-sa/2.5/" />
      </cc:Work>
      <cc:License
         rdf:about="http://creativecommons.org/licenses/by-nc-sa/2.5/">
        <cc:permits
           rdf:resource="http://web.resource.org/cc/Reproduction" />
        <cc:permits
           rdf:resource="http://web.resource.org/cc/Distribution" />
        <cc:requires
           rdf:resource="http://web.resource.org/cc/Notice" />
        <cc:requires
           rdf:resource="http://web.resource.org/cc/Attribution" />
        <cc:prohibits
           rdf:resource="http://web.resource.org/cc/CommercialUse" />
        <cc:permits
           rdf:resource="http://web.resource.org/cc/DerivativeWorks" />
        <cc:requires
           rdf:resource="http://web.resource.org/cc/ShareAlike" />
      </cc:License>
    </rdf:RDF>
  </metadata>
  <g
     inkscape:label="Ebene 1"
     inkscape:groupmode="layer"
     id="layer1">
    <rect
       style="opacity:1;fill:#000475;fill-opacity:1;stroke:none;stroke-width:2;stroke-linecap:round;stroke-linejoin:round;stroke-miterlimit:4;stroke-dasharray:none;stroke-opacity:0.55"
       id="rect1872"
       width="5.3330002"
       height="11"
       x="10.666"
       y="-3.5527137e-15" />
    <rect
       y="3.5762787e-07"
       x="5.3330002"
       height="11"
       width="5.3330002"
       id="rect2760"
       style="opacity:1;fill:#ffd700;fill-opacity:1;stroke:none;stroke-width:2;stroke-linecap:round;stroke-linejoin:round;stroke-miterlimit:4;stroke-dasharray:none;stroke-opacity:0.55" />
    <rect
       style="opacity:1;fill:#000475;fill-opacity:1;stroke:none;stroke-width:2;stroke-linecap:round;stroke-linejoin:round;stroke-miterlimit:4;stroke-dasharray:none;stroke-opacity:0.55"
       id="rect3647"
       width="5.3330002"
       height="11"
       x="0"
       y="-3.5527137e-15" />
    <path
       style="fill:black;fill-opacity:1;fill-rule:evenodd;stroke:none;stroke-width:1pt;stroke-linecap:butt;stroke-linejoin:miter;stroke-opacity:1"
       d="M 7.9957092,3.0757878 C 7.9957092,3.0762901 7.9957092,3.0969883 7.9957092,3.0976783 C 7.8355867,3.5345107 7.6698428,3.9867136 7.3208582,4.3348021 C 7.4309557,4.2984099 7.6240906,4.2658692 7.7474069,4.2691309 L 7.7474069,6.1335723 L 7.2214108,6.2117526 C 7.2023285,6.2098162 7.1958277,6.1806978 7.1957685,6.1404525 C 7.1453334,5.56179 7.0079339,5.0747371 6.8505233,4.5718447 C 6.8393891,4.5028327 6.64003,4.2399829 6.7936074,4.2860175 C 6.8121068,4.288398 7.0189644,4.3730902 6.9862434,4.332926 C 6.705798,4.0429188 6.2959062,3.8334322 5.8979784,3.7712791 C 5.8628172,3.7622616 5.8425197,3.7799193 5.8742082,3.8206891 C 6.401469,4.6333981 6.8429161,5.5920436 6.8392656,6.7296183 C 7.0447055,6.7296183 7.541967,6.6089082 7.7474069,6.6089082 C 7.7511414,6.9264107 7.7436774,7.6067093 7.7474069,7.9242122 L 7.9957092,7.9242122 L 8.0038401,7.9242122 L 8.2527647,7.9242122 C 8.2564947,7.6067093 8.2490301,6.9264107 8.2527647,6.6089082 C 8.4582049,6.6089082 8.9548387,6.7296183 9.1602791,6.7296183 C 9.1566284,5.5920436 9.5987027,4.6333981 10.125963,3.8206891 C 10.157652,3.7799193 10.136732,3.7622616 10.101571,3.7712791 C 9.703638,3.8334322 9.2943734,4.0429188 9.0139286,4.332926 C 8.9812073,4.3730902 9.1874379,4.288398 9.2059371,4.2860175 C 9.3595144,4.2399829 9.1601553,4.5028327 9.1490213,4.5718447 C 8.9916103,5.0747371 8.8542108,5.56179 8.803781,6.1404525 C 8.8037166,6.1806978 8.7978435,6.2098162 8.7787609,6.2117526 L 8.2527647,6.1335723 L 8.2527647,4.2691309 C 8.3760814,4.2658692 8.5685934,4.2984099 8.6786911,4.3348021 C 8.3297066,3.9867136 8.1639629,3.5345107 8.0038401,3.0976783 C 8.0038401,3.0969883 8.0038401,3.0762901 8.0038401,3.0757878 C 8.0024816,3.0794853 8.0014443,3.0833461 8.0000858,3.087046 C 7.9987027,3.0832789 7.9970874,3.0795524 7.9957092,3.0757878 z "
       id="path806" />
    <rect
       style="opacity:1;fill:url(#linearGradient6340);fill-opacity:1;stroke:none;stroke-width:0.5;stroke-linecap:round;stroke-linejoin:miter;stroke-miterlimit:4;stroke-dasharray:none;stroke-opacity:0.50196078"
       id="rect5439"
       width="16"
       height="11"
       x="0"
       y="0" />
    <rect
       style="opacity:1;fill:none;fill-opacity:1;stroke:white;stroke-width:0.75;stroke-linecap:round;stroke-linejoin:miter;stroke-miterlimit:4;stroke-dasharray:none;stroke-opacity:0.50196078"
       id="rect4552"
       width="13.978705"
       height="8.9787054"
       x="1.0106473"
       y="1.0106477" />
    <use
       height="496.06299"
       width="744.09448"
       transform="matrix(-1,0,0,1,783.2611,-6.75767)"
       id="use8450"
       xlink:href="#path806"
       y="0"
       x="0" />
  </g>
</svg>
