<?xml version="1.0" encoding="UTF-8" standalone="no"?>
<!-- Created with Inkscape (http://www.inkscape.org/) -->
<svg
   xmlns:dc="http://purl.org/dc/elements/1.1/"
   xmlns:cc="http://web.resource.org/cc/"
   xmlns:rdf="http://www.w3.org/1999/02/22-rdf-syntax-ns#"
   xmlns:svg="http://www.w3.org/2000/svg"
   xmlns="http://www.w3.org/2000/svg"
   xmlns:xlink="http://www.w3.org/1999/xlink"
   xmlns:sodipodi="http://sodipodi.sourceforge.net/DTD/sodipodi-0.dtd"
   xmlns:inkscape="http://www.inkscape.org/namespaces/inkscape"
   width="16"
   height="11"
   id="svg2"
   sodipodi:version="0.32"
   inkscape:version="0.44.1"
   version="1.0"
   sodipodi:docbase="/home/cbrill/public_html/bbclone/images/ext2"
   sodipodi:docname="bm.svg"
   inkscape:export-filename="/home/cbrill/public_html/bbclone/images/ext2/bm.png"
   inkscape:export-xdpi="90"
   inkscape:export-ydpi="90">
  <defs
     id="defs4">
    <linearGradient
       id="linearGradient6334">
      <stop
         style="stop-color:white;stop-opacity:0.50196081;"
         offset="0"
         id="stop6336" />
      <stop
         style="stop-color:white;stop-opacity:0;"
         offset="1"
         id="stop6338" />
    </linearGradient>
    <linearGradient
       inkscape:collect="always"
       xlink:href="#linearGradient6334"
       id="linearGradient6340"
       x1="-4.984375"
       y1="10.341146"
       x2="8.8515635"
       y2="1.1458334"
       gradientUnits="userSpaceOnUse"
       gradientTransform="matrix(1.156409,0,0,1.196262,5.763975,-1.370717)" />
  </defs>
  <sodipodi:namedview
     id="base"
     pagecolor="#ffffff"
     bordercolor="#666666"
     borderopacity="1.0"
     inkscape:pageopacity="0.0"
     inkscape:pageshadow="2"
     inkscape:zoom="24.684455"
     inkscape:cx="15.190581"
     inkscape:cy="0.61061181"
     inkscape:document-units="px"
     inkscape:current-layer="layer1"
     width="16px"
     height="11px"
     inkscape:window-width="1390"
     inkscape:window-height="975"
     inkscape:window-x="0"
     inkscape:window-y="25" />
  <metadata
     id="metadata7">
    <rdf:RDF>
      <cc:Work
         rdf:about="">
        <dc:format>image/svg+xml</dc:format>
        <dc:type
           rdf:resource="http://purl.org/dc/dcmitype/StillImage" />
        <dc:title>Bermuda</dc:title>
        <dc:date>2006-12-28</dc:date>
        <dc:creator>
          <cc:Agent>
            <dc:title>Christoph Brill</dc:title>
          </cc:Agent>
        </dc:creator>
        <cc:license
           rdf:resource="http://creativecommons.org/licenses/by-nc-sa/2.5/" />
      </cc:Work>
      <cc:License
         rdf:about="http://creativecommons.org/licenses/by-nc-sa/2.5/">
        <cc:permits
           rdf:resource="http://web.resource.org/cc/Reproduction" />
        <cc:permits
           rdf:resource="http://web.resource.org/cc/Distribution" />
        <cc:requires
           rdf:resource="http://web.resource.org/cc/Notice" />
        <cc:requires
           rdf:resource="http://web.resource.org/cc/Attribution" />
        <cc:prohibits
           rdf:resource="http://web.resource.org/cc/CommercialUse" />
        <cc:permits
           rdf:resource="http://web.resource.org/cc/DerivativeWorks" />
        <cc:requires
           rdf:resource="http://web.resource.org/cc/ShareAlike" />
      </cc:License>
    </rdf:RDF>
  </metadata>
  <g
     inkscape:label="Ebene 1"
     inkscape:groupmode="layer"
     id="layer1">
    <rect
       style="opacity:1;fill:#003475;fill-opacity:1;stroke:none;stroke-width:2;stroke-linecap:round;stroke-linejoin:round;stroke-miterlimit:4;stroke-dasharray:none;stroke-opacity:0.55"
       id="rect3647"
       width="8.094142"
       height="5.564723"
       x="-0.054102201"
       y="-0.026601695" />
    <rect
       style="opacity:1;fill:#e90000;fill-opacity:1;stroke:white;stroke-width:0.15224352;stroke-linecap:round;stroke-linejoin:miter;stroke-miterlimit:4;stroke-dasharray:none;stroke-opacity:1"
       id="rect4540"
       width="14.567157"
       height="0.3654978"
       x="-5.4812641"
       y="4.3251038"
       transform="matrix(0.835713,-0.549167,0.549167,0.835713,0,0)" />
    <rect
       transform="matrix(0.829302,0.5588,-0.5588,0.829302,0,0)"
       y="-0.10438138"
       x="-2.4294057"
       height="0.36549643"
       width="14.567099"
       id="rect4542"
       style="opacity:1;fill:#e90000;fill-opacity:1;stroke:white;stroke-width:0.15224294;stroke-linecap:round;stroke-linejoin:miter;stroke-miterlimit:4;stroke-dasharray:none;stroke-opacity:1" />
    <rect
       style="opacity:1;fill:#e90000;fill-opacity:1;stroke:white;stroke-width:0.13867587;stroke-linecap:round;stroke-linejoin:miter;stroke-miterlimit:4;stroke-dasharray:none;stroke-opacity:1"
       id="rect3651"
       width="8.9672337"
       height="0.87309188"
       x="-0.490648"
       y="2.3192139" />
    <rect
       y="-0.47298619"
       x="3.5465851"
       height="6.4574924"
       width="0.89276886"
       id="rect3653"
       style="opacity:1;fill:#e90000;fill-opacity:1;stroke:white;stroke-width:0.12647098;stroke-linecap:round;stroke-linejoin:miter;stroke-miterlimit:4;stroke-dasharray:none;stroke-opacity:1" />
    <path
       style="fill:#c02a2a;fill-opacity:1;stroke:none;stroke-width:2;stroke-linecap:round;stroke-linejoin:round;stroke-miterlimit:4;stroke-opacity:0.55"
       d="M 8,5.5 L 8,0 L 16,0 L 16,11 L 0,11 L 0,5.5 L 8,5.5 z "
       id="rect1880"
       sodipodi:nodetypes="ccccccc" />
    <g
       id="g3742"
       transform="matrix(1.718053e-2,0,0,1.718053e-2,-0.732232,1.096)">
      <path
         d="M 751.36134,407.05373 C 754.28101,407.45577 862.48795,379.2904 862.28693,335.34948 L 862.28693,120.23551 L 640.43525,120.23551 L 640.43525,335.34948 C 640.23423,379.2904 751.36134,407.05373 751.36134,407.05373 z "
         id="path1797"
         sodipodi:nodetypes="cccccc"
         style="font-size:12px;fill:white;fill-opacity:1;fill-rule:evenodd;stroke:none;stroke-width:11.125;stroke-opacity:1" />
      <path
         id="path1760"
         d="M 862.28693,335.34949 C 859.7656,356.79467 840.99866,371.39458 822.82677,380.21206 C 801.99478,390.72061 780.54356,401.28069 757.28523,404.93546 C 745.12625,406.522 732.85456,403.52125 722.09505,397.90797 C 696.05018,387.80646 667.62428,378.43006 649.31806,356.02302 C 639.74798,346.5997 639.24586,331.44417 643.65541,319.49308 C 646.98974,313.34034 656.55594,305.05949 660.44648,315.90075 C 662.76798,318.60361 661.06574,327.66287 662.32776,320.05238 C 665.57295,313.42053 670.39281,322.50911 672.92863,316.41808 C 680.04082,317.00975 686.13972,321.95849 693.51128,318.40978 C 714.39617,315.50302 735.58599,318.04683 756.50815,315.60941 C 780.82212,315.06145 805.38703,314.54504 829.3833,319.16677 C 834.17203,312.98791 838.14754,325.05399 843.58212,321.41827 C 841.35911,325.54221 841.30151,331.38365 845.60431,325.11438 C 851.29199,317.4017 856.24779,333.26111 855.34969,331.06083 C 855.20018,326.6682 859.07692,318.00455 860.45295,327.28732 C 861.16318,329.95158 861.65686,332.6664 862.28693,335.34949 z "
         style="font-size:12px;fill:#007a0f;fill-opacity:0.996081;fill-rule:evenodd;stroke:#002b00;stroke-width:1.65866554;stroke-opacity:1" />
      <path
         id="path876"
         d="M 681.76605,206.00841 C 675.19147,207.74069 665.19898,196.23716 673.93302,192.9979 C 679.41229,192.2477 679.9001,184.40836 686.49877,187.61666 C 691.05032,189.6103 699.71153,189.37699 698.74039,196.49986 C 697.25128,199.56755 695.55773,200.11668 700.21856,200.34582 C 707.73079,203.08557 715.20989,199.9903 716.96342,192.0861 C 718.86807,188.62084 729.09738,182.16873 719.90817,184.61907 C 717.89951,180.90265 725.34776,175.95255 722.22565,170.68513 C 719.34928,161.84943 730.36517,159.63308 732.92796,152.78373 C 735.91122,146.51813 729.85774,140.35658 731.82662,134.13585 C 734.33253,133.80404 741.33133,137.69215 743.3206,132.5239 C 744.19833,136.4667 748.67447,129.46177 750.92372,134.30243 C 753.64594,134.78074 752.80825,130.31855 755.95944,133.0992 C 758.61985,133.11174 757.76704,129.53472 759.29732,133.21215 C 764.0113,130.08472 768.95847,133.97121 772.46683,137.37136 C 775.83554,131.17664 782.40315,137.02193 779.49349,142.53127 C 777.12163,149.72435 776.87497,159.02078 783.85408,163.76544 C 791.68862,169.03719 789.38203,177.58168 787.23473,184.96817 C 790.82873,189.95825 795.36063,194.67325 796.42462,201.43643 C 800.39016,205.68227 814.65761,206.63717 813.79718,197.48027 C 816.08941,190.16866 827.75911,190.70071 832.96816,192.0957 C 836.1316,197.1221 841.69601,202.94607 835.14817,208.12696 C 830.78982,212.99663 825.91228,218.6908 820.50586,221.85993 C 776.33285,221.51022 732.15983,221.16052 687.98682,220.81081 C 685.91324,215.87667 683.83964,210.94254 681.76605,206.00841 z "
         style="font-size:12px;fill:#d40f0f;fill-opacity:0.996081;fill-rule:evenodd;stroke:#2b2b2b;stroke-width:1.23545675pt;stroke-opacity:1" />
      <path
         id="path918"
         d="M 693.97552,255.50432 C 689.88965,254.76611 685.85448,256.05588 681.89576,256.00441 C 677.40545,254.94535 672.19987,252.45961 667.8586,255.25698 C 665.40059,257.82796 662.73729,260.34476 660.66417,263.2689 C 658.43115,268.00353 662.20484,273.11909 660.66988,278.01374 C 659.18718,282.80598 656.41838,287.86369 658.97107,292.84704 C 660.12264,296.97477 662.16296,300.87499 662.09458,305.2623 C 661.83605,307.23114 664.18488,314.96624 666.03796,310.90406 C 665.84505,309.02054 666.71009,302.32334 668.13853,307.23447 C 668.48909,310.88019 671.66356,311.81675 671.40933,307.59138 C 671.38766,304.40468 672.76405,304.58719 673.57895,307.23368 C 674.37543,310.9993 679.34031,311.61469 677.82881,306.82895 C 676.94254,301.84271 680.14223,313.53612 682.92913,308.17259 C 684.23028,304.82989 684.0284,300.49682 687.89416,298.77817 C 694.37809,293.80958 700.55097,287.43883 701.99891,279.07289 C 702.97958,275.01772 704.92497,270.78648 703.0424,266.64932 C 701.4139,263.64076 700.48409,260.28577 698.72198,257.35699 C 697.73798,255.61391 695.34928,256.66191 693.97552,255.50432 z "
         style="font-size:12px;fill:#d40f0f;fill-opacity:0.996081;fill-rule:evenodd;stroke:#2b2b2b;stroke-width:1.22628288pt;stroke-opacity:1" />
      <path
         id="path929"
         d="M 817.3786,255.64029 C 821.92602,255.74176 826.54584,257.11152 831.03223,255.74554 C 836.92572,255.10847 843.12751,256.85228 847.79564,260.46558 C 849.78181,263.4058 847.32051,266.83074 848.14603,269.99793 C 848.48156,273.22714 850.01385,276.80091 848.10915,279.8293 C 848.57545,282.77395 852.05845,284.55048 851.09971,287.90867 C 851.34586,292.1549 849.39259,296.06727 848.16722,300.03004 C 846.79535,303.32863 845.8837,306.7776 844.86237,310.1892 C 844.84602,312.35447 841.46345,313.08069 842.47593,310.39928 C 843.03554,309.0902 842.03361,305.88055 840.85381,308.43886 C 840.59867,310.67617 836.94437,314.08799 836.30666,310.24384 C 836.41691,309.14017 835.92557,304.09684 835.39509,307.51231 C 835.67146,309.43835 832.80072,313.55002 831.78929,310.25891 C 831.82157,308.91919 832.96197,305.07516 831.08382,305.5193 C 830.99583,307.34923 828.76987,311.51367 827.67171,307.85529 C 826.11253,304.79672 822.24649,304.81216 819.2958,304.35295 C 815.83996,303.87411 812.83473,301.5405 811.64107,298.24905 C 809.55279,293.55521 810.09555,288.25614 808.78866,283.3579 C 807.85085,278.3151 805.9903,273.46149 805.33067,268.37086 C 805.39029,264.08403 808.4592,260.48111 811.68366,257.97282 C 813.36195,256.7631 815.31506,255.89473 817.3786,255.64029 z "
         style="fill:#d30f0f;fill-opacity:0.996081;fill-rule:evenodd;stroke:#2b2b2b;stroke-width:1.22628288pt;stroke-linecap:butt;stroke-linejoin:miter;stroke-opacity:1" />
      <path
         id="path945"
         d="M 688.1546,351.51984 C 687.75167,355.10746 686.17466,362.89834 691.72879,362.71326 C 692.89232,359.29192 697.30212,351.81004 690.97798,351.27116 C 690.03149,351.28356 689.09632,351.44396 688.1546,351.51984 z "
         style="font-size:12px;fill:#000f0f;fill-opacity:0.99607801;fill-rule:evenodd;stroke:black;stroke-width:1.22628288pt" />
      <path
         id="path946"
         d="M 706.41455,350.7966 C 704.4735,353.12673 704.89399,360.07946 708.34149,359.34261 C 709.96778,356.73195 713.35033,351.14721 709.42043,349.29355 C 708.23522,349.04842 706.88194,349.65181 706.41455,350.7966 z "
         style="font-size:12px;fill:#000f0f;fill-opacity:0.99607801;fill-rule:evenodd;stroke:black;stroke-width:1.22628288pt" />
      <path
         id="path947"
         d="M 798.41705,350.43439 C 799.11058,352.90198 797.144,355.74071 798.71128,357.96795 C 799.46187,359.10094 801.61956,361.06099 801.86927,358.58751 C 802.74434,356.25769 805.33743,354.24102 804.31691,351.52349 C 803.78766,349.24746 800.22262,347.85402 798.85007,350.14094 C 798.43178,350.76951 798.17642,351.49981 798.06549,352.24429"
         style="font-size:12px;fill:#000f0f;fill-opacity:0.99607801;fill-rule:evenodd;stroke:black;stroke-width:1.22628288pt" />
      <path
         id="path948"
         d="M 815.62329,352.60529 C 815.53173,354.49068 816.24308,356.31429 816.27309,358.1966 C 816.66551,359.49546 815.31391,362.7663 817.28927,362.57043 C 818.2858,361.19624 818.89275,359.51726 819.85564,358.0663 C 820.70127,355.91852 820.63595,353.55464 820.43635,351.29459 C 819.39577,349.2382 816.90315,351.26673 815.88266,352.38228 L 815.62329,352.60529 L 815.62329,352.60529 z "
         style="font-size:12px;fill:#000f0f;fill-opacity:0.99607801;fill-rule:evenodd;stroke:black;stroke-width:1.22628288pt" />
      <path
         id="path949"
         d="M 831.07428,344.64487 C 827.047,344.74032 827.14818,350.69703 831.08599,350.82351 C 832.03973,351.76573 835.2299,355.48142 834.42545,351.93339 C 834.11169,349.4337 834.09087,345.42034 831.07428,344.64487 z "
         style="font-size:12px;fill:#000f0f;fill-opacity:0.99607801;fill-rule:evenodd;stroke:black;stroke-width:1.22628288pt" />
      <path
         id="path950"
         d="M 833.53143,337.40891 C 829.03692,339.0379 832.56685,344.31877 835.4693,345.59086 C 837.74345,346.53955 835.03879,342.65181 835.35482,341.41331 C 835.0106,339.97579 834.38817,338.61339 833.53143,337.40891 z "
         style="font-size:12px;fill:#000f0f;fill-opacity:0.99607801;fill-rule:evenodd;stroke:black;stroke-width:1.22628288pt" />
      <path
         id="path944"
         d="M 678.67358,344.64487 C 675.33344,346.00361 671.98214,351.42924 674.53216,354.16416 C 677.26845,353.30485 678.97474,350.31271 681.55323,349.36946 C 682.18805,347.33364 679.71275,346.01892 678.67358,344.64487 z "
         style="font-size:12px;fill:#000f0f;fill-opacity:0.99607801;fill-rule:evenodd;stroke:black;stroke-width:1.22628288pt" />
      <path
         id="path943"
         d="M 676.21545,337.77112 C 672.92418,339.10358 669.4623,344.3714 671.52459,347.07228 C 674.25489,346.08059 678.74673,343.3032 677.2581,339.96282 C 676.94364,339.21657 676.53701,338.51408 676.21545,337.77112 z "
         style="font-size:12px;fill:#000f0f;fill-opacity:0.99607801;fill-rule:evenodd;stroke:black;stroke-width:1.22628288pt" />
      <path
         id="path937"
         d="M 703.25427,326.55432 C 699.63106,329.50115 695.18595,331.11457 691.2236,333.51626 C 687.06039,332.51096 682.41524,330.74458 678.31967,332.94888 C 675.58438,334.29143 676.23735,337.6162 676.79623,340.00386 C 677.27747,343.05074 678.16885,346.22896 680.40336,348.47699 C 684.69643,350.13063 688.63178,352.79743 693.1764,353.73371 C 696.57034,353.73265 697.99348,350.12151 699.05762,347.47308 C 699.66361,345.05343 703.94454,342.03218 705.24659,345.36767 C 705.68237,347.65428 702.51753,350.26674 705.95444,351.4822 C 708.61848,352.71094 712.59668,350.18212 711.64749,347.10948 C 710.66863,345.44337 709.66556,341.96294 712.8264,342.22934 C 715.22045,343.03413 717.61985,342.91805 719.84308,341.62848 C 723.21348,340.81269 726.04298,338.64018 728.86234,336.71103 C 731.66825,332.91756 731.31055,326.55579 727.05268,323.95581 C 721.20467,322.2366 715.14742,324.3242 709.20814,323.64455 C 706.96287,323.62007 704.0917,324.12387 703.25427,326.55432 z "
         style="font-size:12px;fill:#d40f0f;fill-opacity:0.996081;fill-rule:evenodd;stroke:#2b2b2b;stroke-width:1.22628288pt;stroke-opacity:1" />
      <path
         id="path938"
         d="M 785.07294,339.5798 C 788.31907,339.32724 789.82629,343.72977 793.13317,343.10037 C 795.05479,343.06174 799.09259,341.21127 798.41036,344.85143 C 797.82966,346.63589 796.34128,348.48821 797.19318,350.41772 C 798.4171,352.07438 800.84291,351.28416 802.63661,351.49926 C 805.12129,351.65326 805.45462,349.02427 804.71427,347.2438 C 804.46265,345.30353 807.0023,342.73186 808.48763,344.90065 C 810.12431,347.38694 809.29842,351.13269 811.93787,353.02985 C 814.82712,354.73863 818.24482,353.08217 820.80961,351.51723 C 822.43125,350.16757 824.53712,350.08584 826.42088,349.31681 C 828.68607,348.50162 830.49016,346.53211 830.84571,344.11707 C 831.69327,341.35755 833.91885,338.67575 833.06653,335.64925 C 832.1299,333.1593 829.04026,332.64398 826.68881,332.61109 C 822.91375,332.65877 819.09849,333.06238 815.34868,332.47072 C 812.98522,332.15905 811.30433,330.38396 809.23859,329.39751 C 806.59394,327.96523 804.22845,326.09538 801.82548,324.3168 C 797.25109,321.577 791.29384,320.29604 786.28497,322.61445 C 783.03495,324.40921 782.6895,328.76809 783.74651,331.96571 C 784.3696,334.46149 785.31972,336.96308 785.07294,339.5798 z "
         style="font-size:12px;fill:#d40f0f;fill-opacity:0.996081;fill-rule:evenodd;stroke:#2b2b2b;stroke-width:1.22628288pt;stroke-opacity:1" />
      <path
         style="font-size:12px;fill:#0068bd;fill-rule:evenodd;stroke-width:1.25"
         sodipodi:nodetypes="ccccccccccccccccccccccccccccccccccccccssscccccccc"
         id="path575"
         d="M 750.11598,216.28277 C 749.93049,220.33201 748.77535,222.7183 744.88716,222.7183 C 742.2729,222.7183 739.60965,220.8197 739.65849,218.42792 C 739.70748,216.03612 742.98874,215.88973 745.24515,216.08625 C 746.04569,214.13752 742.2729,211.9924 731.81556,211.9924 C 721.46181,211.88052 713.41892,220.86462 699.83084,220.57311 C 686.2427,220.2816 680.21202,206.76508 682.79455,203.41166 C 681.78211,206.39759 679.50083,208.25211 678.48839,211.23817 C 677.47594,214.2241 682.11516,218.38358 681.10272,221.36954 C 680.09028,224.35549 673.42619,226.16793 672.41375,229.15389 C 671.40131,232.13984 671.65773,236.25716 670.64529,239.24312 C 670.64529,237.09787 675.27945,232.01113 681.47869,232.01113 C 686.70739,232.01113 703.97535,228.73787 705.00772,264.18893 C 705.00772,292.10085 684.26458,293.20271 677.63224,291.22226 C 677.61601,294.58755 679.93265,305.04739 690.53263,315.75243 C 701.91623,326.47805 715.06516,327.97586 717.64666,327.82692 C 716.43353,324.84099 711.44746,321.39131 716.15817,321.35256 C 719.29039,321.39131 720.28306,326.92848 720.28306,326.92848 C 720.28306,326.92848 725.37936,323.75124 727.0771,325.33502 C 728.7164,327.82692 721.9048,329.97253 721.9048,329.97253 C 721.9048,329.97253 725.36254,336.72539 729.74788,340.69815 C 734.9767,346.36731 742.54855,348.25258 745.43404,348.32887 C 746.83605,348.3664 749.54697,349.27332 749.44943,351.42498 C 749.25538,355.70845 749.26158,357.77778 746.73143,357.86011 L 765.54183,357.86011 C 763.01168,357.77778 763.01788,355.70845 762.82383,351.42498 C 762.72629,349.27332 765.43721,348.3664 766.83923,348.32887 C 769.72471,348.25258 777.29657,346.36731 782.52538,340.69815 C 786.91072,336.72539 790.36846,329.97253 790.36846,329.97253 C 790.36846,329.97253 783.55686,327.82692 785.19616,325.33502 C 786.8939,323.75124 791.9902,326.92848 791.9902,326.92848 C 791.9902,326.92848 792.98287,321.39131 796.11509,321.35256 C 800.82581,321.39131 795.83973,324.84099 794.6266,327.82692 C 797.2081,327.97586 810.35703,326.47805 821.74108,315.75243 C 832.34067,305.04739 834.65744,294.58755 834.64121,291.22226 C 828.00816,293.20271 807.26554,292.10085 807.26554,264.18893 C 808.29791,228.73787 825.56596,232.01113 830.79419,232.01113 C 836.9934,232.01113 841.62841,237.09787 841.62841,239.24312 C 841.62841,239.77796 842.22605,236.19672 841.08685,232.9378 C 839.94765,229.67889 834.25311,227.33096 832.73467,222.71832 C 831.21623,218.10569 833.87387,211.22836 832.73467,207.70203 C 831.59547,204.1757 829.47939,203.41166 829.47939,203.41166 C 832.06177,206.76508 826.03079,220.2816 812.44257,220.57311 C 798.85448,220.86462 790.8116,211.88052 780.45785,211.9924 C 770.00051,211.9924 766.22772,214.13752 767.02826,216.08625 C 769.28467,215.88973 772.56593,216.03612 772.61492,218.42792 C 772.66376,220.8197 770.00051,222.7183 767.38625,222.7183 C 763.49806,222.7183 762.34292,220.33201 762.15743,216.28277 L 750.11598,216.28277 z " />
      <path
         id="path619"
         d="M 705.00769,264.18893 C 709.22089,281.7586 688.89688,291.64476 678.90229,295.45078 C 681.73353,312.50352 698.60468,325.06172 714.9683,327.56645 C 714.07147,318.38194 730.19548,325.80803 724.32819,333.87417 C 731.09229,345.67145 747.66443,348.12274 753.37465,358.58688 C 767.29675,360.70846 765.0465,343.83271 780.4038,342.52418 C 794.73824,338.07256 780.12563,323.24341 795.45438,323.57489 C 794.16796,322.75467 800.83489,331.98696 807.00628,325.36476 C 818.45669,319.52056 836.87374,306.54769 831.41754,292.40292 C 812.91312,294.00593 809.83558,275.13248 805.98579,261.53083 C 788.57929,261.57188 772.13238,261.72604 754.52957,262.35898 C 742.18945,254.62368 744.39449,229.82096 725.92475,228.55598 C 718.87289,228.91494 713.66714,225.12296 711.05102,234.5661 C 697.27868,230.08929 692.76446,235.49701 700.90942,247.61693 C 703.25891,252.80051 705.59914,258.36615 705.00769,264.18893 z "
         style="font-size:12px;fill:#e8e1cb;fill-opacity:1;fill-rule:evenodd;stroke:black;stroke-width:0.16708793;stroke-opacity:1" />
      <path
         id="path745"
         d="M 727.17761,265.65228 C 732.2512,275.1141 737.32479,284.57591 742.39838,294.03772 C 744.37771,290.07297 738.90138,287.02284 738.26637,283.17657 C 734.93986,276.99842 731.69782,270.77425 728.27369,264.64908 C 726.84485,262.90027 726.46454,264.23952 727.17761,265.65228 z "
         style="font-size:12px;fill:#b03f00;fill-opacity:1;fill-rule:evenodd;stroke:black;stroke-width:0.07842225pt;stroke-opacity:1" />
      <path
         id="path743"
         d="M 749.96759,257.42429 C 754.63529,266.12915 759.303,274.83401 763.9707,283.53888 C 766.19591,280.131 760.89477,277.18799 760.41091,273.75044 C 757.29993,267.98374 754.30446,262.15365 751.06005,256.45975 C 749.4586,254.54247 749.39259,255.95114 749.96759,257.42429 z "
         style="font-size:12px;fill:#b03f00;fill-opacity:1;fill-rule:evenodd;stroke:black;stroke-width:0.07842225pt;stroke-opacity:1" />
      <path
         id="path685"
         d="M 751.35809,285.38205 C 761.32872,281.7823 771.29934,278.18255 781.26996,274.58279 C 783.19192,280.00697 788.30464,283.16198 792.15454,287.09694 C 790.59745,292.02618 793.39691,298.03169 789.66843,302.27637 C 786.91711,304.3233 783.32881,304.66048 780.26955,306.11414 C 768.65299,310.30814 757.03642,314.50212 745.41986,318.69611 C 743.08961,312.68129 738.22213,307.87217 736.76918,301.48137 C 738.32447,298.98746 743.14129,298.6161 741.75645,294.5862 C 743.0226,291.57959 746.67616,290.65285 748.66805,288.15337 C 749.60229,287.26706 750.49925,286.34157 751.35809,285.38205 z "
         style="font-size:12px;fill:#b03f00;fill-rule:evenodd;stroke:black;stroke-width:0.07842225pt" />
      <path
         id="path576"
         d="M 678.11755,297.19534 C 682.94741,312.55643 697.21549,323.72394 712.64418,327.15053 C 716.06665,325.45309 717.93033,320.55975 721.74845,325.21787 C 729.65184,326.14557 719.79984,337.41667 728.01319,339.34755 C 733.73467,346.81369 745.85073,345.67486 750.34543,354.344 C 750.2319,362.28753 764.96906,358.91922 764.59406,351.82154 C 768.30782,346.15403 778.3212,345.2892 783.60278,340.04676 C 789.24716,337.46356 788.20251,328.86491 787.61523,326.11384 C 790.8379,326.11634 799.1855,318.8984 796.13476,326.57415 C 809.58231,327.91474 820.49581,317.81572 828.40274,308.1524 C 832.70897,304.4581 835.79595,295.45725 828.35812,293.3326 C 821.51566,290.55491 813.83875,292.41303 806.91611,291.61789 C 801.67316,288.96507 796.82157,293.14285 793.49959,296.80403 C 789.26817,301.0811 783.22066,298.89165 779.37792,303.98759 C 773.063,307.68483 764.27101,311.74898 757.44455,307.07802 C 753.69985,303.1072 754.16506,297.14572 747.81879,295.85582 C 741.13493,292.18324 734.19305,288.36137 726.47917,287.55087 C 722.38462,293.10191 714.56829,294.3923 708.58159,291.3092 C 703.76769,287.98268 699.2354,286.54125 695.09324,291.65117 C 690.93089,296.85513 683.84366,294.10081 679.69453,293.73939 C 678.90994,294.75821 678.52908,295.9995 678.11755,297.19534 z "
         style="font-size:12px;fill:#00c8ff;fill-opacity:1;fill-rule:evenodd;stroke:black;stroke-width:0.16708793;stroke-opacity:1" />
      <path
         id="path1052"
         d="M 747.55188,221.30975 C 752.46411,218.64268 758.5608,219.06971 763.61219,221.08686 C 766.12193,222.77749 764.55028,218.49034 764.8422,217.2308 C 764.1723,214.19907 760.09533,214.87715 757.72907,214.36163 C 754.48622,214.18951 751.24184,214.59911 748.0666,215.23384 C 747.89508,217.25915 747.72345,219.28445 747.55188,221.30975 z "
         style="fill:#ffd400;fill-opacity:1;fill-rule:evenodd;stroke:black;stroke-width:0.13884538pt;stroke-linecap:butt;stroke-linejoin:miter;stroke-opacity:1" />
      <path
         id="path551"
         d="M 670.64526,239.24312 C 671.91099,246.49394 678.79381,239.7832 678.79876,235.61492 C 685.41982,231.19307 694.82897,236.49443 698.02957,242.95261 C 702.69999,253.04014 703.62455,265.0064 700.94022,275.78456 C 698.73639,284.43371 690.18104,290.1235 681.40818,289.66528 C 671.64394,287.34955 675.59765,298.47126 678.39655,303.37724 C 685.33525,317.45411 699.14259,328.57899 715.08625,329.80544 C 724.13278,332.74026 725.83353,345.3502 735.60762,348.19398 C 741.69141,349.1025 746.44077,350.74856 743.41892,356.58715 C 751.36037,361.29628 751.71604,345.79545 742.84611,347.83413 C 733.16395,346.30041 726.27942,338.18591 721.90481,329.97257 C 729.13291,328.43258 726.19811,323.42223 720.47857,325.79737 C 720.48759,320.91959 711.42088,320.52146 716.10024,325.14956 C 715.81382,331.13613 705.14842,324.38028 701.48605,323.40761 C 689.93175,317.58841 680.81336,306.68159 677.9981,293.96092 C 682.07481,289.49664 691.71154,293.48705 696.3472,287.12475 C 706.44059,278.32664 705.93968,263.42694 703.6118,251.3818 C 702.20848,243.0827 697.85822,233.94659 688.75058,232.21248 C 682.3614,231.2017 672.94312,231.86548 670.64526,239.24312 z "
         style="font-size:12px;fill:#ffd400;fill-opacity:1;fill-rule:evenodd;stroke:black;stroke-width:0.16708842;stroke-linecap:butt;stroke-linejoin:miter;stroke-dasharray:none;stroke-opacity:1" />
      <path
         id="path556"
         d="M 841.62799,239.24312 C 840.47655,246.41235 832.93959,239.46443 833.26863,235.56051 C 827.47581,231.62196 819.48194,235.5667 815.76802,240.67399 C 810.00189,248.86366 809.76739,259.44204 810.01535,269.08388 C 810.53356,278.05129 816.09834,287.88293 825.7426,289.12577 C 830.75484,290.15446 839.88641,287.86858 836.7249,295.86431 C 834.70803,304.128 829.45331,311.31256 823.67791,317.3876 C 816.68437,324.29991 807.38213,328.83974 797.56679,329.72534 C 791.31024,330.27159 790.08728,337.13008 786.15828,340.80446 C 781.93142,345.65959 776.11879,349.66653 769.50497,349.96664 C 765.1229,351.19492 772.77416,359.35266 765.50807,357.60963 C 759.18924,354.71484 764.39161,346.004 770.30414,347.74238 C 779.48992,345.66365 786.17535,338.00671 790.36847,329.97257 C 786.11262,331.63195 784.06228,322.10974 789.3144,325.87536 C 792.81048,327.69585 795.50087,317.24608 797.39438,323.41219 C 793.40316,328.16619 799.44415,328.31345 802.60229,326.63664 C 816.51827,322.62429 828.57242,311.83707 833.16044,297.97891 C 836.94482,292.82739 830.11018,289.95 825.96237,291.73961 C 815.89781,290.3189 808.66922,280.84591 807.72023,271.06566 C 806.63445,261.03596 807.74575,250.4863 811.96511,241.25367 C 816.56817,231.3392 830.73741,228.88568 839.13776,235.23401 C 840.30902,236.31203 841.20213,237.70466 841.62799,239.24312 z "
         style="font-size:12px;fill:#ffd400;fill-opacity:1;fill-rule:evenodd;stroke:black;stroke-width:0.16708842;stroke-linecap:butt;stroke-linejoin:miter;stroke-dasharray:none;stroke-opacity:1" />
      <path
         id="path557"
         d="M 820.71332,199.12125 C 818.86277,200.32633 818.97694,202.87391 820.12042,204.52251 C 821.57002,207.26651 824.32845,209.32303 825.02752,212.43691 C 825.09606,215.4962 821.39934,215.50861 819.40593,216.63879 C 813.79192,219.49343 807.15917,218.63884 801.45519,216.53187 C 793.65133,213.84263 786.25822,209.2805 777.8147,208.97257 C 772.48857,206.78462 766.47911,210.39092 763.93522,215.12089 C 762.78295,216.97062 762.5991,220.1156 765.02477,221.02845 C 767.04901,221.622 771.15803,222.44367 770.48458,219.12986 C 770.84893,215.68943 773.12239,212.16604 776.80217,211.7144 C 782.17224,210.96698 787.37385,213.1877 792.29617,215.03652 C 797.78144,217.19499 803.13356,219.91162 808.96132,221.01084 C 815.56858,221.67809 822.44015,218.72855 826.6431,213.61389 C 829.44163,210.35797 830.05842,205.34449 827.63247,201.71434 C 826.38535,199.2959 823.10845,199.1221 820.71332,199.12125 z "
         style="font-size:12px;fill:#ffd400;fill-opacity:1;fill-rule:evenodd;stroke:black;stroke-width:0.16708793;stroke-linecap:butt;stroke-linejoin:miter;stroke-dasharray:none;stroke-opacity:1" />
      <path
         id="path554"
         d="M 691.56006,199.12125 C 686.97758,210.22633 689.35565,222.54983 704.08657,218.14764 C 718.0238,216.81181 734.74469,200.5442 746.69232,214.06737 C 749.56517,232.14246 733.73224,202.37423 726.16972,212.76743 C 713.40568,221.24325 684.37835,227.47267 683.4504,205.1136 C 684.37726,201.65739 687.77931,198.47335 691.56006,199.12125 z "
         style="font-size:12px;fill:#ffd400;fill-opacity:1;fill-rule:evenodd;stroke:black;stroke-width:0.16708793;stroke-linecap:butt;stroke-linejoin:miter;stroke-dasharray:none;stroke-opacity:1" />
      <path
         d="M 751.36134,407.05373 C 754.28101,407.45577 862.48795,379.2904 862.28693,335.34948 L 862.28693,120.23551 L 640.43525,120.23551 L 640.43525,335.34948 C 640.23423,379.2904 751.36134,407.05373 751.36134,407.05373 z "
         id="path1756"
         sodipodi:nodetypes="cccccc"
         style="font-size:12px;fill:none;fill-rule:evenodd;stroke:black;stroke-width:1.65866554" />
    </g>
    <rect
       style="opacity:1;fill:url(#linearGradient6340);fill-opacity:1;stroke:none;stroke-width:0.5;stroke-linecap:round;stroke-linejoin:miter;stroke-miterlimit:4;stroke-dasharray:none;stroke-opacity:0.50196078"
       id="rect5439"
       width="16"
       height="11"
       x="0"
       y="0" />
    <rect
       style="opacity:1;fill:none;fill-opacity:1;stroke:white;stroke-width:0.75;stroke-linecap:round;stroke-linejoin:miter;stroke-miterlimit:4;stroke-dasharray:none;stroke-opacity:0.50196078"
       id="rect4552"
       width="13.978705"
       height="8.9787054"
       x="1.0106473"
       y="1.0106477" />
  </g>
</svg>
