<?xml version="1.0" encoding="UTF-8" standalone="no"?>
<!-- Created with Inkscape (http://www.inkscape.org/) -->
<svg
   xmlns:dc="http://purl.org/dc/elements/1.1/"
   xmlns:cc="http://web.resource.org/cc/"
   xmlns:rdf="http://www.w3.org/1999/02/22-rdf-syntax-ns#"
   xmlns:svg="http://www.w3.org/2000/svg"
   xmlns="http://www.w3.org/2000/svg"
   xmlns:xlink="http://www.w3.org/1999/xlink"
   xmlns:sodipodi="http://sodipodi.sourceforge.net/DTD/sodipodi-0.dtd"
   xmlns:inkscape="http://www.inkscape.org/namespaces/inkscape"
   width="16"
   height="11"
   id="svg2"
   sodipodi:version="0.32"
   inkscape:version="0.44"
   version="1.0"
   sodipodi:docbase="/home/cbrill/public_html/bbclone/images/ext2"
   sodipodi:docname="by.svg"
   inkscape:export-filename="/home/cbrill/public_html/bbclone/images/ext2/by.png"
   inkscape:export-xdpi="90"
   inkscape:export-ydpi="90">
  <defs
     id="defs4">
    <linearGradient
       id="linearGradient6334">
      <stop
         style="stop-color:white;stop-opacity:0.50196081;"
         offset="0"
         id="stop6336" />
      <stop
         style="stop-color:white;stop-opacity:0;"
         offset="1"
         id="stop6338" />
    </linearGradient>
    <linearGradient
       inkscape:collect="always"
       xlink:href="#linearGradient6334"
       id="linearGradient6340"
       x1="-4.984375"
       y1="10.341146"
       x2="8.8515635"
       y2="1.1458334"
       gradientUnits="userSpaceOnUse"
       gradientTransform="matrix(1.156409,0,0,1.196262,5.763975,-1.370717)" />
  </defs>
  <sodipodi:namedview
     id="base"
     pagecolor="#ffffff"
     bordercolor="#666666"
     borderopacity="1.0"
     inkscape:pageopacity="0.0"
     inkscape:pageshadow="2"
     inkscape:zoom="24.684455"
     inkscape:cx="9.1390766"
     inkscape:cy="6.897228"
     inkscape:document-units="px"
     inkscape:current-layer="layer1"
     width="16px"
     height="11px"
     inkscape:window-width="1390"
     inkscape:window-height="975"
     inkscape:window-x="0"
     inkscape:window-y="25" />
  <metadata
     id="metadata7">
    <rdf:RDF>
      <cc:Work
         rdf:about="">
        <dc:format>image/svg+xml</dc:format>
        <dc:type
           rdf:resource="http://purl.org/dc/dcmitype/StillImage" />
        <dc:title>Belarus</dc:title>
        <dc:date>2006-12-28</dc:date>
        <dc:creator>
          <cc:Agent>
            <dc:title>Christoph Brill</dc:title>
          </cc:Agent>
        </dc:creator>
        <cc:license
           rdf:resource="http://creativecommons.org/licenses/by-nc-sa/2.5/" />
      </cc:Work>
      <cc:License
         rdf:about="http://creativecommons.org/licenses/by-nc-sa/2.5/">
        <cc:permits
           rdf:resource="http://web.resource.org/cc/Reproduction" />
        <cc:permits
           rdf:resource="http://web.resource.org/cc/Distribution" />
        <cc:requires
           rdf:resource="http://web.resource.org/cc/Notice" />
        <cc:requires
           rdf:resource="http://web.resource.org/cc/Attribution" />
        <cc:prohibits
           rdf:resource="http://web.resource.org/cc/CommercialUse" />
        <cc:permits
           rdf:resource="http://web.resource.org/cc/DerivativeWorks" />
        <cc:requires
           rdf:resource="http://web.resource.org/cc/ShareAlike" />
      </cc:License>
    </rdf:RDF>
  </metadata>
  <g
     inkscape:label="Ebene 1"
     inkscape:groupmode="layer"
     id="layer1">
    <rect
       style="opacity:1;fill:#3ea036;fill-opacity:1;stroke:none;stroke-width:2;stroke-linecap:round;stroke-linejoin:round;stroke-miterlimit:4;stroke-dasharray:none;stroke-opacity:0.55"
       id="rect1872"
       width="16"
       height="3.6659999"
       x="0"
       y="7.3340001" />
    <rect
       style="opacity:1;fill:#c00;fill-opacity:1;stroke:none;stroke-width:2;stroke-linecap:round;stroke-linejoin:round;stroke-miterlimit:4;stroke-dasharray:none;stroke-opacity:0.55"
       id="rect3647"
       width="16"
       height="7.3330002"
       x="0"
       y="0.00099981693" />
    <rect
       style="opacity:1;fill:white;fill-opacity:1;stroke:none;stroke-width:0.5;stroke-linecap:round;stroke-linejoin:miter;stroke-miterlimit:4;stroke-dasharray:none;stroke-opacity:1"
       id="rect2764"
       width="2.5"
       height="11"
       x="0"
       y="-4.4408921e-16" />
    <path
       style="fill:#c00;fill-opacity:1;fill-rule:nonzero;stroke:none;stroke-width:1px;stroke-linecap:butt;stroke-linejoin:miter;stroke-opacity:1"
       id="path2768"
       d="M 0.55351078,0.015119409 C 0.53435443,0.11074982 0.57662381,0.16384593 0.61419584,0.24594391 C 0.80462071,0.55216056 1.0334896,0.8315369 1.2637855,1.108106 C 1.561622,1.4686443 1.8610468,1.8283968 2.1257261,2.2143303 C 2.4171077,2.6739464 2.2162448,2.6362789 1.6808388,2.9187469 C 1.4785985,2.8743386 1.277684,2.8233976 1.0750798,2.7802194 C 0.68553933,2.6650655 0.26610832,2.9611586 1.0693069,2.5179327 C 0.9772068,2.663136 1.046758,2.7550659 1.1263583,2.8922433 C 1.2410779,3.0450136 1.3418671,3.1974834 1.4161909,3.3718239 C 1.4434568,3.5992409 1.3267437,3.7938385 1.2333214,3.9929121 C 1.1453947,4.1268744 1.1310909,4.2602649 1.1337545,4.414245 C 1.1548652,4.5720527 1.1719926,4.7299924 1.1848028,4.888675 C 1.2094029,5.0719865 1.1502642,5.2421339 1.0980874,5.4145578 C 1.0417315,5.5449208 1.0182732,5.6802499 1.0031455,5.8148084 C 1.1226916,5.8821319 1.2188116,5.9636727 1.3115803,6.0644736 C 1.435221,6.2988809 1.4155155,6.5456845 1.3757081,6.7993287 C 1.3241288,7.0997859 1.2534494,7.3960946 1.163923,7.6873805 C 1.0919365,7.8462476 1.0880192,7.988691 1.1116933,8.1523385 C 1.1839526,8.3912005 1.0842229,8.6304397 1.0211895,8.8612861 C 0.94627386,9.0622281 0.9102883,9.2671496 0.91074926,9.4734987 C 0.98153864,9.5383194 0.992775,9.6208667 1.0181425,9.7077194 C 1.0338749,9.8417713 0.98372185,9.9436988 0.91610663,10.053981 C 0.85729295,10.122715 0.82495274,10.206851 0.7849832,10.285287 C 0.78790594,10.307036 0.78536441,10.261193 0.78555501,10.249146 L 0.30471508,10.613486 C 0.28442317,10.591138 0.23869021,10.589137 0.24383935,10.546443 C 0.27429941,10.454981 0.30394916,10.368151 0.36844844,10.291255 C 0.43264118,10.193603 0.49975375,10.114824 0.49024649,9.9888369 C 0.46710776,9.9032548 0.45149217,9.8310932 0.38689646,9.7642873 C 0.35356898,9.5407381 0.43506963,9.3266389 0.50066939,9.1094493 C 0.55846908,8.8926421 0.65550711,8.6627767 0.58755438,8.4395834 C 0.55916965,8.2619813 0.55340123,8.1091404 0.63596533,7.9362243 C 0.73075625,7.6478184 0.80608207,7.3539409 0.85504275,7.0540558 C 0.8954486,6.8178112 0.9164992,6.5861408 0.80219118,6.3667827 C 0.70066182,6.2638677 0.57699949,6.2005109 0.47651501,6.0994547 C 0.4624409,5.9459522 0.50645759,5.8125605 0.56341455,5.6661399 C 0.61535522,5.5008053 0.68025575,5.3380883 0.6585855,5.1612432 C 0.64667059,5.0025851 0.6321076,4.8443684 0.60420853,4.6875183 C 0.59719288,4.5234296 0.60211238,4.377983 0.69825155,4.2352685 C 0.78758434,4.0506164 0.90374465,3.8680122 0.89658919,3.656632 C 0.82769263,3.4863988 0.72917571,3.338168 0.61703061,3.1906362 C 0.52843261,3.04356 0.43911898,2.9168427 0.51640926,2.7437746 C 1.008734,2.4453741 1.0688485,2.3270829 1.554604,2.4470403 C 1.7545269,2.4900028 1.9556679,2.5484684 2.159843,2.5591744 C 1.4495653,2.9866357 1.8764288,2.9141219 1.6309173,2.5042243 C 1.3782568,2.1127826 1.0806568,1.7543562 0.78063971,1.3985858 C 0.54447305,1.1222793 0.3106015,0.84333391 0.10156024,0.54559518 C 0.048975724,0.45990362 0.0035331973,0.3945265 0.013647784,0.29019334 L 0.55351078,0.015119409 z " />
    <path
       style="fill:#c00;fill-opacity:1;fill-rule:nonzero;stroke:none;stroke-width:1px;stroke-linecap:butt;stroke-linejoin:miter;stroke-opacity:1"
       id="path2770"
       d="M 1.4720555,10.601198 C 1.4839312,10.459627 1.4660466,10.31975 1.444867,10.180014 C 1.3831403,9.8138974 1.2630062,9.4656132 1.0855754,9.1403118 C 0.80560375,8.6727123 1.3686513,8.6069862 1.7453797,8.4144412 C 2.2597962,8.3958097 2.1310141,8.3966554 1.693317,8.6178274 C 1.6524559,8.3383719 1.4990456,8.0773712 1.3923629,7.8149099 C 1.2578788,7.50793 1.2169145,7.1926534 1.2460489,6.8621566 C 1.3382471,6.4354558 1.6021574,6.4150826 2.0190578,6.1832271 C 1.7271128,6.2359569 1.6835449,6.6202542 1.7102489,6.1389229 C 1.633758,5.8496241 1.447454,5.6102555 1.2774153,5.3701898 C 1.1411272,4.9791012 1.6541204,4.9046085 1.9597236,4.7335629 C 1.6314171,4.8324129 1.6348206,5.1435152 1.6203768,4.6632652 C 1.558225,4.4255299 1.4010368,4.2353134 1.2666527,4.0355038 C 1.1857205,3.842274 1.2584728,3.6791166 1.332052,3.4978057 C 1.4300072,3.280921 1.393333,3.0746038 1.3227596,2.8560579 C 1.225423,2.6585422 1.1303935,2.4762953 1.0986531,2.2605094 C 1.1297521,2.0794165 1.2553552,1.9447294 1.3622017,1.8023584 C 1.4682244,1.6444775 1.4136483,1.5267488 1.3412064,1.3696832 C 1.2153383,1.2228428 1.2426977,1.1477642 1.3001942,0.99844021 C 1.2991785,0.98999265 2.9091046,0.1263808 1.6229212,0.85386177 C 1.6196428,0.82857224 1.6400629,0.8396644 1.6486337,0.83256572 L 2.1916785,0.56579873 C 2.1891046,0.57824411 2.2039984,0.62447544 2.1786516,0.62878791 C 1.8605522,0.82004746 1.7812771,0.90945266 1.5250778,0.99490833 C 1.4828888,1.0089805 1.3628172,1.0663985 1.4006013,1.0429401 C 1.5498147,0.95030062 1.7026003,0.86354283 1.8535998,0.77384419 C 1.7520097,0.89092192 1.7435767,0.92796949 1.8536639,1.0764884 C 1.9352564,1.245522 2.0073073,1.3861263 1.9058135,1.5652781 C 1.8057365,1.7022664 1.6820643,1.8289493 1.6276501,1.9923656 C 1.642624,2.2042167 1.7411302,2.3813339 1.8331627,2.5750207 C 1.9101267,2.8005403 1.9621362,3.0205963 1.8701846,3.2502933 C 1.7991188,3.4119673 1.715112,3.5628567 1.7760925,3.7405654 C 1.9105506,3.9483272 2.0682081,4.1467502 2.1399964,4.3878468 C 2.191806,4.8364577 1.9868408,4.8676568 1.4938973,5.1027262 C 1.7652515,4.9361828 1.7995319,4.7854467 1.7834458,5.0743599 C 1.9501973,5.3267813 2.1343356,5.5753421 2.2312381,5.8650952 C 2.2569113,6.2953658 2.0140345,6.3371676 1.5531285,6.5523025 C 2.353083,6.0799879 1.84991,6.2796185 1.7702833,6.6021106 C 1.7288827,6.9252498 1.7594079,7.2333521 1.8916531,7.535584 C 2.0055797,7.812346 2.1625071,8.0766386 2.235498,8.366241 C 1.9199989,8.577013 1.6850915,8.8043195 1.2772586,8.7718168 C 1.3870957,8.6942467 1.5142239,8.3510327 1.5868342,8.8534627 C 1.7571333,9.187365 1.8825719,9.5387164 1.9599624,9.9060905 C 1.9880428,10.044895 2.0134399,10.183946 2.0119185,10.326124 L 1.4720555,10.601198 z " />
    <rect
       style="opacity:1;fill:url(#linearGradient6340);fill-opacity:1;stroke:none;stroke-width:0.5;stroke-linecap:round;stroke-linejoin:miter;stroke-miterlimit:4;stroke-dasharray:none;stroke-opacity:0.50196078"
       id="rect5439"
       width="16"
       height="11"
       x="0"
       y="0" />
    <rect
       style="opacity:1;fill:none;fill-opacity:1;stroke:white;stroke-width:0.75;stroke-linecap:round;stroke-linejoin:miter;stroke-miterlimit:4;stroke-dasharray:none;stroke-opacity:0.50196078"
       id="rect4552"
       width="13.978705"
       height="8.9787054"
       x="1.0106473"
       y="1.0106477" />
  </g>
</svg>
