<?xml version="1.0" encoding="UTF-8" standalone="no"?>
<!-- Created with Inkscape (http://www.inkscape.org/) -->
<svg
   xmlns:dc="http://purl.org/dc/elements/1.1/"
   xmlns:cc="http://web.resource.org/cc/"
   xmlns:rdf="http://www.w3.org/1999/02/22-rdf-syntax-ns#"
   xmlns:svg="http://www.w3.org/2000/svg"
   xmlns="http://www.w3.org/2000/svg"
   xmlns:xlink="http://www.w3.org/1999/xlink"
   xmlns:sodipodi="http://sodipodi.sourceforge.net/DTD/sodipodi-0.dtd"
   xmlns:inkscape="http://www.inkscape.org/namespaces/inkscape"
   width="16"
   height="11"
   id="svg2"
   sodipodi:version="0.32"
   inkscape:version="0.44.1"
   version="1.0"
   sodipodi:docbase="/home/cbrill/public_html/bbclone-dev/images/ext2"
   sodipodi:docname="cr.svg"
   inkscape:export-filename="/home/cbrill/public_html/bbclone-dev/images/ext2/cr.png"
   inkscape:export-xdpi="90"
   inkscape:export-ydpi="90">
  <defs
     id="defs4">
    <linearGradient
       id="linearGradient6334">
      <stop
         style="stop-color:white;stop-opacity:0.50196081;"
         offset="0"
         id="stop6336" />
      <stop
         style="stop-color:white;stop-opacity:0;"
         offset="1"
         id="stop6338" />
    </linearGradient>
    <linearGradient
       inkscape:collect="always"
       xlink:href="#linearGradient6334"
       id="linearGradient6340"
       x1="-4.984375"
       y1="10.341146"
       x2="8.8515635"
       y2="1.1458334"
       gradientUnits="userSpaceOnUse"
       gradientTransform="matrix(1.156409,0,0,1.196262,5.763975,-1.370717)" />
  </defs>
  <sodipodi:namedview
     id="base"
     pagecolor="#ffffff"
     bordercolor="#666666"
     borderopacity="1.0"
     inkscape:pageopacity="0.0"
     inkscape:pageshadow="2"
     inkscape:zoom="32"
     inkscape:cx="12.07745"
     inkscape:cy="7.7101852"
     inkscape:document-units="px"
     inkscape:current-layer="layer1"
     width="16px"
     height="11px"
     inkscape:window-width="1390"
     inkscape:window-height="975"
     inkscape:window-x="0"
     inkscape:window-y="25" />
  <metadata
     id="metadata7">
    <rdf:RDF>
      <cc:Work
         rdf:about="">
        <dc:format>image/svg+xml</dc:format>
        <dc:type
           rdf:resource="http://purl.org/dc/dcmitype/StillImage" />
        <dc:title>Costa Rica</dc:title>
        <dc:date>2007-01-21</dc:date>
        <dc:creator>
          <cc:Agent>
            <dc:title>Christoph Brill</dc:title>
          </cc:Agent>
        </dc:creator>
        <cc:license
           rdf:resource="http://creativecommons.org/licenses/by-nc-sa/2.5/" />
      </cc:Work>
      <cc:License
         rdf:about="http://creativecommons.org/licenses/by-nc-sa/2.5/">
        <cc:permits
           rdf:resource="http://web.resource.org/cc/Reproduction" />
        <cc:permits
           rdf:resource="http://web.resource.org/cc/Distribution" />
        <cc:requires
           rdf:resource="http://web.resource.org/cc/Notice" />
        <cc:requires
           rdf:resource="http://web.resource.org/cc/Attribution" />
        <cc:prohibits
           rdf:resource="http://web.resource.org/cc/CommercialUse" />
        <cc:permits
           rdf:resource="http://web.resource.org/cc/DerivativeWorks" />
        <cc:requires
           rdf:resource="http://web.resource.org/cc/ShareAlike" />
      </cc:License>
    </rdf:RDF>
  </metadata>
  <g
     inkscape:label="Ebene 1"
     inkscape:groupmode="layer"
     id="layer1">
    <rect
       y="9.1670008"
       x="0"
       height="1.8329999"
       width="16"
       id="rect2760"
       style="opacity:1;fill:#003381;fill-opacity:1;stroke:none;stroke-width:2;stroke-linecap:round;stroke-linejoin:round;stroke-miterlimit:4;stroke-dasharray:none;stroke-opacity:0.55" />
    <rect
       style="opacity:1;fill:#970000;fill-opacity:1;stroke:none;stroke-width:2;stroke-linecap:round;stroke-linejoin:round;stroke-miterlimit:4;stroke-dasharray:none;stroke-opacity:0.55"
       id="rect3647"
       width="16"
       height="3.6659999"
       x="0"
       y="3.668" />
    <rect
       style="opacity:1;fill:white;fill-opacity:1;stroke:none;stroke-width:2;stroke-linecap:round;stroke-linejoin:round;stroke-miterlimit:4;stroke-dasharray:none;stroke-opacity:0.55"
       id="rect1879"
       width="16"
       height="1.8329999"
       x="0"
       y="7.3340001" />
    <rect
       style="opacity:1;fill:#003381;fill-opacity:1;stroke:none;stroke-width:2;stroke-linecap:round;stroke-linejoin:round;stroke-miterlimit:4;stroke-dasharray:none;stroke-opacity:0.55"
       id="rect2766"
       width="16"
       height="1.8329999"
       x="0"
       y="5.5313109e-08" />
    <rect
       y="1.8340001"
       x="0"
       height="1.8329999"
       width="16"
       id="rect2770"
       style="opacity:1;fill:white;fill-opacity:1;stroke:none;stroke-width:2;stroke-linecap:round;stroke-linejoin:round;stroke-miterlimit:4;stroke-dasharray:none;stroke-opacity:0.55" />
    <path
       sodipodi:type="arc"
       style="opacity:1;fill:white;fill-opacity:1;stroke:none;stroke-width:0.5;stroke-linecap:square;stroke-linejoin:bevel;stroke-miterlimit:4;stroke-dasharray:none;stroke-opacity:1"
       id="path2772"
       sodipodi:cx="3.71875"
       sodipodi:cy="5.765625"
       sodipodi:rx="1.09375"
       sodipodi:ry="1.484375"
       d="M 4.8125 5.765625 A 1.09375 1.484375 0 1 1  2.625,5.765625 A 1.09375 1.484375 0 1 1  4.8125 5.765625 z"
       transform="translate(-0.5625,-0.265625)" />
    <path
       style="fill:#06f1ff;fill-opacity:1;fill-rule:nonzero;stroke:none;stroke-width:1px;stroke-linecap:butt;stroke-linejoin:miter;stroke-opacity:1"
       id="path2776"
       d="M 3.0569235,5.2313124 C 3.294327,5.1028067 3.4630601,4.8490016 3.3878741,5.1937642 C 3.3657504,5.3649571 3.3631367,5.5377006 3.3607996,5.7100281 C 3.3905254,5.8685108 3.0985618,5.9034218 2.9491921,5.9641595 C 2.9474586,5.8517527 2.8773024,5.7671689 2.8175713,5.6775229 C 2.7195785,5.6159239 3.0111662,5.5473493 3.1188188,5.5048296 C 3.1046928,5.6175059 3.1083141,5.7304824 3.1173918,5.8431737 C 3.2017397,5.9596793 2.8893014,6.0205656 2.7628963,6.0891943 C 2.7949918,6.0155989 2.7904344,5.9340317 2.7912714,5.8553638 C 2.789883,5.7761949 2.7712513,5.7006669 2.7523442,5.624911 C 2.724544,5.5705737 2.6810033,5.5267102 2.6422222,5.4802638 C 2.9346576,5.1873874 3.0339985,5.2148073 3.3361225,5.3161726 C 3.4514465,5.3415906 3.551793,5.3992228 3.6531209,5.454969 C 3.7130094,5.4837373 3.7396439,5.5385659 3.7775364,5.5863343 C 3.8045344,5.632578 3.8014606,5.6823878 3.8086282,5.7315505 C 3.7859102,5.7892034 3.7536581,5.8431666 3.7257624,5.8988818 C 3.7076392,5.9547296 3.6803643,6.0065201 3.6563158,6.0595622 C 3.6285989,6.0983837 3.6145329,6.1439455 3.5945905,6.1860581 C 3.5709814,6.2366701 3.571386,6.291171 3.5637958,6.3441648 C 3.5679692,6.3809479 3.5712713,6.4178193 3.5750088,6.4546438 L 3.1637962,6.6685119 C 3.1598637,6.6316046 3.157869,6.5944553 3.1519943,6.5577482 C 3.1558005,6.500046 3.1454953,6.4412225 3.1764337,6.3872023 C 3.1923563,6.3387948 3.1999484,6.2898871 3.2320837,6.2480423 C 3.2601059,6.1971981 3.2916934,6.149518 3.3049569,6.0914558 C 3.3291986,6.0361755 3.3505154,5.9803566 3.3900679,5.9335643 C 3.3859596,5.8962115 3.4033516,5.8527596 3.3735146,5.8149627 C 3.3396135,5.7767575 3.3160192,5.7262385 3.2641662,5.703257 C 3.1664261,5.6504109 3.0691031,5.5974331 2.9593015,5.5713251 C 2.6252142,5.4642424 2.6092371,5.5263446 3.0420678,5.2428523 C 3.0826099,5.2934623 3.127205,5.3425002 3.1571032,5.4005253 C 3.1780497,5.4807655 3.1984631,5.5603172 3.1999088,5.6444686 C 3.2018014,5.729456 3.204181,5.8148164 3.1871798,5.8988881 C 3.0010343,6.0154677 2.774574,6.329627 2.7102882,6.0558942 C 2.7003058,5.9401058 2.6978136,5.8245205 2.7059533,5.708338 C 2.8033562,5.6307969 3.0512199,5.1952839 3.212024,5.4449799 C 3.2749559,5.5420088 3.3505775,5.6351458 3.3625,5.7537525 C 3.2982649,5.7929806 2.893774,6.2047309 2.9529432,5.9167742 C 2.95938,5.7423807 2.9666787,5.5679894 2.9813627,5.3940495 C 3.0197689,5.1174803 3.0911549,5.0812034 3.4356004,4.9561876 L 3.0569235,5.2313124 z " />
    <path
       style="fill:#00a306;fill-opacity:1;fill-rule:nonzero;stroke:none;stroke-width:1px;stroke-linecap:butt;stroke-linejoin:miter;stroke-opacity:1"
       id="path2778"
       d="M 3.2343342,5.0559715 C 3.2041638,5.03123 3.1609779,5.0317997 3.1255486,5.0193596 C 3.0588017,4.9991657 2.9998446,5.023667 2.9367574,5.0341714 C 2.8752403,5.0579622 2.8176585,5.0902372 2.7570947,5.1172251 C 2.8226065,5.0378738 3.1089719,4.9151448 3.0383532,4.9899874 C 2.9985124,5.0463809 2.9745662,5.1107543 2.9478844,5.1735442 C 2.9215375,5.2332663 2.9138263,5.2974255 2.9003327,5.3602834 C 2.8930314,5.4218046 2.8944968,5.4838047 2.8933625,5.5456025 C 2.8872582,5.605038 2.9129705,5.656778 2.9298229,5.7117527 C 2.9424841,5.7746447 2.9873833,5.8139708 3.0231022,5.8611291 C 3.0619122,5.9036314 3.114394,5.9272237 3.1622495,5.9569205 C 3.2177348,5.9889422 3.2796605,5.9974441 3.3399856,6.0135203 C 3.5104941,5.9667952 3.8067267,5.7687481 3.12275,6.1608331 C 3.2018681,6.1002473 3.2275719,6.0056285 3.2611283,5.9155053 C 3.3038074,5.8076277 3.3366891,5.6967518 3.3649647,5.5844547 C 3.3825109,5.5108394 3.3842183,5.4354424 3.3878145,5.3603473 C 3.3991588,5.3095481 3.360378,5.2782634 3.3448989,5.2433156 C 3.2310174,5.2472152 3.5392249,5.1239688 3.6399021,5.0705992 C 3.5571189,5.184936 3.5067345,5.3177997 3.4542302,5.4477356 C 3.4295313,5.5306425 3.4036674,5.6121431 3.3735366,5.6924168 C 3.3324218,5.7627986 3.2713198,5.8164103 3.2140041,5.8729254 C 3.1662235,5.9086618 3.1372216,5.960032 3.1032592,6.0067148 C 3.0899132,6.0277127 3.0929478,6.0533725 3.0879279,6.0760867 L 2.674834,6.287929 C 2.6771847,6.2595763 2.6690066,6.2289388 2.6820271,6.2011707 C 2.7134144,6.147444 2.7330748,6.0872593 2.7867348,6.0471066 C 2.8445119,5.9945909 2.9045091,5.9438585 2.950385,5.8798447 C 2.9906579,5.8028671 3.0183923,5.7257133 3.0400173,5.6397776 C 3.0932773,5.5083168 3.1467085,5.3774197 3.2132375,5.251889 C 3.3667284,5.1564789 3.5493801,4.8740717 3.7385938,4.9964003 C 3.7660283,5.0469968 3.8055352,5.0846894 3.8006009,5.1511746 C 3.7974742,5.2294693 3.7963047,5.30808 3.7788158,5.3849694 C 3.7512076,5.4990497 3.7197913,5.6121859 3.6758605,5.7212552 C 3.6442355,5.8155711 3.6163714,5.9148434 3.5532771,5.9932614 C 3.3421047,6.1164236 3.1901176,6.2715825 2.960358,6.2785347 C 2.896854,6.2598334 2.8329116,6.2433401 2.7745983,6.2101471 C 2.7235812,6.1785354 2.6705269,6.1497039 2.629057,6.1051175 C 2.5867835,6.0530384 2.5440544,6.0046212 2.5260227,5.9370105 C 2.5039048,5.8779043 2.4772472,5.8204676 2.4807143,5.7557331 C 2.4810813,5.6923745 2.480294,5.6289175 2.4853971,5.5657011 C 2.4950225,5.4995691 2.5015901,5.4330349 2.5296347,5.3711536 C 2.5536544,5.3044471 2.5754545,5.2371913 2.6143054,5.176731 C 2.7332423,5.0042201 2.8968331,4.8932293 3.1211427,4.8312201 C 3.1801341,4.8005055 3.2382982,4.7669272 3.3035898,4.7513047 C 3.3715744,4.745189 3.4383377,4.7366519 3.5062951,4.7548798 C 3.549438,4.7715539 3.5977267,4.778477 3.6331897,4.8115525 L 3.2343342,5.0559715 z " />
    <path
       style="fill:#ffcd03;fill-opacity:1;fill-rule:nonzero;stroke:none;stroke-width:1px;stroke-linecap:butt;stroke-linejoin:miter;stroke-opacity:1"
       id="path2782"
       d="M 3.2243265,4.5499376 C 2.4201018,4.9841884 3.0350834,4.6542117 3.3168506,4.5019196 C 3.3704411,4.5591166 3.3374333,4.5689962 3.3166398,4.6295756 C 3.2846401,4.6700653 3.2477826,4.7061446 3.2120544,4.743224 C 3.179328,4.7744044 3.1477558,4.8067115 3.1159136,4.8387643 C 3.0824084,4.8691863 3.0579294,4.9080551 3.0304301,4.9437534 C 2.9820134,4.983181 2.9423317,5.0308229 2.9001995,5.0764614 C 2.8690367,5.1119662 2.8364126,5.1460789 2.8045542,5.1808978 C 2.7721543,5.2195914 2.7512715,5.2651053 2.7263883,5.30828 C 2.6938946,5.3528752 2.6914829,5.4054996 2.6795979,5.4566502 C 2.6737208,5.5172309 2.6752331,5.5781447 2.6745383,5.6389074 C 2.6658653,5.6962645 2.6816467,5.7503691 2.6895206,5.8055452 C 2.7113567,5.8483839 2.7465974,5.8805848 2.7785882,5.9154497 C 2.8115347,5.9452689 2.8518599,5.9638684 2.8894592,5.9865608 C 2.9337534,6.0128792 2.9800317,6.0346036 3.0263655,6.0570266 C 3.0652195,6.0857658 3.1045739,6.1128142 3.1438411,6.1406822 C 3.1861365,6.1653898 3.2200503,6.2010373 3.2571708,6.2323923 C 3.2911324,6.2769168 3.3402023,6.3036977 3.3834598,6.3363195 C 3.4290483,6.3676497 3.4818755,6.3712705 3.5313238,6.3831585 C 3.6214146,6.3341261 3.3504745,6.4799955 3.2605931,6.5294106 C 3.3072376,6.4872004 3.3524127,6.4434263 3.3977604,6.4001075 C 3.4310359,6.3534093 3.4550679,6.30107 3.4820422,6.2507825 C 3.5128325,6.1942159 3.5332573,6.1333294 3.5577603,6.0743725 C 3.573688,6.0134313 3.5730361,5.9503793 3.5755848,5.8879688 C 3.5764574,5.8175597 3.5757597,5.7471427 3.5754147,5.676732 C 3.5750806,5.6130003 3.5750519,5.5492678 3.5749714,5.4855355 C 3.5749344,5.4230809 3.5749473,5.3606263 3.5749456,5.2981717 C 3.5796876,5.2364209 3.5714123,5.1752535 3.5678348,5.1140822 C 3.5603414,5.0548056 3.5487507,4.9961824 3.5391684,4.9374439 C 3.527759,4.8850048 3.5175074,4.8322032 3.5077479,4.7795404 C 3.5150201,4.7284789 3.4633161,4.7089201 3.4447349,4.6793871 C 3.4017783,4.6737344 3.3552665,4.6851095 3.3116345,4.6917634 C 3.2517077,4.6976949 3.1914598,4.6970726 3.1313427,4.6984647 C 3.062071,4.6919685 3.0009183,4.6607039 2.938483,4.6326008 C 2.8944763,4.6354367 2.8922691,4.5839625 2.8734332,4.5641384 L 3.2920036,4.3570327 C 3.3023549,4.3631914 3.3119241,4.3709123 3.3230575,4.3755087 C 3.3826318,4.4002424 3.4389385,4.4288633 3.5055657,4.4256548 C 3.5649917,4.4231268 3.624662,4.4233334 3.6836882,4.4147496 C 3.7375084,4.4110849 3.785175,4.3962528 3.8349065,4.4271303 C 3.8680234,4.4689587 3.9110114,4.4968763 3.9155563,4.5579628 C 3.9257034,4.6108489 3.9378775,4.6633502 3.9470786,4.7166041 C 3.957242,4.776651 3.9706046,4.8362003 3.9768686,4.8971657 C 3.9838627,4.960743 3.9928968,5.0234022 3.9875475,5.0879417 C 3.9875469,5.1503932 3.9875454,5.2128447 3.9875469,5.2752961 C 3.9875541,5.3390518 3.9875515,5.4028075 3.9876021,5.4665631 C 3.9876773,5.5372343 3.9877617,5.6079054 3.9878346,5.6785765 C 3.9865774,5.7440565 3.9879682,5.8099594 3.9753834,5.8746134 C 3.956147,5.9377801 3.9388475,5.9999365 3.9027891,6.0565528 C 3.8771637,6.1105251 3.8533559,6.1653682 3.8229004,6.2170994 C 3.7809285,6.2653208 3.7402125,6.3132117 3.689879,6.3540042 C 3.519938,6.459481 3.3620051,6.6427993 3.1535186,6.6533039 C 3.0999388,6.6336034 3.0437708,6.6199524 2.9947407,6.5881339 C 2.9490378,6.5534332 2.9007922,6.5215242 2.8629849,6.477265 C 2.8266001,6.4472993 2.7924738,6.4143299 2.751708,6.389909 C 2.7143354,6.3635049 2.6777773,6.3359473 2.6387332,6.3120533 C 2.5918365,6.2883913 2.5440067,6.2666507 2.4993153,6.2388349 C 2.4591961,6.2126486 2.413992,6.1929728 2.3814367,6.1562509 C 2.3460742,6.1160787 2.3067994,6.0791255 2.2835896,6.029766 C 2.2726937,5.969848 2.2511155,5.9124219 2.2619511,5.8491609 C 2.2620185,5.7871109 2.2612009,5.7250057 2.2646325,5.6630197 C 2.2732146,5.6067341 2.2720022,5.5486322 2.303032,5.4980606 C 2.3266761,5.4537074 2.3447842,5.4054255 2.3790289,5.3673682 C 2.408901,5.3292152 2.4368551,5.2896028 2.4722896,5.2550941 C 2.5130228,5.2089767 2.5522744,5.1592375 2.6019865,5.1225506 C 2.6297936,5.0866529 2.6653569,5.0566743 2.6857971,5.0147259 C 2.7186859,4.983598 2.7521511,4.953199 2.7822775,4.9191756 C 2.8182554,4.8834575 2.8578459,4.8508452 2.889361,4.810664 C 2.9086126,4.8015899 2.9373538,4.7323512 2.9457378,4.7840911 C 3.0555287,4.7195931 3.3885702,4.5327961 3.2751106,4.5905972 C 3.1297837,4.6646328 3.0072648,4.8685791 2.8456496,4.8250624 L 3.2243265,4.5499376 z " />
    <rect
       style="opacity:1;fill:url(#linearGradient6340);fill-opacity:1;stroke:none;stroke-width:0.5;stroke-linecap:round;stroke-linejoin:miter;stroke-miterlimit:4;stroke-dasharray:none;stroke-opacity:0.50196078"
       id="rect5439"
       width="16"
       height="11"
       x="0"
       y="0" />
    <rect
       style="opacity:1;fill:none;fill-opacity:1;stroke:white;stroke-width:0.75;stroke-linecap:round;stroke-linejoin:miter;stroke-miterlimit:4;stroke-dasharray:none;stroke-opacity:0.50196078"
       id="rect4552"
       width="13.978705"
       height="8.9787054"
       x="1.0106473"
       y="1.0106477" />
  </g>
</svg>
