<?xml version="1.0" encoding="UTF-8" standalone="no"?>
<!-- Created with Inkscape (http://www.inkscape.org/) -->
<svg
   xmlns:dc="http://purl.org/dc/elements/1.1/"
   xmlns:cc="http://web.resource.org/cc/"
   xmlns:rdf="http://www.w3.org/1999/02/22-rdf-syntax-ns#"
   xmlns:svg="http://www.w3.org/2000/svg"
   xmlns="http://www.w3.org/2000/svg"
   xmlns:xlink="http://www.w3.org/1999/xlink"
   xmlns:sodipodi="http://sodipodi.sourceforge.net/DTD/sodipodi-0.dtd"
   xmlns:inkscape="http://www.inkscape.org/namespaces/inkscape"
   width="16"
   height="11"
   id="svg2"
   sodipodi:version="0.32"
   inkscape:version="0.44"
   version="1.0"
   sodipodi:docbase="/home/cbrill/public_html/bbclone/images/ext2"
   sodipodi:docname="cy.svg"
   inkscape:export-filename="/home/cbrill/public_html/bbclone/images/ext2/cy.png"
   inkscape:export-xdpi="90"
   inkscape:export-ydpi="90">
  <defs
     id="defs4">
    <linearGradient
       id="linearGradient6334">
      <stop
         style="stop-color:white;stop-opacity:0.50196081;"
         offset="0"
         id="stop6336" />
      <stop
         style="stop-color:white;stop-opacity:0;"
         offset="1"
         id="stop6338" />
    </linearGradient>
    <linearGradient
       inkscape:collect="always"
       xlink:href="#linearGradient6334"
       id="linearGradient6340"
       x1="-4.984375"
       y1="10.341146"
       x2="8.8515635"
       y2="1.1458334"
       gradientUnits="userSpaceOnUse"
       gradientTransform="matrix(1.156409,0,0,1.196262,5.763975,-1.370717)" />
  </defs>
  <sodipodi:namedview
     id="base"
     pagecolor="#ffffff"
     bordercolor="#666666"
     borderopacity="1.0"
     inkscape:pageopacity="0.0"
     inkscape:pageshadow="2"
     inkscape:zoom="24.684455"
     inkscape:cx="21.576536"
     inkscape:cy="-1.9875737"
     inkscape:document-units="px"
     inkscape:current-layer="layer1"
     width="16px"
     height="11px"
     inkscape:window-width="1390"
     inkscape:window-height="975"
     inkscape:window-x="0"
     inkscape:window-y="25" />
  <metadata
     id="metadata7">
    <rdf:RDF>
      <cc:Work
         rdf:about="">
        <dc:format>image/svg+xml</dc:format>
        <dc:type
           rdf:resource="http://purl.org/dc/dcmitype/StillImage" />
        <dc:title>Cyprus</dc:title>
        <dc:date>2006-12-28</dc:date>
        <dc:creator>
          <cc:Agent>
            <dc:title>Christoph Brill</dc:title>
          </cc:Agent>
        </dc:creator>
        <cc:license
           rdf:resource="http://creativecommons.org/licenses/by-nc-sa/2.5/" />
      </cc:Work>
      <cc:License
         rdf:about="http://creativecommons.org/licenses/by-nc-sa/2.5/">
        <cc:permits
           rdf:resource="http://web.resource.org/cc/Reproduction" />
        <cc:permits
           rdf:resource="http://web.resource.org/cc/Distribution" />
        <cc:requires
           rdf:resource="http://web.resource.org/cc/Notice" />
        <cc:requires
           rdf:resource="http://web.resource.org/cc/Attribution" />
        <cc:prohibits
           rdf:resource="http://web.resource.org/cc/CommercialUse" />
        <cc:permits
           rdf:resource="http://web.resource.org/cc/DerivativeWorks" />
        <cc:requires
           rdf:resource="http://web.resource.org/cc/ShareAlike" />
      </cc:License>
    </rdf:RDF>
  </metadata>
  <g
     inkscape:label="Ebene 1"
     inkscape:groupmode="layer"
     id="layer1">
    <rect
       style="opacity:1;fill:url(#linearGradient6340);fill-opacity:1;stroke:none;stroke-width:0.5;stroke-linecap:round;stroke-linejoin:miter;stroke-miterlimit:4;stroke-dasharray:none;stroke-opacity:0.50196078"
       id="rect5439"
       width="16"
       height="11"
       x="0"
       y="0" />
    <rect
       style="opacity:1;fill:none;fill-opacity:1;stroke:white;stroke-width:0.75;stroke-linecap:round;stroke-linejoin:miter;stroke-miterlimit:4;stroke-dasharray:none;stroke-opacity:0.50196078"
       id="rect4552"
       width="13.978705"
       height="8.9787054"
       x="1.0106473"
       y="1.0106477" />
    <rect
       y="-3.5527137e-15"
       x="0"
       height="11"
       width="16"
       id="rect2760"
       style="opacity:1;fill:white;fill-opacity:1;stroke:none;stroke-width:2;stroke-linecap:round;stroke-linejoin:round;stroke-miterlimit:4;stroke-dasharray:none;stroke-opacity:0.55" />
    <path
       style="fill:#ed8000"
       d="M 5.2717357,2.2400441 C 5.3182821,2.7749501 5.4712539,3.490796 4.9604266,3.8550643 C 4.4044269,4.0015983 3.8471147,3.2654488 3.2997217,3.725498 C 2.9929953,4.0318083 2.8104836,4.6860886 2.2608511,4.5641846 C 1.9648451,4.5072641 1.6829102,3.9437895 1.7633308,4.5291076 C 2.0426932,4.9060926 1.8184609,5.4211065 2.1449392,5.7426504 C 2.4601493,6.0338566 2.3834106,6.5895602 2.8852644,6.7222324 C 3.3620913,6.8339923 3.7753358,7.2571231 4.2847093,7.1634467 C 4.7756883,6.753207 5.3921804,7.2798317 5.4341512,7.677516 C 5.7412829,7.7757022 5.8964966,7.6720854 5.7091183,7.4033386 C 5.7886677,6.7622721 6.562195,6.7140186 7.0700217,6.7436146 C 7.7827751,6.6744742 8.3238957,6.1331186 8.9990194,5.9556345 C 9.2199577,5.5287012 9.1962884,4.7234601 9.9051514,4.9096287 C 10.177376,4.9784358 10.556623,5.3276007 10.689642,4.920329 C 10.986063,4.7643747 11.811622,5.2767031 11.430727,4.682206 C 11.108851,4.2800514 10.626403,3.9487002 10.569762,3.40725 C 10.494925,2.8012157 11.038469,2.6122925 11.500126,2.5277161 C 11.647566,1.8330149 12.487865,1.7794144 12.90263,1.3067188 C 13.349194,0.9913743 13.732025,0.54241781 14.213127,0.34032212 C 14.218479,-0.020191108 13.551055,0.58118198 13.258991,0.54369487 C 12.866822,0.8856047 12.381112,1.0373547 11.921428,1.2658969 C 11.667781,1.596194 11.210175,1.6738854 10.865166,1.904216 C 10.522242,2.1306852 10.103846,2.0926958 9.7322398,2.1826954 C 9.3512957,2.51599 8.8744896,2.5116375 8.4112481,2.6156546 C 7.731881,2.6940173 7.063324,2.5225186 6.3896686,2.4665433 C 6.0013217,2.5830428 5.6273369,2.3662308 5.2717357,2.2400441 z "
       id="Cyprus" />
    <g
       transform="matrix(3.616788e-2,0,0,3.616788e-2,-10.66997,-6.682969)"
       id="g1979"
       style="fill:#006651">
      <path
         d="M 476.765,478.801 C 485.099,472.801 492.431,470.801 503.765,468.801 C 515.099,466.801 527.099,463.469 533.431,461.801 C 539.763,460.133 512.099,469.801 505.099,471.801 C 498.099,473.801 476.765,478.801 476.765,478.801 z "
         id="path1981" />
      <path
         d="M 522.432,461.133 C 520.1,446.801 525.764,431.801 538.764,425.801 C 541.764,436.133 532.432,453.801 522.432,461.133 z "
         id="path1983" />
      <path
         d="M 544.383,453.674 C 537.432,441.801 549.197,426.486 557.815,418.977 C 561.766,426.133 554.766,447.467 544.383,453.674 z "
         id="path1985" />
      <path
         d="M 564.766,444.467 C 557.334,434.285 566.098,416.467 575.432,409.467 C 579.098,419.467 575.432,437.467 564.766,444.467 z "
         id="path1987" />
      <path
         d="M 585.154,431.734 C 578.431,422.132 583.099,407.132 592.765,397.466 C 599.766,405.467 593.766,422.801 585.154,431.734 z "
         id="path1989" />
      <path
         d="M 601.432,418.801 C 595.766,409.801 602.766,388.133 611.766,382.133 C 615.766,390.133 612.766,412.801 601.432,418.801 z "
         id="path1991" />
      <path
         d="M 614.432,415.467 C 612.766,402.467 635.434,388.133 644.766,388.467 C 643.766,399.133 634.098,410.801 614.432,415.467 z "
         id="path1993" />
      <path
         d="M 601.766,430.133 C 612.432,419.133 633.098,419.133 640.432,421.467 C 638.432,427.801 614.1,441.799 601.766,430.133 z "
         id="path1995" />
      <path
         d="M 587.098,441.133 C 602.098,437.133 611.766,433.799 620.766,443.133 C 614.432,451.133 590.098,448.799 587.098,441.133 z "
         id="path1997" />
      <path
         d="M 565.766,450.801 C 580.098,443.133 597.432,454.467 600.098,461.133 C 584.098,467.801 565.434,452.469 565.766,450.801 z "
         id="path1999" />
      <path
         d="M 546.098,461.801 C 559.098,456.801 574.098,463.469 580.098,470.801 C 573.098,474.133 554.764,477.801 546.098,461.801 z "
         id="path2001" />
      <path
         d="M 528.1,467.467 C 543.1,465.801 557.493,477.153 560.629,483.643 C 541.432,485.467 534.1,479.801 528.1,467.467 z "
         id="path2003" />
      <path
         d="M 523.268,478.801 C 514.934,472.801 507.602,470.801 496.268,468.801 C 484.934,466.801 472.934,463.469 466.601,461.801 C 460.268,460.133 487.934,469.801 494.934,471.801 C 501.934,473.801 523.268,478.801 523.268,478.801 z "
         id="path2005" />
      <path
         d="M 477.6,461.133 C 479.933,446.801 474.268,431.801 461.267,425.801 C 458.267,436.133 467.6,453.801 477.6,461.133 z "
         id="path2007" />
      <path
         d="M 455.649,453.674 C 462.6,441.801 450.835,426.486 442.217,418.977 C 438.266,426.133 445.266,447.467 455.649,453.674 z "
         id="path2009" />
      <path
         d="M 435.266,444.467 C 442.698,434.285 433.934,416.467 424.6,409.467 C 420.934,419.467 424.6,437.467 435.266,444.467 z "
         id="path2011" />
      <path
         d="M 414.877,431.734 C 421.6,422.132 416.932,407.132 407.266,397.466 C 400.266,405.467 406.266,422.801 414.877,431.734 z "
         id="path2013" />
      <path
         d="M 398.6,418.801 C 404.266,409.801 397.266,388.133 388.266,382.133 C 384.266,390.133 387.266,412.801 398.6,418.801 z "
         id="path2015" />
      <path
         d="M 385.6,415.467 C 387.266,402.467 364.598,388.133 355.266,388.467 C 356.266,399.133 365.934,410.801 385.6,415.467 z "
         id="path2017" />
      <path
         d="M 398.266,430.133 C 387.6,419.133 366.934,419.133 359.6,421.467 C 361.6,427.801 385.932,441.799 398.266,430.133 z "
         id="path2019" />
      <path
         d="M 412.934,441.133 C 397.934,437.133 388.266,433.799 379.266,443.133 C 385.6,451.133 409.934,448.799 412.934,441.133 z "
         id="path2021" />
      <path
         d="M 434.266,450.801 C 419.934,443.133 402.6,454.467 399.934,461.133 C 415.934,467.801 434.598,452.469 434.266,450.801 z "
         id="path2023" />
      <path
         d="M 453.934,461.801 C 440.934,456.801 425.934,463.469 419.934,470.801 C 426.934,474.133 445.268,477.801 453.934,461.801 z "
         id="path2025" />
      <path
         d="M 471.933,467.467 C 456.933,465.801 442.539,477.153 439.403,483.643 C 458.6,485.467 465.933,479.801 471.933,467.467 z "
         id="path2027" />
    </g>
  </g>
</svg>
