<?xml version="1.0" encoding="UTF-8" standalone="no"?>
<!-- Created with Inkscape (http://www.inkscape.org/) -->
<svg
   xmlns:dc="http://purl.org/dc/elements/1.1/"
   xmlns:cc="http://web.resource.org/cc/"
   xmlns:rdf="http://www.w3.org/1999/02/22-rdf-syntax-ns#"
   xmlns:svg="http://www.w3.org/2000/svg"
   xmlns="http://www.w3.org/2000/svg"
   xmlns:xlink="http://www.w3.org/1999/xlink"
   xmlns:sodipodi="http://sodipodi.sourceforge.net/DTD/sodipodi-0.dtd"
   xmlns:inkscape="http://www.inkscape.org/namespaces/inkscape"
   width="16"
   height="11"
   id="svg2"
   sodipodi:version="0.32"
   inkscape:version="0.44.1"
   version="1.0"
   sodipodi:docbase="/home/cbrill/public_html/bbclone-dev/images/ext2"
   sodipodi:docname="eg.svg"
   inkscape:export-filename="/home/cbrill/public_html/bbclone-dev/images/ext2/eg.png"
   inkscape:export-xdpi="90"
   inkscape:export-ydpi="90">
  <defs
     id="defs4">
    <linearGradient
       id="linearGradient6334">
      <stop
         style="stop-color:white;stop-opacity:0.50196081;"
         offset="0"
         id="stop6336" />
      <stop
         style="stop-color:white;stop-opacity:0;"
         offset="1"
         id="stop6338" />
    </linearGradient>
    <linearGradient
       inkscape:collect="always"
       xlink:href="#linearGradient6334"
       id="linearGradient6340"
       x1="-4.984375"
       y1="10.341146"
       x2="8.8515635"
       y2="1.1458334"
       gradientUnits="userSpaceOnUse"
       gradientTransform="matrix(1.156409,0,0,1.196262,5.763975,-1.370717)" />
  </defs>
  <sodipodi:namedview
     id="base"
     pagecolor="#ffffff"
     bordercolor="#666666"
     borderopacity="1.0"
     inkscape:pageopacity="0.0"
     inkscape:pageshadow="2"
     inkscape:zoom="24.684455"
     inkscape:cx="7.2068392"
     inkscape:cy="-0.95156991"
     inkscape:document-units="px"
     inkscape:current-layer="layer1"
     width="16px"
     height="11px"
     inkscape:window-width="1390"
     inkscape:window-height="975"
     inkscape:window-x="0"
     inkscape:window-y="25" />
  <metadata
     id="metadata7">
    <rdf:RDF>
      <cc:Work
         rdf:about="">
        <dc:format>image/svg+xml</dc:format>
        <dc:type
           rdf:resource="http://purl.org/dc/dcmitype/StillImage" />
        <dc:title>Egypt</dc:title>
        <dc:date>2007-01-22</dc:date>
        <dc:creator>
          <cc:Agent>
            <dc:title>Christoph Brill</dc:title>
          </cc:Agent>
        </dc:creator>
        <cc:license
           rdf:resource="http://creativecommons.org/licenses/by-nc-sa/2.5/" />
      </cc:Work>
      <cc:License
         rdf:about="http://creativecommons.org/licenses/by-nc-sa/2.5/">
        <cc:permits
           rdf:resource="http://web.resource.org/cc/Reproduction" />
        <cc:permits
           rdf:resource="http://web.resource.org/cc/Distribution" />
        <cc:requires
           rdf:resource="http://web.resource.org/cc/Notice" />
        <cc:requires
           rdf:resource="http://web.resource.org/cc/Attribution" />
        <cc:prohibits
           rdf:resource="http://web.resource.org/cc/CommercialUse" />
        <cc:permits
           rdf:resource="http://web.resource.org/cc/DerivativeWorks" />
        <cc:requires
           rdf:resource="http://web.resource.org/cc/ShareAlike" />
      </cc:License>
    </rdf:RDF>
  </metadata>
  <g
     inkscape:label="Ebene 1"
     inkscape:groupmode="layer"
     id="layer1">
    <rect
       style="opacity:1;fill:black;fill-opacity:1;stroke:none;stroke-width:2;stroke-linecap:round;stroke-linejoin:round;stroke-miterlimit:4;stroke-dasharray:none;stroke-opacity:0.55"
       id="rect1872"
       width="16"
       height="3.6659999"
       x="0"
       y="7.3339996"
       inkscape:export-filename="/home/cbrill/public_html/bbclone/images/ext2/path2768.png"
       inkscape:export-xdpi="90"
       inkscape:export-ydpi="90" />
    <rect
       y="3.6680002"
       x="0"
       height="3.6659999"
       width="16"
       id="rect2760"
       style="opacity:1;fill:white;fill-opacity:1;stroke:none;stroke-width:2;stroke-linecap:round;stroke-linejoin:round;stroke-miterlimit:4;stroke-dasharray:none;stroke-opacity:0.55"
       inkscape:export-filename="/home/cbrill/public_html/bbclone/images/ext2/path2768.png"
       inkscape:export-xdpi="90"
       inkscape:export-ydpi="90" />
    <rect
       style="opacity:1;fill:red;fill-opacity:1;stroke:none;stroke-width:2;stroke-linecap:round;stroke-linejoin:round;stroke-miterlimit:4;stroke-dasharray:none;stroke-opacity:0.55"
       id="rect3647"
       width="16"
       height="3.6659999"
       x="0"
       y="0.00099999574"
       inkscape:export-filename="/home/cbrill/public_html/bbclone/images/ext2/path2768.png"
       inkscape:export-xdpi="90"
       inkscape:export-ydpi="90" />
    <path
       style="fill:#d1a700;fill-opacity:1;fill-rule:nonzero;stroke:none;stroke-width:1px;stroke-linecap:butt;stroke-linejoin:miter;stroke-opacity:1"
       id="path1882"
       d="M 6.8786048,4.5141165 C 6.6164565,4.7439345 6.8965067,4.267253 6.8848809,4.6950757 C 6.8640404,5.1710701 6.8541227,5.6473653 6.8581304,6.1237826 C 6.8877034,6.4789442 6.8770177,6.8569548 6.9977411,7.1978443 C 7.0821626,7.1927054 6.9464311,7.2514 6.9359109,7.2305862 C 6.9188774,7.196886 6.9733352,7.1648499 6.9887015,7.1303576 C 7.0697278,6.9484807 7.1190079,6.7525723 7.1742959,6.5620606 C 7.3307834,6.0255025 7.479733,5.4869516 7.6014017,4.9413616 C 7.5126966,4.8205604 7.8533441,4.1888278 7.8047402,4.6303478 C 7.766429,5.012431 7.747382,5.3964056 7.7382957,5.7802141 C 7.731597,5.8508882 7.7331887,6.4752504 7.8514688,6.3896955 C 7.832005,6.3877237 7.7903149,6.4031474 7.7930774,6.38378 C 7.8104738,6.2618198 7.911736,6.1672509 7.9584242,6.0532459 C 8.0652826,5.7923153 8.1379589,5.5257846 8.2057472,5.2527256 C 8.2946455,4.8419034 8.3466936,4.4204182 8.3206031,3.9998592 C 8.3139006,3.9795325 8.2392278,3.7961673 8.424198,3.9273035 C 8.4385269,3.9374621 8.3416466,4.6304421 8.3391594,4.6704014 C 8.3075396,5.1786464 8.3322538,5.6878219 8.4400649,6.1857004 C 8.5490693,6.5299445 8.6443813,6.2857641 8.7789889,6.0826082 C 9.021348,5.6559058 9.1861463,5.1918605 9.3283199,4.7239251 C 9.2574823,4.6615303 9.5953538,4.0113053 9.545923,4.5090016 C 9.483908,4.9939548 9.4578414,5.4817712 9.4908183,5.9696307 C 9.5293759,6.1101213 9.4979699,6.2929613 9.5726575,6.4257585 C 9.5807505,6.4401481 9.6223983,6.4383098 9.6142408,6.4526629 C 9.6006804,6.4765224 9.5413758,6.512778 9.5387251,6.4854626 C 9.5347848,6.444857 9.5846461,6.4180192 9.6076066,6.3842976 C 9.8373483,5.8909854 9.9151752,5.3444865 9.9632455,4.8074645 C 9.9283043,4.6299304 10.06899,3.9072096 9.828245,3.8187774 C 9.8495859,3.8178205 9.8938345,3.7946019 9.8922677,3.8159068 C 9.8829559,3.9425285 9.7775693,4.0435763 9.7384968,4.1643783 C 9.6406288,4.4669609 9.5925392,4.7776616 9.5440587,5.0908872 C 9.4671706,5.6687773 9.4378093,6.2521398 9.4746007,6.8340323 C 9.3222327,6.8322048 9.5404557,6.9500403 9.4999421,6.9757779 C 9.4635248,6.9989133 9.4135005,7.0287153 9.3749406,7.0093606 C 9.3680022,7.005878 9.3376146,6.6374684 9.3189523,6.5317655 C 9.1946309,5.9014195 8.8947995,5.351819 8.4752944,4.8727481 C 8.0744342,4.4685733 7.5999386,4.2569549 7.0606958,4.4924707 C 6.6969149,4.8174844 6.5636234,5.276193 6.4978904,5.7422505 C 6.4853709,5.9059959 6.4774559,6.0719486 6.4954028,6.235756 C 6.4985789,6.2647454 6.5551471,6.3086687 6.5272705,6.3172342 C 6.4915414,6.3282126 6.4539923,6.332022 6.4173531,6.3394159 C 6.5136427,5.8970631 6.4914397,5.4394315 6.4519121,4.9919268 C 6.3824327,4.6283326 6.3760731,4.0816924 6.0090201,3.8759343 C 5.7235524,3.9114283 5.6967216,4.4412641 5.6913768,4.6845411 C 5.7439165,5.2728762 6.1453538,5.5568882 6.6853727,5.6720776 C 7.1777494,5.7276435 7.6212854,5.5838406 7.9752405,5.2472187 C 8.1132719,5.1325621 8.1509959,4.9461761 8.2516698,4.8115226 C 8.4263763,4.7042661 8.4918922,4.7922779 8.6615062,4.8356043 C 8.8033104,4.8643909 8.9434303,4.8979503 9.0766109,4.9551874 C 9.151736,4.9866576 9.2178972,5.0314791 9.276525,5.0870447 C 9.3394505,5.2188671 9.077137,5.2762683 8.9790248,5.3128709 C 8.5574983,5.4352489 8.1190439,5.4844387 7.6857895,5.5472017 C 7.6951432,5.5362744 7.156989,5.6416486 7.1622326,5.6361034 C 7.2476897,5.5457302 7.261845,5.5562042 7.3494276,5.5545209 C 7.8300172,5.5412722 8.308571,5.490684 8.785382,5.4317078 C 8.8308932,5.4405064 9.6927982,5.2737072 9.3760236,5.2936457 C 8.9047174,5.1197547 8.3790401,5.1112629 7.8822066,5.0785514 C 7.3545185,5.0657557 6.8132709,5.0297944 6.2931285,5.1427203 C 6.2715591,5.1542125 6.2040961,5.1795728 6.2284203,5.1771968 C 6.271905,5.172949 6.3094424,5.1368583 6.3531341,5.1368588 C 6.4198131,5.1368595 6.6687443,5.2609515 6.7336758,5.2781369 L 6.6385986,5.3437621 C 6.4738279,5.3059673 6.0044088,5.2301184 6.3965256,5.0645218 C 6.9083156,4.9774468 7.4335917,5.019927 7.9493316,5.0304257 C 8.4648868,5.0615692 9.0082028,5.0603063 9.5020465,5.2222894 C 9.5847647,5.4090946 8.7906417,5.4838255 8.704142,5.492236 C 8.215945,5.5496666 7.7269731,5.6001548 7.2367268,5.6367483 C 6.9881539,5.6418951 7.701944,5.4414507 7.7733369,5.4817028 C 8.2133908,5.421445 8.6590027,5.3683973 9.0831322,5.2311218 C 9.3045843,5.1403032 9.1310171,5.3093381 9.150031,5.1638505 C 9.0952559,5.1084557 9.032755,5.0636798 8.960552,5.0325157 C 8.8276146,4.9754151 8.6877379,4.9431771 8.5461205,4.915107 C 8.4413986,4.8883737 8.1886699,4.8584709 8.3885446,4.7585648 C 8.26447,4.8783599 8.230758,5.0901933 8.0824988,5.2031095 C 7.676228,5.5890438 7.1654005,5.7881949 6.6024727,5.7296942 C 6.05665,5.6140467 5.6505827,5.3274891 5.5947436,4.7336052 C 5.5970108,4.3845396 5.6555717,3.8158152 6.1191216,3.8048163 C 6.4720596,4.0384689 6.4671469,4.5747867 6.5384523,4.9468298 C 6.5806245,5.3895479 6.6039572,5.8363717 6.5467636,6.2791616 C 6.4984461,6.3180747 6.4549447,6.3638752 6.4018112,6.3959007 C 6.3361712,6.4354644 6.3780735,6.2437623 6.3788604,6.167125 C 6.3806913,5.9888106 6.3852344,5.979874 6.4010394,5.7898561 C 6.4824496,5.2422636 6.6422241,4.7206315 7.1469813,4.4242781 C 7.6893414,4.1962494 8.1576504,4.4183292 8.5539273,4.8252886 C 8.9723796,5.3056267 9.2718926,5.8543898 9.4179534,6.4788485 C 9.4586318,6.6623653 9.610328,6.9489397 9.3725903,7.0435756 C 9.3247164,7.0626327 9.475782,6.7681614 9.3675226,6.8890759 C 9.362049,6.3012491 9.3947397,5.7139592 9.4642129,5.1300882 C 9.5273473,4.6928864 9.5518308,3.9968506 9.948191,3.740355 C 10.128079,3.8690401 10.031925,4.5710669 10.048197,4.7651285 C 10.000845,5.2962224 9.9273538,5.8339439 9.7266421,6.3316713 C 9.4155675,6.9017155 9.4116016,6.2031911 9.395302,6.0190286 C 9.3693326,5.5343856 9.3953777,5.0511748 9.4294378,4.5674186 C 9.438344,4.237839 9.6653607,4.1807366 9.4321157,4.6749931 C 9.2787757,5.1393309 9.1171795,5.6040617 8.8850366,6.0359676 C 8.7703834,6.2220805 8.4193576,6.6948979 8.3346266,6.2419889 C 8.2484252,5.7385314 8.2228596,5.2278559 8.2456163,4.7175022 C 8.2477896,4.6521263 8.23223,3.710112 8.4398066,3.9388292 C 8.4307772,4.3662852 8.3867055,4.7928862 8.2933881,5.2106624 C 8.1898076,5.649423 8.1050512,6.1842106 7.7394028,6.4784106 C 7.5794143,6.5130569 7.6539043,5.9234518 7.6376838,5.83115 C 7.6484198,5.4507648 7.6645684,5.070507 7.6845489,4.6905016 C 7.6893928,4.5388241 7.6631263,4.6209909 7.8189156,4.4920184 C 7.9143209,4.4130356 7.582529,4.9261594 7.7001132,4.8939116 C 7.5653853,5.4363292 7.4173092,5.9751339 7.2730782,6.5150725 C 7.2349759,6.657041 7.1345318,7.3491952 6.8760577,7.2643071 C 6.7904164,6.9071922 6.7945541,6.5324924 6.7708431,6.1683677 C 6.7653862,5.6976556 6.7707776,5.2269096 6.765157,4.7561872 C 6.7514536,4.4371224 7.0109109,4.4950688 6.7558792,4.6032819 L 6.8786048,4.5141165 z " />
    <rect
       style="opacity:1;fill:url(#linearGradient6340);fill-opacity:1;stroke:none;stroke-width:0.5;stroke-linecap:round;stroke-linejoin:miter;stroke-miterlimit:4;stroke-dasharray:none;stroke-opacity:0.50196078"
       id="rect5439"
       width="16"
       height="11"
       x="0"
       y="0" />
    <rect
       style="opacity:1;fill:none;fill-opacity:1;stroke:white;stroke-width:0.75;stroke-linecap:round;stroke-linejoin:miter;stroke-miterlimit:4;stroke-dasharray:none;stroke-opacity:0.50196078"
       id="rect4552"
       width="13.978705"
       height="8.9787054"
       x="1.0106473"
       y="1.0106477" />
  </g>
</svg>
