<?xml version="1.0" encoding="UTF-8" standalone="no"?>
<!-- Created with Inkscape (http://www.inkscape.org/) -->
<svg xmlns:dc="http://purl.org/dc/elements/1.1/" xmlns:cc="http://creativecommons.org/ns#" xmlns:rdf="http://www.w3.org/1999/02/22-rdf-syntax-ns#" xmlns:svg="http://www.w3.org/2000/svg" xmlns="http://www.w3.org/2000/svg" xmlns:sodipodi="http://sodipodi.sourceforge.net/DTD/sodipodi-0.dtd" xmlns:inkscape="http://www.inkscape.org/namespaces/inkscape" width="342.45248" height="349.4668" id="svg4570" version="1.1" inkscape:version="0.48.0 r9654" sodipodi:docname="Nouveau document 13">
  <title id="title4591">Cycle</title>
  <defs id="defs4572"/>
  <sodipodi:namedview id="base" pagecolor="#ffffff" bordercolor="#666666" borderopacity="1.0" inkscape:pageopacity="0.0" inkscape:pageshadow="2" inkscape:zoom="0.87910156" inkscape:cx="109.41665" inkscape:cy="142.50443" inkscape:document-units="px" inkscape:current-layer="layer1" showgrid="false" fit-margin-top="0" fit-margin-left="0" fit-margin-right="0" fit-margin-bottom="0" showborder="false" inkscape:showpageshadow="false" inkscape:window-width="1516" inkscape:window-height="841" inkscape:window-x="25" inkscape:window-y="0" inkscape:window-maximized="0"/>
  <metadata id="metadata4575">
    <rdf:RDF>
      <cc:Work rdf:about="">
        <dc:format>image/svg+xml</dc:format>
        <dc:type rdf:resource="http://purl.org/dc/dcmitype/StillImage"/>
        <cc:license rdf:resource="http://creativecommons.org/licenses/publicdomain/"/>
        <dc:title>Cycle</dc:title>
        <dc:date>2011-02-14</dc:date>
        <dc:creator>
          <cc:Agent>
            <dc:title>lmproulx</dc:title>
          </cc:Agent>
        </dc:creator>
      </cc:Work>
      <cc:License rdf:about="http://creativecommons.org/licenses/publicdomain/">
        <cc:permits rdf:resource="http://creativecommons.org/ns#Reproduction"/>
        <cc:permits rdf:resource="http://creativecommons.org/ns#Distribution"/>
        <cc:permits rdf:resource="http://creativecommons.org/ns#DerivativeWorks"/>
      </cc:License>
    </rdf:RDF>
  </metadata>
  <g inkscape:label="Calque 1" inkscape:groupmode="layer" id="layer1" transform="translate(-174.581, -315.691)">
    <g transform="translate(541.959, -13.8106)" id="g4551">
      <path style="fill: rgb(255, 255, 255); stroke: rgb(0, 0, 0); stroke-width: 2; stroke-linecap: round; stroke-linejoin: round; stroke-miterlimit: 4; stroke-opacity: 1; stroke-dasharray: none; stroke-dashoffset: 3.003;" d="m -287.68512,405.02356 c -4.35093,-4.17022 -10.09908,-5.25383 -16.19606,0.0565 -16.96818,15.5961 -27.7065,37.24577 -35.38876,61.12115 -20.49105,55.14346 -3.52563,119.60711 36.5,161.5625 39.98974,43.43988 106.12973,61.96863 162.3125,42.46875 20.702,-6.81905 35.79341,-13.73108 52.208005,-26.01612 l 10.74935,9.75047 c 6.30055,4.48545 11.51268,-0.21494 12.13351,-10.56817 3.0771,-23.89678 7.81549,-45.15863 8.27492,-68.78924 3.07897,-27.6312 -5.89368,-24.14805 -25.92907,-22.96354 -21.056915,0.67597 -37.064475,3.16213 -58.121385,7.84092 -11.21022,2.08527 -15.24132,6.18068 -9.48151,13.92042 l 8.34392,10.09676 c -8.95717,6.06918 -13.77341,10.58605 -26.39649,12.16601 -35.93866,5.63023 -74.14294,-14.65888 -88.78125,-48.125 -16.83284,-24.89964 -15.75084,-56.69034 4.24171,-79.95543 5.92789,-4.86123 6.18481,-10.30925 2.35919,-14.53742 z" id="path4526" inkscape:connector-curvature="0" sodipodi:nodetypes="cccccccccccccccccc"/>
      <path style="fill: rgb(255, 255, 255); stroke: rgb(0, 0, 0); stroke-width: 2; stroke-linecap: round; stroke-linejoin: round; stroke-miterlimit: 4; stroke-opacity: 1; stroke-dasharray: none; stroke-dashoffset: 3.003;" d="m -78.743568,443.08469 c 5.586947,0.65925 44.448535,36.09331 42.784731,30.21211 -3.750188,-22.73969 -9.368538,-40.51139 -25.132434,-60.0191 -34.903358,-47.3544 -98.125589,-68.48107 -155.153039,-57.98464 -58.24966,9.65305 -109.9874,54.83069 -124.45685,112.51417 -5.63798,21.05434 -9.31771,36.68439 -6.44969,57.33181 l -14.43708,4.24693 c -7.20431,2.81318 -6.12788,9.74869 2.19296,15.9405 18.30492,15.66698 33.49538,31.28007 53.01183,44.61141 21.42793,17.7146 22.48548,7.68144 32.47179,-9.72813 10.97142,-17.98551 18.6067,-32.12006 26.22957,-52.29867 4.39754,-10.5204 3.18013,-16.13646 -6.45029,-15.55864 l -14.00564,1.6541 c -0.16961,-10.81836 -0.32179,-17.52806 5.27258,-28.95355 14.98051,-33.14922 54.39846,-56.51493 90.41472,-50.4248 31.76997,4.30369 54.95717,3.34077 63.46582,32.81226 -0.12414,6.19794 12.20317,-20.11465 21.42074,-23.40806 2.935139,-0.92374 4.196991,-2.19326 8.820282,-0.9477 z" id="path4528" inkscape:connector-curvature="0" sodipodi:nodetypes="cccccccccccccccccc"/>
      <path sodipodi:nodetypes="ccccccccccccccc" inkscape:connector-curvature="0" id="path4530" d="m -60.291991,609.03103 c 29.118233,-37.72584 37.028542,-62.83017 33.632115,-114.77073 -5.318461,-58.80407 -44.823601,-115.96813 -101.278934,-134.66422 -20.5797,-7.17972 -36.39923,-9.4832 -57.70664,-9.15899 l -3.16754,-14.71165 c -2.27264,-7.39264 -9.26877,-6.83211 -16.05903,1.008 -16.97791,17.09606 -33.67172,31.09017 -48.40999,49.56718 -19.25089,20.05907 -9.32343,21.85578 7.29988,33.10235 17.1248,12.27159 30.65593,25.92498 50.21549,35.01939 10.16634,5.16358 15.85706,4.36487 15.9931,-5.28191 l -0.61372,-11.94949 c 18.36777,-2.39562 25.94198,-1.75566 37.93128,4.164 26.90615,13.86016 45.026411,51.82654 36.2892,87.29372 -4.11944,15.44658 -8.99891,20.15295 -14.55523,26.58096 82.602776,-6.50229 63.506336,-10.32328 60.430019,53.80139 z" style="fill: rgb(255, 255, 255); stroke: rgb(0, 0, 0); stroke-width: 2; stroke-linecap: round; stroke-linejoin: round; stroke-miterlimit: 4; stroke-opacity: 1; stroke-dasharray: none; stroke-dashoffset: 3.003;"/>
    </g>
  </g>
</svg>