<?xml version="1.0" encoding="UTF-8" standalone="no"?>
<!-- Created with Inkscape (http://www.inkscape.org/) -->
<svg
   xmlns:dc="http://purl.org/dc/elements/1.1/"
   xmlns:cc="http://creativecommons.org/ns#"
   xmlns:rdf="http://www.w3.org/1999/02/22-rdf-syntax-ns#"
   xmlns:svg="http://www.w3.org/2000/svg"
   xmlns="http://www.w3.org/2000/svg"
   xmlns:sodipodi="http://sodipodi.sourceforge.net/DTD/sodipodi-0.dtd"
   xmlns:inkscape="http://www.inkscape.org/namespaces/inkscape"
   width="32"
   height="32"
   id="svg3062"
   sodipodi:version="0.32"
   inkscape:version="0.46"
   version="1.0"
   inkscape:export-filename="/home/mathieu/Projets/current/internetcollaboratif.info/public-storm/Trunk/www/themes/ps/templates/img/logo32.png"
   inkscape:export-xdpi="97"
   inkscape:export-ydpi="97"
   sodipodi:docname="logo.svg"
   inkscape:output_extension="org.inkscape.output.svg.inkscape">
  <defs
     id="defs3064">
    <inkscape:perspective
       sodipodi:type="inkscape:persp3d"
       inkscape:vp_x="0 : 526.18109 : 1"
       inkscape:vp_y="0 : 1000 : 0"
       inkscape:vp_z="744.09448 : 526.18109 : 1"
       inkscape:persp3d-origin="372.04724 : 350.78739 : 1"
       id="perspective3070" />
  </defs>
  <sodipodi:namedview
     id="base"
     pagecolor="#ffffff"
     bordercolor="#666666"
     borderopacity="1.0"
     inkscape:pageopacity="0.0"
     inkscape:pageshadow="2"
     inkscape:zoom="3.959798"
     inkscape:cx="69.140304"
     inkscape:cy="-5.2629607"
     inkscape:document-units="px"
     inkscape:current-layer="layer1"
     showgrid="false"
     inkscape:window-width="1280"
     inkscape:window-height="970"
     inkscape:window-x="0"
     inkscape:window-y="0" />
  <metadata
     id="metadata3067">
    <rdf:RDF>
      <cc:Work
         rdf:about="">
        <dc:format>image/svg+xml</dc:format>
        <dc:type
           rdf:resource="http://purl.org/dc/dcmitype/StillImage" />
      </cc:Work>
    </rdf:RDF>
  </metadata>
  <g
     inkscape:label="Calque 1"
     inkscape:groupmode="layer"
     id="layer1">
    <rect
       style="opacity:1;fill:#ffffff;fill-opacity:1;fill-rule:nonzero;stroke:none;stroke-width:1;stroke-linecap:butt;stroke-linejoin:miter;stroke-miterlimit:4;stroke-dasharray:none;stroke-dashoffset:0;stroke-opacity:1"
       id="rect3100"
       width="32"
       height="32"
       x="0"
       y="0"
       inkscape:export-filename="/home/mathieu/Projets/current/internetcollaboratif.info/public-storm/Trunk/www/themes/ps/templates/img/logo64.png"
       inkscape:export-xdpi="97"
       inkscape:export-ydpi="97" />
    <g
       inkscape:export-ydpi="97"
       inkscape:export-xdpi="97"
       inkscape:export-filename="/home/mathieu/Projets/current/internetcollaboratif.info/public-storm/Trunk/www/themes/ps/templates/img/logo64.png"
       transform="matrix(0.3747273,0,0,0.3747273,0.1452821,-61.153315)"
       id="g3046">
      <text
         sodipodi:linespacing="100%"
         id="text3048"
         y="196.95143"
         x="3.6183548"
         style="font-size:23.29102135px;font-style:normal;font-variant:normal;font-weight:bold;font-stretch:normal;text-align:start;line-height:100%;writing-mode:lr-tb;text-anchor:start;fill:#156e1e;fill-opacity:1;stroke:none;stroke-width:1px;stroke-linecap:butt;stroke-linejoin:miter;stroke-opacity:1;font-family:Century Schoolbook L;-inkscape-font-specification:Century Schoolbook L Bold"
         xml:space="preserve"><tspan
           y="196.95143"
           x="3.6183548"
           id="tspan3050"
           sodipodi:role="line">Public</tspan><tspan
           id="tspan3052"
           y="220.24245"
           x="3.6183548"
           sodipodi:role="line">Storm</tspan></text>
      <path
         id="path3054"
         d="M 45.46651,213.73268 L 45.46651,216.82643 L 45.46651,217.88893 C 45.46652,218.84388 45.20713,218.98268 43.71651,218.98268 L 43.62276,218.98268 L 43.62276,220.17018 L 51.40401,220.17018 L 51.40401,218.98268 L 50.90401,218.98268 C 49.41339,218.98271 49.15401,218.84386 49.15401,217.88893 L 49.15401,216.82643 L 49.15401,216.35768 C 49.15401,215.49752 49.27688,214.59028 49.46651,213.76393 C 48.1778,213.74453 46.89195,213.73268 45.59151,213.73268 C 45.54956,213.73268 45.50844,213.73266 45.46651,213.73268 z M 42.37276,213.76393 C 41.04287,213.78056 39.72067,213.82076 38.40401,213.85768 C 38.42303,214.14371 38.43526,214.4195 38.43526,214.70143 C 38.43525,217.65939 37.58213,219.32643 36.09151,219.32643 C 34.53102,219.32642 33.71651,217.77584 33.71651,214.70143 C 33.71651,214.46003 33.73774,214.23691 33.74776,214.01393 C 32.40397,214.07648 31.07519,214.14934 29.74776,214.23268 C 29.73585,214.38616 29.71651,214.54409 29.71651,214.70143 C 29.71652,218.07862 32.38028,220.54518 36.06026,220.54518 C 39.74024,220.54519 42.46651,218.06329 42.46651,214.73268 C 42.46651,214.39524 42.42834,214.08479 42.37276,213.76393 z M 57.65401,214.04518 L 57.65401,216.82643 L 57.65401,217.88893 C 57.65402,218.84388 57.39463,218.98268 55.90401,218.98268 L 55.77901,218.98268 L 55.77901,220.17018 L 62.65401,220.17018 L 62.65401,218.98268 C 61.46618,218.95942 61.31026,218.82853 61.31026,217.92018 L 61.31026,216.82643 L 61.31026,214.20143 C 60.1047,214.12652 58.87306,214.10296 57.65401,214.04518 z M 64.71651,214.45143 L 64.71651,216.82643 L 64.71651,217.88893 C 64.71651,218.82059 64.53731,218.95939 63.37276,218.98268 L 63.37276,220.17018 L 69.71651,220.17018 L 69.71651,218.98268 C 68.52867,218.95942 68.37276,218.82853 68.37276,217.92018 L 68.37276,216.82643 L 68.37276,214.76393 C 67.1609,214.65282 65.94431,214.54502 64.71651,214.45143 z M 24.90401,214.57643 C 23.67339,214.67842 22.46182,214.80054 21.24776,214.92018 L 21.24776,216.13893 C 21.24775,218.04877 21.35181,218.61178 21.74776,219.26393 C 22.23687,220.07912 23.23267,220.54518 24.56026,220.54518 C 25.88785,220.54519 26.9314,220.10241 27.56026,219.26393 C 28.14253,218.51862 28.49776,217.39044 28.49776,216.38893 C 28.49776,216.27249 28.4898,216.09059 28.46651,215.85768 L 27.24776,215.85768 C 27.27106,217.58124 26.73394,218.54518 25.77901,218.54518 C 25.10356,218.54519 24.90401,218.12897 24.90401,216.54518 L 24.90401,214.57643 z M 71.74776,215.07643 L 71.74776,216.82643 L 71.74776,217.92018 C 71.74775,218.82852 71.59185,218.95939 70.40401,218.98268 L 70.40401,220.17018 L 77.24776,220.17018 L 77.24776,218.98268 L 77.15401,218.98268 C 75.66339,218.98271 75.40401,218.82853 75.40401,217.92018 L 75.40401,216.82643 L 75.40401,215.51393 C 74.19369,215.36552 72.97664,215.20705 71.74776,215.07643 z M 18.24776,215.23268 C 17.23458,215.34586 16.21679,215.4511 15.21651,215.57643 C 15.36275,215.87771 15.46651,216.23583 15.46651,216.60768 C 15.4665,218.23803 14.11783,219.32643 12.09151,219.32643 C 10.3263,219.32643 8.72754,218.36962 7.46651,216.70143 C 6.56595,216.84742 5.66665,216.983 4.77901,217.13893 L 4.84151,220.35768 L 5.87276,220.35768 L 7.31026,218.98268 C 8.73101,220.05406 10.22823,220.54518 12.09151,220.54518 C 15.62955,220.54519 18.12014,218.35698 18.24776,215.23268 z"
         style="font-size:23.29102135px;font-style:normal;font-variant:normal;font-weight:bold;font-stretch:normal;text-align:start;line-height:100%;writing-mode:lr-tb;text-anchor:start;fill:#0f4014;fill-opacity:1;stroke:none;stroke-width:1px;stroke-linecap:butt;stroke-linejoin:miter;stroke-opacity:1;font-family:Century Schoolbook L;-inkscape-font-specification:Century Schoolbook L Bold" />
      <path
         id="path3056"
         d="M 42.74751,179.73718 L 37.15376,180.08093 L 37.15376,181.26843 L 37.62251,181.26843 C 39.04325,181.26842 39.09126,181.35178 39.09126,183.42468 L 39.09126,189.83093 C 40.36612,189.79864 41.64793,189.78171 42.93501,189.76843 C 43.26596,188.12506 44.03241,187.26843 45.21626,187.26843 C 46.34433,187.26844 47.02112,188.11652 47.27876,189.76843 C 48.61763,189.77721 49.95284,189.77034 51.27876,189.79968 C 50.77658,187.24238 48.89647,185.51843 46.37251,185.51843 C 44.81201,185.51844 43.70244,186.0573 42.74751,187.26843 L 42.74751,179.73718 z M 58.24751,179.73718 L 52.65376,180.08093 L 52.65376,181.26843 L 53.09126,181.26843 C 54.51202,181.26842 54.59126,181.35178 54.59126,183.42468 L 54.59126,189.92468 C 55.81432,189.96772 57.03715,189.98943 58.24751,190.04968 L 58.24751,179.73718 z M 64.68501,179.73718 C 63.54376,179.73719 62.62251,180.65046 62.62251,181.76843 C 62.6225,182.8864 63.55908,183.86218 64.65376,183.86218 C 65.81831,183.86218 66.74751,182.93298 66.74751,181.76843 C 66.74751,180.65046 65.80298,179.73718 64.68501,179.73718 z M 4.06001,180.08093 L 4.06001,181.36218 L 4.40376,181.36218 C 5.61489,181.36219 6.10039,181.44177 6.31001,181.67468 C 6.47305,181.88431 6.49751,181.96531 6.49751,183.45593 L 6.49751,192.86218 C 7.87527,192.63222 9.27764,192.41201 10.68501,192.20593 L 10.68501,189.67468 L 13.27876,189.67468 C 18.14658,189.67468 20.62251,188.02917 20.62251,184.76843 C 20.62251,183.0216 19.76938,181.59216 18.27876,180.89343 C 17.02104,180.31117 15.63911,180.08093 13.31001,180.08093 L 4.06001,180.08093 z M 11.96626,181.36218 L 12.90376,181.36218 C 15.11639,181.36219 16.12251,182.40808 16.12251,184.73718 C 16.12249,187.41563 15.0333,188.39343 12.02876,188.39343 L 10.68501,188.39343 L 10.68501,182.76843 C 10.685,181.62719 10.91817,181.36218 11.96626,181.36218 z M 76.43501,185.51843 C 72.82218,185.51844 70.14552,187.73583 69.81001,190.89343 C 71.15593,191.02514 72.4855,191.17799 73.81001,191.33093 C 73.80889,191.26683 73.81001,191.20883 73.81001,191.14343 C 73.81001,188.37179 74.84444,186.73718 76.59126,186.73718 C 77.26669,186.73717 77.81001,187.02077 77.81001,187.39343 C 77.81002,187.46331 77.76963,187.57473 77.56001,187.83093 C 77.16407,188.32004 77.06001,188.54465 77.06001,188.98718 C 77.06001,189.98869 77.84829,190.67468 78.96626,190.67468 C 80.24727,190.67467 81.06001,189.89377 81.06001,188.70593 C 81.06002,186.79605 79.25322,185.51843 76.43501,185.51843 z M 27.02876,185.89343 L 21.49751,186.04968 L 21.49751,187.23718 L 21.87251,187.23718 C 23.31655,187.23718 23.34922,187.27454 23.37251,189.48718 L 23.37251,190.73718 C 24.5837,190.62888 25.80183,190.5155 27.02876,190.42468 L 27.02876,185.89343 z M 34.81001,185.89343 L 29.27876,186.04968 L 29.27876,187.23718 L 29.65376,187.23718 C 31.07451,187.23718 31.15376,187.32112 31.15376,189.48718 L 31.15376,190.14343 C 32.37066,190.07401 33.57975,190.03918 34.81001,189.98718 L 34.81001,185.89343 z M 66.59126,185.89343 L 61.12251,186.04968 L 61.12251,187.23718 L 61.43501,187.23718 C 62.85577,187.23718 62.93501,187.35178 62.93501,189.42468 L 62.93501,190.33093 C 64.15874,190.41518 65.38277,190.51057 66.59126,190.61218 L 66.59126,185.89343 z"
         style="font-size:23.29102135px;font-style:normal;font-variant:normal;font-weight:bold;font-stretch:normal;text-align:start;line-height:100%;writing-mode:lr-tb;text-anchor:start;fill:#0f4014;fill-opacity:1;stroke:none;stroke-width:1px;stroke-linecap:butt;stroke-linejoin:miter;stroke-opacity:1;font-family:Century Schoolbook L;-inkscape-font-specification:Century Schoolbook L Bold" />
      <text
         sodipodi:linespacing="125%"
         id="text3058"
         y="236.33609"
         x="2.7049332"
         style="font-size:7.59151697px;font-style:normal;font-variant:normal;font-weight:normal;font-stretch:normal;text-align:start;line-height:125%;writing-mode:lr-tb;text-anchor:start;fill:#000000;fill-opacity:1;stroke:none;stroke-width:1px;stroke-linecap:butt;stroke-linejoin:miter;stroke-opacity:1;font-family:Bitstream Vera Sans;-inkscape-font-specification:Bitstream Vera Sans"
         xml:space="preserve"><tspan
           style="font-size:7.59151697px;font-style:normal;font-variant:normal;font-weight:normal;font-stretch:normal;text-align:start;line-height:125%;writing-mode:lr-tb;text-anchor:start;font-family:Bitstream Vera Sans;-inkscape-font-specification:Bitstream Vera Sans"
           y="236.33609"
           x="2.7049332"
           id="tspan3060"
           sodipodi:role="line">Brainstorm together</tspan></text>
    </g>
  </g>
</svg>
